<svg width="62" height="38" viewBox="0 0 62 38" fill="none" xmlns="http://www.w3.org/2000/svg">
<path d="M40.4234 24.0701C40.4234 30.6217 36.0795 35.3867 27.3916 35.3867C20.678 35.3867 14.1614 31.8123 14.1614 23.7233V4.81456C14.1614 1.78654 14.3586 0.447305 12.1873 0.447305V0H26.3073V0.447305C24.184 0.447305 24.2826 1.24013 24.2826 4.81456V24.0701C24.2826 29.9266 27.3463 32.4082 32.0326 32.4082C37.3156 32.4082 39.9811 28.7361 39.9811 24.0701H40.4234ZM34.0067 0.447305V0H46.9399L46.9892 0.447305C41.4597 0.447305 40.4234 7.09663 40.4234 11.1612H39.9798C39.9798 7.09663 38.697 0.447305 34.0067 0.447305Z" fill="#F1F6EF"/>
<path d="M5.52692 27.6232C6.12236 28.2794 6.24225 28.4173 6.22626 28.4334C6.1236 28.4072 6.02434 28.369 5.93054 28.3196C4.76897 27.7839 3.07856 27.4625 1.24428 27.4223C0.354455 27.4035 0.262541 27.4102 0.161302 27.4999C-0.129091 27.7571 0.112018 27.9968 1.20832 28.5446C1.94244 28.931 2.70752 29.2549 3.4955 29.5128C5.04071 30.0378 6.58326 30.3914 7.37451 30.4021C7.93932 30.4088 9.03695 30.6552 9.03562 30.7744C9.03562 30.8695 8.7692 31.132 8.54142 31.2619C8.39223 31.3476 8.19508 31.4641 8.10183 31.5203C7.94465 31.6154 7.91001 31.6181 7.63161 31.5498C7.2866 31.4654 5.09 31.4279 3.21843 31.4735C2.12213 31.5003 2.07817 31.5056 2.03687 31.6074C2.01433 31.6644 2.00833 31.7266 2.01956 31.7869C2.09548 31.9971 4.53053 32.9788 6.06242 33.418C7.2048 33.7379 8.36659 33.983 9.54048 34.1519C10.2638 34.2266 10.9937 34.2064 11.7118 34.0917C11.8634 34.0523 12.0211 34.0414 12.1767 34.0595C12.2211 34.1392 12.2552 34.2242 12.2779 34.3127C12.4375 34.7731 12.6494 35.2135 12.9093 35.6251C13.0005 35.7464 13.0707 35.8822 13.1171 36.0269C12.9015 36.1248 12.6789 36.2063 12.4511 36.2706C11.6209 36.527 10.7664 36.6957 9.90147 36.7742C9.25275 36.8304 9.06493 36.9081 9.06226 37.0983C9.06226 37.2536 9.09157 37.2764 9.63106 37.5188C10.5076 37.9125 10.6594 37.9474 11.6718 37.9875C12.9839 38.0384 13.6526 37.942 14.7716 37.5416C16.3008 36.9952 17.2266 36.4072 18.5813 35.1309C19.0242 34.7138 19.4879 34.3195 19.9707 33.9497C20.1665 33.8158 20.1945 33.6457 20.0652 33.3685C19.98 33.1864 19.8534 33.0605 19.4885 32.7966L18.937 32.3949C18.8664 32.344 18.8837 32.3199 19.0622 32.2328C19.1867 32.1744 19.3171 32.1295 19.4512 32.0989C19.5389 32.0852 19.6234 32.0552 19.7003 32.0105C19.9214 31.8377 19.5564 31.1842 18.9703 30.7047C18.4558 30.2864 17.8802 29.9503 17.2639 29.7084C16.9069 29.5825 16.819 29.5744 16.6391 29.6146L16.43 29.6668L16.5885 29.5557C16.8922 29.3414 17.2546 28.9785 17.3518 28.7963C17.4399 28.5725 17.5047 28.34 17.5449 28.1026C17.6369 27.6218 17.6369 27.5669 17.5596 27.1852C17.3078 25.9438 17.2572 25.8567 16.8003 25.846C16.3094 25.8566 15.8227 25.9405 15.3563 26.0951C14.8661 26.3053 14.2973 26.671 14.0642 26.9241C13.9012 27.1133 13.7612 27.3215 13.6473 27.5441L13.4688 27.9017L13.4062 27.6781C13.273 27.208 12.8414 26.4152 12.5696 26.1379C12.1963 25.7818 11.7319 25.537 11.2282 25.4308C11.0272 25.3862 10.8289 25.3303 10.6341 25.2634C10.2132 25.0974 10.0786 25.246 9.98539 25.9839C9.93827 26.317 9.86295 26.6454 9.76027 26.9656C9.58044 27.4852 9.56845 27.6446 9.66436 28.2205C9.69087 28.3553 9.70823 28.4917 9.71631 28.6289C9.67768 28.6691 9.03562 27.733 8.66264 27.0928L8.2377 26.3656L8.39622 26.0482C8.53875 25.7576 8.55341 25.6799 8.56007 25.1737C8.56007 24.6942 8.54675 24.563 8.42686 24.2228C8.1045 23.3175 7.66091 23.0175 6.92694 23.2278C6.36347 23.3845 6.17565 23.738 6.32484 24.3581C6.47403 24.9782 6.85767 25.5232 7.46243 25.9772C7.65747 26.1076 7.81759 26.2842 7.92866 26.4915C8.10583 26.8544 8.66797 27.7959 8.95303 28.2111C9.26474 28.6637 10.0693 29.4994 10.3211 29.6307L10.5169 29.7338L10.2132 29.8677C10.0467 29.9427 9.80023 30.0485 9.66703 30.1021C9.53907 30.1541 9.4237 30.2331 9.32868 30.3338L9.22877 30.4677L8.96236 30.2735C8.75588 30.1249 8.69594 30.0485 8.69594 29.9454C8.69594 29.5758 8.14579 28.4722 7.56501 27.6794C6.60857 26.3817 6.37945 26.1179 6.21028 26.1152C6.07707 26.1152 6.05443 26.1326 6.03711 26.2879C6.00914 26.5464 6.23958 27.3312 6.50733 27.895L6.74178 28.3838L6.45005 28.0919C5.68011 27.3232 4.49722 25.842 4.54917 25.7121C4.62244 25.5286 4.7037 24.3889 4.68238 23.8626C4.60113 21.8926 3.80321 20.1207 1.61061 17.0432C1.32021 16.6414 1.03382 16.2597 0.975205 16.2075C0.948883 16.1751 0.914392 16.1505 0.875352 16.1362C0.836312 16.1218 0.794156 16.1183 0.753299 16.126C0.712442 16.1337 0.674387 16.1522 0.64312 16.1798C0.611854 16.2073 0.588528 16.2428 0.575581 16.2825C0.487664 16.4633 0.543611 16.9601 0.783386 18.1079C1.24162 20.3096 1.60395 21.3086 2.66029 23.2961C2.77362 23.4879 2.86862 23.6902 2.94402 23.9001C2.9307 23.9135 2.81081 23.8157 2.6776 23.6831C1.82241 22.8381 0.546276 21.9341 0.213256 21.93C0.0400852 21.93 -0.0451697 22.0827 0.0240984 22.2729C0.177288 22.6934 1.48939 24.2068 2.28863 24.875C2.89325 25.3561 3.53016 25.7946 4.19484 26.1875C4.4133 26.3053 4.57182 26.4553 4.8409 26.8022C5.02606 27.0433 5.34043 27.4169 5.52692 27.6232ZM3.72062 25.2862C3.81387 25.4201 3.87381 25.5326 3.85383 25.5326C3.78056 25.5326 3.12252 25.0813 2.69359 24.7371C2.11034 24.2711 1.57806 23.7441 1.10575 23.1648L0.642185 22.5943C0.386426 22.2823 1.12972 22.8019 2.03021 23.5626C2.65229 24.0902 3.46753 24.9259 3.72062 25.2862ZM2.37921 20.1448C2.7895 21.2162 3.39026 23.3403 3.3836 23.7086C3.3836 23.7943 3.34897 23.7635 3.2504 23.584C3.17713 23.4501 3.00796 23.1568 2.87342 22.9238C2.05685 21.5109 1.56665 20.1529 1.14172 18.1119C1.0695 17.8097 1.01567 17.5033 0.980531 17.1945C1.00184 17.1182 2.1128 19.4525 2.37921 20.1448ZM4.32139 24.7518L4.27743 25.3023L4.01901 24.6166C3.89476 24.3042 3.7976 23.9815 3.72861 23.6523C3.67133 23.1407 3.41291 22.1042 3.11053 21.1707C2.83354 20.2881 2.48791 19.4288 2.07683 18.6007C1.89434 18.2163 1.75181 17.9016 1.75847 17.9016C1.7971 17.9016 2.58968 19.1069 2.91738 19.6734C4.00702 21.531 4.44927 23.1287 4.32139 24.7518ZM7.67823 23.955C7.6023 23.955 7.54502 23.9001 7.50106 23.7822C7.47524 23.7046 7.434 23.6331 7.37984 23.572C7.34388 23.5465 7.34787 23.5318 7.39183 23.5318C7.43579 23.5318 7.47176 23.5733 7.48908 23.6242C7.52868 23.7056 7.58497 23.7778 7.65425 23.8358C7.78346 23.9496 7.78346 23.955 7.67823 23.955ZM7.8514 25.2634C7.84962 25.3244 7.85989 25.3852 7.88161 25.4422C7.90333 25.4992 7.93608 25.5513 7.97795 25.5955C8.11115 25.7415 8.14179 25.8728 8.05787 25.9223C7.97395 25.9719 7.44112 25.5326 7.17337 25.2246C6.76043 24.7505 6.51799 24.0621 6.66851 23.7876C6.72961 23.7034 6.81322 23.6384 6.90962 23.6001C7.11742 23.5157 7.32256 23.501 7.19602 23.58C7.12675 23.6215 7.12808 23.655 7.19602 23.8545C7.2453 23.9965 7.31191 24.0876 7.37319 24.101C7.48375 24.1224 7.65425 24.2617 7.65292 24.3286C7.65292 24.3514 7.59032 24.346 7.51971 24.3166C7.34521 24.2469 7.24131 24.2831 7.23998 24.413C7.23998 24.5201 7.43979 24.6808 7.57433 24.6875C7.59755 24.6902 7.6188 24.702 7.6335 24.7203C7.6482 24.7386 7.65517 24.7619 7.65292 24.7853C7.66273 24.8597 7.69863 24.9281 7.75416 24.9782C7.78926 25.0163 7.81604 25.0613 7.83279 25.1104C7.84954 25.1596 7.85588 25.2117 7.8514 25.2634ZM8.19508 25.0625C8.17316 25.0598 8.15314 25.0487 8.13922 25.0315C8.12531 25.0142 8.11859 24.9922 8.12048 24.9701C8.12048 24.7826 8.05388 24.5094 8.00059 24.4746C7.94731 24.4398 7.9633 24.4009 8.00059 24.3193C8.04855 24.2135 8.06453 24.2416 8.14313 24.5657C8.19108 24.7679 8.23904 24.9674 8.24836 24.9982C8.25769 25.0291 8.23504 25.0625 8.19508 25.0625ZM19.3046 33.4649C18.9078 33.3641 18.5312 33.1956 18.191 32.9667L17.9073 32.7725L18.1524 32.7042C18.2517 32.6834 18.3459 32.6429 18.4294 32.585C18.4854 32.4966 18.5786 32.5341 18.7918 32.7283C18.9185 32.8426 19.0574 32.9423 19.206 33.0257C19.4472 33.1529 19.7495 33.3779 19.7469 33.4274C19.7469 33.5346 19.6456 33.6109 19.5817 33.5613C19.4957 33.513 19.4019 33.4803 19.3046 33.4649ZM18.921 33.7328L18.3802 33.7609C17.9917 33.774 17.6029 33.7624 17.2159 33.7261C16.2062 33.6216 16.2275 33.6283 16.0597 33.3497C15.9784 33.2158 15.8705 33.039 15.8199 32.96C15.7133 32.7926 15.732 32.7899 16.0504 32.9252C16.4207 33.0506 16.8194 33.0641 17.1973 32.964C17.3558 32.9239 17.4983 32.8904 17.513 32.8904C17.6224 32.9546 17.7263 33.0281 17.8233 33.11C18.0411 33.27 18.2719 33.4111 18.5134 33.5319L18.921 33.7328ZM17.0281 34.0569L17.5223 34.1211L17.2559 34.2176C17.1107 34.2711 16.8563 34.381 16.6858 34.4626C16.5847 34.5205 16.4768 34.5655 16.3647 34.5966C16.3457 34.4918 16.3345 34.3857 16.3314 34.2792C16.3128 33.9296 16.2368 33.9497 17.0281 34.0569ZM18.5107 34.3247C17.5103 35.0037 15.5628 36.1581 15.5095 36.1046C15.4949 36.0885 15.5668 35.9706 15.668 35.8367C15.7693 35.7028 15.9425 35.4577 16.0517 35.2863C16.1609 35.1149 16.2848 34.9729 16.3394 34.9729C16.5579 34.909 16.7701 34.8251 16.9735 34.7225C17.3179 34.567 17.6743 34.4398 18.0391 34.3421C18.6759 34.1868 18.7105 34.1854 18.5107 34.322V34.3247ZM10.5688 37.338C11.6239 37.4344 13.4581 37.1907 14.7116 36.7876C15.7453 36.4541 16.3701 36.1394 17.6289 35.3144C17.8793 35.1497 18.1444 34.985 18.2163 34.9488C18.3335 34.8912 18.3389 34.8925 18.2683 34.9635C17.6494 35.5324 16.9806 36.0438 16.2701 36.4916C15.4682 36.9144 14.6238 37.2502 13.7512 37.4933C12.9879 37.6545 12.2068 37.714 11.428 37.6701C11.0031 37.634 10.096 37.4023 10.096 37.3273C10.2533 37.3093 10.4122 37.312 10.5688 37.3353V37.338ZM13.3143 36.3001C13.3396 36.2773 13.4235 36.3001 13.5021 36.3443C13.6353 36.422 13.6579 36.4206 13.8484 36.3255L14.0536 36.2211L14.1628 36.3912L14.2707 36.5626L14.0749 36.6188C13.311 36.8034 12.5337 36.9266 11.7504 36.9871C11.2908 37.0219 10.9072 37.042 10.8979 37.0327C10.9884 36.9913 11.0852 36.9655 11.1843 36.9563C11.8463 36.8304 13.1824 36.4179 13.3143 36.2974V36.3001ZM12.0075 32.7632C11.9222 32.7792 11.9182 32.7699 11.9795 32.6975C12.0634 32.5984 12.1607 32.5864 12.1287 32.6801C12.1159 32.7019 12.0984 32.7205 12.0774 32.7344C12.0563 32.7483 12.0324 32.7573 12.0075 32.7605V32.7632ZM7.92067 32.5087C7.59964 32.5087 5.0567 32.1337 4.44394 32.0011L3.73394 31.8444L4.17752 31.815C4.99276 31.7614 6.86033 31.7641 7.25463 31.815C7.73684 31.8819 7.77547 31.8967 7.77414 32.0145C7.7976 32.1202 7.84299 32.2197 7.90735 32.3065C8.02057 32.5007 8.02191 32.5074 7.92067 32.506V32.5087ZM8.4868 32.9105C8.78785 32.9265 9.24476 32.9774 9.50318 33.023C10.2878 33.1569 10.8779 33.1944 11.151 33.114C11.3381 33.064 11.5332 33.0517 11.7251 33.0779L12.0581 33.114L12.0821 33.3819L12.1061 33.6578L11.7064 33.7448C11.4001 33.8131 11.0897 33.8292 10.2958 33.8185C9.36331 33.8051 9.20346 33.789 8.39489 33.6216C7.41847 33.4207 6.16499 33.0966 5.40437 32.8489C4.9155 32.6895 3.7366 32.2489 3.69531 32.2101C3.65402 32.1712 3.81653 32.2007 4.39332 32.3319C5.74636 32.5982 7.1129 32.7895 8.4868 32.9051V32.9105ZM9.24076 31.0529C9.46055 30.6619 9.64038 30.4664 9.84419 30.394C10.3424 30.2199 11.0284 29.8744 11.0297 29.7967C11.0297 29.6936 10.8686 29.5383 10.5515 29.3401C10.4418 29.2807 10.3473 29.1963 10.2758 29.0936C10.2483 29.0121 10.2145 28.9328 10.1745 28.8566C10.0813 28.6785 9.95609 27.9914 9.96008 27.6834C9.97839 27.4839 10.0255 27.2881 10.1 27.1022C10.194 26.826 10.2605 26.5412 10.2984 26.2518C10.3797 25.6009 10.3943 25.5661 10.5648 25.6317C10.7356 25.6854 10.909 25.7301 11.0844 25.7656C11.6092 25.8808 12.0914 26.1259 12.3672 26.4178C12.6216 26.6857 13.0092 27.4437 13.1158 27.8776C13.1486 28.0151 13.1932 28.1496 13.249 28.2794C13.2875 28.3585 13.3102 28.4445 13.3156 28.5325C13.3156 28.637 13.3476 28.6664 13.4635 28.6825C13.6659 28.7093 13.7752 28.6062 13.7499 28.4146C13.7112 28.1321 14.0696 27.4236 14.4252 27.0754C14.6357 26.8692 15.375 26.4607 15.736 26.3522C15.9909 26.2866 16.2513 26.2454 16.5139 26.229L16.9695 26.2049L17.0214 26.3455C17.1387 26.671 17.2772 27.5709 17.2479 27.8187C17.1586 28.5901 16.9815 28.8901 16.3594 29.2918C15.9851 29.5356 15.7613 29.5959 15.6374 29.486C15.5135 29.3762 15.2551 29.3307 15.1605 29.3883C15.1006 29.4244 15.0992 29.47 15.1472 29.6427C15.1707 29.6968 15.1828 29.7552 15.1828 29.8142C15.1828 29.8731 15.1707 29.9315 15.1472 29.9856C15.0979 30.0887 15.0992 30.1369 15.1472 30.1999C15.1733 30.2376 15.2106 30.2662 15.2538 30.2815C15.347 30.2815 15.4629 30.1101 15.4642 29.9655C15.4642 29.849 15.4895 29.8128 15.5668 29.8128C15.684 29.8128 15.752 29.8985 15.6734 29.9467C15.6554 29.9647 15.6415 29.9864 15.6326 30.0104C15.6237 30.0343 15.6201 30.0598 15.622 30.0853C15.6239 30.1107 15.6313 30.1355 15.6436 30.1578C15.6559 30.1801 15.6729 30.1995 15.6934 30.2146C15.9027 30.1979 16.1088 30.1529 16.3061 30.0807C16.791 29.936 16.8629 29.9267 17.0534 29.9869C17.5274 30.1755 17.9798 30.4148 18.4028 30.7007C18.7611 30.9512 19.3579 31.5445 19.3539 31.6489C19.3539 31.6864 19.2207 31.7828 19.0515 31.8565C18.8824 31.9301 18.5973 32.0735 18.4095 32.1712C17.9219 32.4243 16.827 32.727 16.5179 32.6935C16.2355 32.6627 15.6241 32.3748 15.2471 32.0949C15.1439 32.0091 15.0261 31.9429 14.8994 31.8993C14.8871 31.8984 14.8751 31.8949 14.8641 31.8891C14.8532 31.8833 14.8435 31.8754 14.8356 31.8658C14.8278 31.8561 14.822 31.845 14.8185 31.8331C14.8151 31.8211 14.814 31.8086 14.8155 31.7962C14.8155 31.6529 14.625 31.602 14.4998 31.7132C14.312 31.8806 14.4252 32.1498 14.653 32.0801C14.7289 32.056 14.7596 32.0708 14.7596 32.1284C14.816 32.2637 14.8983 32.3866 15.002 32.49C15.668 33.2439 15.9265 33.706 15.9704 34.1921C16.0077 34.6167 15.9491 34.8001 15.6241 35.2729C15.2498 35.8166 15.1485 35.9278 14.9194 36.0403C14.6104 36.1916 14.4638 36.2077 14.4345 36.0938C14.4018 36.0156 14.3466 35.9489 14.276 35.9023C14.1428 35.8166 14.1268 35.8166 13.8764 35.9023L13.61 35.9934L13.4928 35.8434C13.0649 35.2771 12.7332 34.6436 12.511 33.9685C12.3299 33.3431 12.3778 32.2355 12.5869 32.2382C12.6815 32.2382 12.8387 31.8793 12.7774 31.8002C12.7499 31.7276 12.7439 31.6486 12.7601 31.5726C12.7828 31.4387 12.8121 31.4025 12.9133 31.4038C13.0545 31.4038 13.0612 31.4212 12.9746 31.5552C12.958 31.5821 12.9468 31.612 12.9418 31.6433C12.9368 31.6745 12.938 31.7065 12.9453 31.7373C12.9587 31.7631 12.9789 31.7848 13.0036 31.7999C13.0284 31.815 13.0568 31.8229 13.0858 31.8229C13.1148 31.8229 13.1432 31.815 13.168 31.7999C13.1928 31.7848 13.2129 31.7631 13.2263 31.7373C13.2573 31.6745 13.303 31.6202 13.3596 31.5793C13.4781 31.4949 13.4808 31.4226 13.3689 31.2953C13.2956 31.2123 13.2943 31.2016 13.3622 31.2284C13.4225 31.2669 13.4692 31.3236 13.4954 31.3904C13.562 31.5404 13.6819 31.5592 13.7618 31.4293C13.8151 31.3449 13.8244 31.3476 13.895 31.4574C14.0522 31.6851 14.3253 31.5431 14.1828 31.3074C14.1322 31.2244 14.1415 31.1829 14.2294 31.0717C14.2815 31.0141 14.319 30.9448 14.3386 30.8695C14.3386 30.832 14.3919 30.7945 14.4572 30.7864C14.6077 30.7677 14.6423 30.5467 14.5318 30.3164C14.4212 30.086 14.4319 30.0659 14.5544 30.0994C14.6357 30.1222 14.649 30.1583 14.6237 30.2789C14.5984 30.3994 14.6144 30.4382 14.6756 30.4623C14.7369 30.4865 14.7502 30.5347 14.7303 30.611C14.693 30.7516 14.8568 30.9244 14.9834 30.8788C15.1099 30.8333 15.1006 30.5789 14.9953 30.4704C14.9471 30.411 14.9207 30.3368 14.9208 30.2601C14.9257 30.2003 14.9075 30.1408 14.8701 30.0941C14.852 30.0735 14.8383 30.0495 14.8296 30.0235C14.8209 29.9976 14.8174 29.9701 14.8195 29.9427C14.8195 29.7941 14.5971 29.5691 14.4878 29.6092C14.4653 29.6184 14.4457 29.6336 14.4311 29.6532C14.4165 29.6728 14.4076 29.6961 14.4052 29.7204C14.4052 29.7646 14.3826 29.8008 14.3573 29.7994C14.2973 29.7994 14.2494 29.6655 14.2507 29.5034C14.2085 29.2599 14.1084 29.0302 13.959 28.8338C13.8391 28.6932 13.4781 28.7173 13.4768 28.8673C13.4768 28.9035 13.4355 28.9303 13.3849 28.9249C13.3532 28.9284 13.3232 28.9405 13.2978 28.9598C13.2725 28.9792 13.2529 29.005 13.241 29.0347C13.2086 29.1028 13.1521 29.1563 13.0825 29.1847C12.9373 29.2276 12.8947 29.3079 12.9559 29.4258C13.0012 29.5128 12.9946 29.5182 12.904 29.4673C12.8331 29.41 12.7857 29.3285 12.7708 29.2383C12.7522 29.1449 12.7146 29.0564 12.6602 28.9785C12.6176 28.9289 12.5976 28.866 12.6149 28.8378C12.7122 28.6838 12.4817 28.5459 12.3485 28.6785C12.3005 28.7254 12.2646 28.7187 12.1913 28.6504C12.0741 28.5419 11.9249 28.5325 11.8876 28.6329C11.884 28.6998 11.8956 28.7666 11.9214 28.8283C11.9473 28.89 11.9867 28.945 12.0368 28.9892C12.0701 29.0106 12.0168 29.1137 11.9036 29.249C11.8116 29.3588 11.727 29.4747 11.6505 29.5959C11.5612 29.7606 11.6199 30.2199 11.7397 30.2976C11.7682 30.317 11.7897 30.345 11.8012 30.3775C11.8127 30.41 11.8136 30.4454 11.8037 30.4784C11.7757 30.619 11.9156 30.7088 12.0142 30.6123C12.1127 30.5159 12.1567 30.54 12.1554 30.6364C12.1732 30.7131 12.2142 30.7823 12.2726 30.8347C12.4338 30.994 12.5137 31.2016 12.4551 31.3047C12.4253 31.3688 12.4111 31.439 12.4138 31.5096C12.4218 31.6985 12.3032 31.8685 11.9209 32.2194C11.472 32.6319 11.1003 32.7966 10.6341 32.7913C10.0253 32.7599 9.4216 32.6633 8.83314 32.5033C8.46682 32.3882 8.11915 32.1337 8.12315 31.9797C8.12315 31.9328 8.2457 31.8243 8.38956 31.74C8.88243 31.4761 9.10489 31.2887 9.24076 31.0476V31.0529ZM12.3525 29.3722C12.2726 29.324 12.2712 29.3106 12.3405 29.2651C12.4604 29.186 12.4964 29.2021 12.503 29.3307C12.503 29.3963 12.5137 29.5195 12.519 29.6066C12.5337 29.8048 12.4311 30.1115 12.3592 30.086C12.2659 30.0539 12.2646 29.7217 12.3592 29.6722C12.3854 29.656 12.4069 29.6333 12.4216 29.6061C12.4363 29.579 12.4437 29.5485 12.4431 29.5176C12.4424 29.4867 12.4337 29.4565 12.4178 29.4301C12.4019 29.4036 12.3794 29.3818 12.3525 29.3668V29.3722ZM13.6726 29.1311C13.7303 29.1589 13.7811 29.1995 13.821 29.2498C13.8609 29.3002 13.889 29.359 13.903 29.4218C13.903 29.5262 13.5447 29.2664 13.5434 29.1606C13.542 29.0548 13.538 29.0494 13.6726 29.1285V29.1311ZM6.59658 27.2495C6.5464 27.1396 6.50929 27.024 6.48602 26.9053C6.65837 27.0831 6.81859 27.2724 6.96557 27.4718C7.62495 28.3088 7.96996 28.8767 8.21906 29.5343L8.32296 29.8088L8.04855 29.5677C7.61696 29.1847 6.91761 28.0678 6.59658 27.2442V27.2495ZM1.35085 28.187C1.64524 28.2178 4.99276 29.1847 6.02512 29.5383C6.72446 29.7767 7.34388 29.9856 7.40116 30.0003C7.45844 30.015 7.37851 30.0298 7.22399 30.0311C6.18897 30.0405 3.2424 29.1713 1.74781 28.424C1.48805 28.2821 1.30955 28.1789 1.35085 28.183V28.187ZM7.1787 29.4097C7.32789 29.5249 7.43446 29.62 7.41448 29.62C7.3945 29.62 6.83369 29.4325 6.17032 29.2048C5.50694 28.9771 4.10825 28.562 3.04126 28.2794C1.14971 27.7758 1.1244 27.7678 1.53468 27.7745C3.61272 27.8066 5.99848 28.499 7.1787 29.4057V29.4097Z" fill="#F1F6EF"/>
<path d="M14.8929 29.2624C14.9901 29.3695 15.0061 29.4191 14.9635 29.4874C14.9447 29.5191 14.9176 29.545 14.8853 29.5625C14.8529 29.5799 14.8165 29.5882 14.7798 29.5864C14.7431 29.5846 14.7076 29.5728 14.6771 29.5523C14.6466 29.5318 14.6222 29.5033 14.6065 29.47C14.4227 29.1874 14.6571 29.0146 14.8929 29.2624Z" fill="#F1F6EF"/>
<path d="M12.1354 28.0062C12.2819 28.1562 12.1354 28.4669 11.9569 28.3946C11.8983 28.3705 11.8809 28.3062 11.8943 28.1642C11.9142 27.9566 12.0208 27.887 12.1354 28.0062Z" fill="#F1F6EF"/>
<path d="M11.5438 30.457C11.6357 30.6324 11.5837 30.7958 11.4385 30.7931C11.3466 30.7931 11.3053 30.7516 11.2667 30.6458C11.241 30.5742 11.235 30.4969 11.2494 30.4222C11.2947 30.3097 11.4798 30.3338 11.5438 30.457Z" fill="#F1F6EF"/>
<path d="M11.7718 31.1561C11.7824 31.1526 11.7923 31.147 11.8008 31.1396C11.8093 31.1323 11.8162 31.1233 11.8212 31.1131C11.8262 31.103 11.8291 31.092 11.8297 31.0808C11.8304 31.0695 11.8288 31.0582 11.8251 31.0476C11.8154 30.9997 11.8246 30.95 11.8507 30.9088C11.8768 30.8676 11.9177 30.8381 11.9649 30.8266C12.0523 30.8781 12.1291 30.9458 12.1914 31.0262C12.4045 31.2645 12.4005 31.3851 12.1794 31.373C12.0329 31.365 12.0249 31.373 12.0462 31.5418C12.0675 31.7105 12.0462 31.7185 11.9329 31.7172C11.8197 31.7159 11.7891 31.677 11.7478 31.5498C11.6665 31.3208 11.6759 31.1922 11.7718 31.1561Z" fill="#F1F6EF"/>
<path d="M12.7922 28.3383C12.8961 28.2647 13.0906 28.2472 13.1478 28.3062C13.1621 28.3253 13.1722 28.3472 13.1774 28.3706C13.1826 28.3939 13.1829 28.4181 13.1781 28.4415C13.1733 28.465 13.1636 28.4871 13.1497 28.5065C13.1357 28.5258 13.1178 28.542 13.0972 28.5539C12.8321 28.653 12.5937 28.4843 12.7922 28.3383Z" fill="#F1F6EF"/>
<path d="M11.2962 29.3668C11.3049 29.3009 11.3262 29.2372 11.3589 29.1793C11.3922 29.115 11.4374 29.028 11.4574 28.9851C11.5001 28.8967 11.6266 28.8579 11.6825 28.9155C11.7691 29.0066 11.7105 29.3387 11.588 29.4512C11.5536 29.4756 11.5262 29.5085 11.5085 29.5468C11.4907 29.5851 11.4832 29.6274 11.4867 29.6695C11.52 29.8034 11.3615 30.0311 11.2336 30.0297C11.1058 30.0284 11.0831 29.8583 11.219 29.5878C11.2558 29.5185 11.2818 29.444 11.2962 29.3668Z" fill="#F1F6EF"/>
<path d="M13.4915 32.135C13.2344 32.0895 13.1758 32.044 13.2025 31.91C13.2251 31.7962 13.4822 31.7587 13.6261 31.8471C13.6541 31.87 13.6766 31.8991 13.6918 31.932C13.707 31.9649 13.7146 32.0009 13.714 32.0373C13.7127 32.1672 13.7033 32.1712 13.4915 32.135Z" fill="#F1F6EF"/>
<path d="M14.0468 32.269C13.851 32.269 13.7951 32.2074 13.8444 32.056C13.871 31.9757 13.9243 31.9529 14.0855 31.9543C14.2187 31.9543 14.3026 31.9837 14.3213 32.0373C14.3679 32.1618 14.2373 32.2717 14.0468 32.269Z" fill="#F1F6EF"/>
<path d="M13.2823 32.3574C13.269 32.4645 13.2371 32.4913 13.1345 32.4913C13.0319 32.4913 13.0013 32.4632 12.9906 32.2998C12.976 32.0802 13.0879 31.9998 13.2184 32.1351C13.2434 32.1659 13.262 32.2014 13.273 32.2396C13.284 32.2778 13.2872 32.3179 13.2823 32.3574Z" fill="#F1F6EF"/>
<path d="M14.5705 31.4052C14.4279 31.2337 14.4253 31.1454 14.5611 31.0114C14.697 30.8775 14.749 30.8775 14.8049 30.9739C14.8361 31.0658 14.8523 31.1621 14.8529 31.2592C14.8662 31.5485 14.7396 31.6141 14.5705 31.4052Z" fill="#F1F6EF"/>
<path d="M14.2681 28.4147C14.3287 28.4729 14.4003 28.5184 14.4786 28.5486C14.5678 28.5486 14.745 28.8165 14.745 28.9504C14.745 29.1352 14.5372 29.1111 14.4 28.9075C14.3235 28.805 14.2269 28.7193 14.1162 28.6557C13.983 28.5901 13.9417 28.5312 13.943 28.4361C13.9444 28.2593 14.0789 28.25 14.2681 28.4147Z" fill="#F1F6EF"/>
<path d="M40.1957 25.8701C40.7099 25.5179 41.9074 25.013 45.9636 23.884C47.666 23.4099 48.2375 23.2264 49.1246 22.8702C50.5553 22.2943 52.311 21.7425 53.2541 21.5698C54.9259 21.2658 56.3725 20.8305 57.3383 20.3404C58.9527 19.5207 60.9349 18.2793 60.9495 18.073C60.9642 17.8668 60.8017 17.7771 60.5379 17.8641C60.4047 17.9083 59.6787 18.1132 58.9261 18.3194C57.273 18.7734 55.8157 19.2141 55.3548 19.4002C55.2458 19.4506 55.132 19.4897 55.0151 19.5167C55.0151 19.5047 55.3868 19.1846 55.8423 18.8043C56.2979 18.4239 56.908 17.8668 57.2064 17.5735C57.7912 16.9842 58.296 16.6066 58.6717 16.4726C59.0193 16.3508 60.3634 15.5271 60.7191 15.2191C61.1001 14.8883 61.5183 14.3366 61.6262 14.0138C61.7741 13.5826 61.5916 13.2437 60.9962 12.8433C60.7191 12.6571 60.478 12.6063 60.0637 12.6491C59.5175 12.7067 59.1859 12.9612 58.7423 13.6643C58.4639 14.1062 58.3014 14.7785 58.2854 15.562C58.2787 15.9329 58.2774 15.9356 57.979 16.2892C57.2757 17.1195 56.4125 17.8494 55.5812 18.5525C53.5671 20.2573 52.1178 21.1707 49.9039 22.139C48.4786 22.7617 47.8205 22.9854 45.572 23.6121C44.4797 23.9188 43.2262 24.2817 42.7879 24.4157C42.5254 24.5022 42.2587 24.5751 41.9887 24.634C41.9887 24.6206 42.343 24.3661 42.776 24.0768C44.2133 23.1045 44.4863 22.8889 45.1937 22.1751C45.9423 21.4211 46.238 21.0207 46.8388 19.9506C46.9602 19.7231 47.0936 19.5023 47.2384 19.2891C47.2873 19.4563 47.3189 19.6282 47.333 19.802C47.4849 20.9524 47.5461 21.0689 48.2188 21.4787C49.0367 21.9756 49.0181 21.9702 49.1979 21.8497C50.1304 21.2095 50.2836 21.0542 50.6525 20.3243C51.0881 19.4645 51.1414 19.2221 50.9949 18.7681L50.9216 18.5377L51.188 18.6717C51.5748 18.863 52.0131 18.9217 52.4362 18.8391C52.8876 18.775 53.3173 18.6038 53.6897 18.3395C54.3171 17.923 54.449 17.7195 54.2878 17.4181C54.2378 17.2756 54.2074 17.1269 54.1972 16.9762C54.1975 16.8174 54.1476 16.6626 54.0547 16.5342C53.8922 16.3722 52.6853 15.7548 52.3962 15.6865C52.1906 15.6476 51.9821 15.6261 51.7728 15.6222H51.3998L51.7635 15.2472C51.9843 15.0466 52.16 14.801 52.279 14.5267C52.6147 13.758 52.7026 13.2665 52.5827 12.8085C52.5241 12.5835 52.4495 12.4683 52.2084 12.1951C51.8621 11.8107 51.8341 11.8027 51.4931 11.9808C51.2706 12.096 51.248 12.096 51.0801 11.9674C50.8137 11.7666 50.6033 11.7465 50.2209 11.8884C49.731 12.0735 49.3062 12.3996 48.9994 12.8259C48.8904 12.9589 48.7907 13.0994 48.701 13.2464C48.6851 13.3187 48.6611 13.2852 48.5558 13.0402C48.484 12.8839 48.3774 12.7465 48.2441 12.6384C48.055 12.4777 47.9484 12.4389 47.4888 12.3705C46.7735 12.2554 46.4525 12.2969 45.8903 12.5808C45.7119 12.6705 45.6239 12.7402 45.6 12.8219C45.5684 12.9033 45.5296 12.9818 45.4841 13.0562C45.3375 13.2839 45.3269 13.6093 45.4454 14.2468C45.5786 15.0102 45.6546 15.2124 45.8664 15.4803L46.0249 15.6825L45.6359 15.7709C44.6822 15.9878 44.497 16.1017 44.0694 16.7432C43.8976 17.0003 43.6285 17.4409 43.4713 17.7235C42.9877 18.5927 43.085 18.756 44.3372 19.1752C44.7461 19.3091 45.219 19.4752 45.3908 19.5368C45.7158 19.656 46.4565 19.6707 46.5617 19.5676C46.5937 19.5355 46.635 19.5234 46.6536 19.5422C46.6963 19.5837 46.1941 20.4328 45.8038 20.9792C45.5577 21.3057 45.2908 21.6157 45.0045 21.9073C44.4783 22.443 43.755 23.0389 43.7364 22.9599C43.7772 22.8422 43.8366 22.7319 43.9122 22.6331C44.1893 22.2166 44.8034 20.9845 44.7927 20.8667C44.7782 20.7977 44.74 20.7361 44.6848 20.6926C44.6022 20.6323 44.5143 20.6578 44.152 20.8466C43.3741 21.2484 42.6534 21.9247 41.8874 22.9653C41.7183 23.1929 41.3 23.7139 40.955 24.1237C40.61 24.5335 40.289 24.8415 40.1331 25.0411L40.1957 25.8701ZM40.0931 24.5871H40.3289C40.4688 24.1478 40.4088 23.4394 40.4128 22.6747C40.4128 22.1791 40.4235 21.7573 40.4315 21.7372C40.4395 21.7171 40.4048 21.314 40.3529 20.8426C40.2517 19.9239 40.2796 19.3975 40.4861 18.298C40.7259 17.0365 41.0696 16.2276 41.685 15.4937C41.9514 15.1789 41.9687 15.1629 42.066 15.2124C42.0992 15.2276 42.1353 15.2355 42.1718 15.2355C42.2084 15.2355 42.2445 15.2276 42.2777 15.2124C42.4829 15.1319 42.6923 15.063 42.9052 15.0062C43.7843 14.7544 44.2439 14.3767 44.3398 13.8317C44.4157 13.391 44.481 12.5339 44.449 12.3759C44.3824 12.0451 44.0281 11.8161 43.6085 11.8322C43.1116 11.8509 42.7386 12.1094 42.2964 12.7429C41.8129 13.4339 41.6077 14.0218 41.5944 14.7517C41.5944 15.0544 41.5677 15.1066 41.3613 15.3637C40.7951 16.0628 40.4781 16.7418 40.2263 17.7918L40.0931 18.3569L40.0145 17.848C39.9719 17.5681 39.9146 17.157 39.8813 16.9333C39.6997 15.7058 39.3742 14.5042 38.9116 13.3536C38.6452 12.704 38.492 12.5755 38.2642 12.8045C38.1643 12.9062 37.9192 13.8759 37.8233 14.5562C37.5209 16.6869 37.9565 18.5739 39.1966 20.4301C39.4821 20.8452 39.7212 21.2907 39.9093 21.7586C39.9919 22.2238 40.0364 22.695 40.0425 23.1675C40.0323 23.4714 40.0056 23.7745 39.9626 24.0755L40.0931 24.5871ZM59.4323 13.4794C59.3284 13.4553 59.3217 13.4419 59.3883 13.375C59.4549 13.308 59.5096 13.3094 59.5362 13.4312C59.5668 13.4808 59.5375 13.4942 59.4496 13.4741L59.4323 13.4794ZM58.8901 14.4544C58.8901 14.445 58.9194 14.3741 58.9514 14.2964C59.0047 14.1625 59.0127 14.1625 59.1139 14.2696C59.2152 14.3767 59.2018 14.4035 59.1392 14.4651C59.0766 14.5267 58.8888 14.516 58.9075 14.449L58.8901 14.4544ZM58.9194 15.0999C58.8742 15.0999 58.8675 14.8937 58.9101 14.8495C58.9328 14.8267 58.9501 14.8736 58.9488 14.9539C58.9474 15.0343 58.9514 15.0932 58.9368 15.0946L58.9194 15.0999ZM58.8821 15.4682C58.994 15.4441 59.034 15.4106 59.0633 15.3155C59.0833 15.2486 59.1246 15.1816 59.1552 15.1816C59.1859 15.1816 59.3297 14.891 59.4403 14.5522C59.4463 14.5232 59.4447 14.4931 59.4356 14.4649C59.4265 14.4367 59.4102 14.4114 59.3883 14.3915C59.2818 14.2924 59.3723 14.1303 59.4949 14.2013C59.6175 14.2723 59.7027 14.1705 59.696 13.9562C59.6919 13.9099 59.6987 13.8633 59.7157 13.82C59.7328 13.7768 59.7597 13.7382 59.7943 13.7073C59.8289 13.6765 59.8702 13.6542 59.9149 13.6423C59.9596 13.6304 60.0065 13.6292 60.0517 13.6388C60.0935 13.6462 60.1365 13.6427 60.1765 13.6286C60.2166 13.6145 60.2524 13.5903 60.2805 13.5583C60.3086 13.5263 60.328 13.4876 60.3369 13.4459C60.3458 13.4042 60.344 13.3608 60.3315 13.3201C60.2622 13.1674 60.3314 13.0107 60.4527 13.012C60.7191 13.012 61.3252 13.5357 61.3145 13.7513C61.3039 13.9669 61.0042 14.4209 60.6485 14.7812C60.3488 15.0838 59.716 15.5057 58.7489 16.0441C58.6264 16.1124 58.5784 16.032 58.681 15.9289C58.7272 15.8551 58.7483 15.7681 58.7409 15.6811C58.7489 15.5111 58.7489 15.495 58.8821 15.4682ZM53.5125 20.6591C54.1932 20.248 55.0378 19.889 56.2912 19.4779C57.2823 19.1525 59.8399 18.4293 59.8399 18.4735C59.7127 18.5714 59.5792 18.6609 59.4403 18.7413C58.713 19.1926 57.233 19.9948 56.6829 20.2346C56.0166 20.5112 55.3298 20.7351 54.6288 20.9042C54.0787 21.0381 52.6307 21.3314 52.6054 21.3059C52.5801 21.2805 53.0356 20.9497 53.5179 20.6578L53.5125 20.6591ZM50.2609 16.3387C50.1477 16.4887 50.1424 16.5235 50.2236 16.6066C50.3049 16.6896 50.3368 16.6856 50.514 16.5275C50.6472 16.4043 50.7112 16.3159 50.7165 16.2195C50.7165 16.0923 50.7445 16.0856 51.1401 16.0146C51.9194 15.8807 52.347 15.9624 53.1209 16.3896C53.2737 16.4783 53.4311 16.5587 53.5924 16.6307C53.6977 16.6307 53.8136 16.8516 53.8402 17.1021C53.8512 17.2395 53.8812 17.3748 53.9295 17.5038C54.0067 17.6485 53.8415 17.8212 53.3394 18.1212C52.9465 18.3725 52.4888 18.502 52.0233 18.4935C51.6929 18.4935 51.5783 18.4641 51.2 18.2686C51.0139 18.1649 50.8162 18.0836 50.6112 18.0262C50.494 18.0141 50.4248 17.9659 50.2969 17.8025C50.169 17.6391 50.1104 17.5976 50.0052 17.6123C49.8999 17.6271 49.8799 17.6271 49.9052 17.4864C49.9129 17.4494 49.913 17.4111 49.9055 17.3741C49.8979 17.337 49.8829 17.3018 49.8613 17.2708C49.8514 17.2631 49.8432 17.2533 49.8372 17.2422C49.8312 17.2311 49.8276 17.2188 49.8266 17.2062C49.8256 17.1936 49.8272 17.181 49.8314 17.169C49.8355 17.1571 49.8421 17.1461 49.8506 17.1369C49.8667 17.1142 49.8753 17.0871 49.8753 17.0592C49.8753 17.0314 49.8667 17.0042 49.8506 16.9815C49.808 16.9092 49.8227 16.8704 49.9199 16.8048C49.9647 16.7725 50.0005 16.7292 50.0238 16.679C50.0472 16.6288 50.0572 16.5734 50.0531 16.5182C50.0664 16.3387 50.0864 16.3066 50.2249 16.2409L50.3821 16.1673L50.2609 16.3387ZM50.863 12.2647C50.9532 12.3336 51.0528 12.3891 51.1587 12.4295C51.3524 12.4445 51.5456 12.394 51.7076 12.2862C51.7329 12.2607 51.8408 12.3304 51.974 12.467C52.0486 12.5262 52.1106 12.5998 52.1564 12.6836C52.2021 12.7673 52.2307 12.8594 52.2404 12.9545C52.3003 13.3294 52.2497 13.616 52.0273 14.1598C51.8474 14.6017 51.8061 14.6647 51.4558 15.0182C51.0082 15.4695 50.5087 15.7414 50.2982 15.6477C50.193 15.6008 50.153 15.6195 49.9665 15.8084C49.8173 15.9584 49.764 16.0441 49.788 16.0976C49.812 16.1512 49.8093 16.1847 49.788 16.1994C49.7667 16.2142 49.6841 16.099 49.5922 15.941L49.4244 15.6544H49.118C48.9191 15.6551 48.7211 15.6794 48.5279 15.7267C48.2548 15.8003 48.1762 15.7695 48.3054 15.6396C48.3837 15.5734 48.4787 15.5305 48.5799 15.5156C48.6811 15.5007 48.7844 15.5144 48.8782 15.5553C49.1313 15.6463 49.2991 15.5794 49.2072 15.4213C49.1753 15.3664 49.1726 15.3155 49.2072 15.3088C49.2419 15.3021 49.2738 15.3517 49.2912 15.42C49.3178 15.5285 49.3471 15.5405 49.5269 15.5218C49.6299 15.5131 49.7288 15.4771 49.8133 15.4173C49.8343 15.3956 49.8608 15.3801 49.8899 15.3723C49.9189 15.3645 49.9496 15.3648 49.9785 15.3731C50.0451 15.4026 50.0877 15.3731 50.177 15.2392C50.3568 14.9713 50.3675 14.8789 50.2289 14.741C50.0904 14.6031 49.9625 14.583 49.8293 14.7156C49.6961 14.8481 49.4763 14.8816 49.3884 14.7531C49.3221 14.6752 49.2353 14.6176 49.138 14.587C48.8849 14.5066 48.8449 14.4531 48.8276 14.1263C48.805 13.6884 48.9821 13.3308 49.467 12.8353C50.0806 12.2112 50.5478 12.0206 50.8683 12.2634L50.863 12.2647ZM48.9208 17.3164C48.8566 17.3422 48.7876 17.3535 48.7185 17.3496C48.6495 17.3456 48.5821 17.3265 48.5212 17.2936C48.4759 17.2481 48.5066 17.2266 48.6757 17.1918C48.8702 17.1516 49.0114 17.2253 48.9208 17.3164ZM49.2259 16.336C49.1526 16.2289 49.1553 16.2235 49.2698 16.2409C49.4204 16.2637 49.4164 16.257 49.3551 16.3628C49.3125 16.4351 49.2912 16.4298 49.2259 16.336ZM47.8485 17.236C47.7553 17.2842 47.662 17.2132 47.7286 17.1463C47.7364 17.1383 47.7458 17.1319 47.7561 17.1275C47.7664 17.1232 47.7774 17.121 47.7886 17.121C47.7997 17.121 47.8108 17.1232 47.8211 17.1275C47.8314 17.1319 47.8407 17.1383 47.8485 17.1463C47.8818 17.1798 47.8818 17.2199 47.8485 17.236ZM47.7286 16.2624C47.7286 16.2088 47.7446 16.1593 47.7739 16.1512C47.8552 16.1325 47.8592 16.1512 47.7952 16.2624C47.7486 16.3427 47.7366 16.3427 47.7286 16.2624ZM49.0607 14.9151C49.0786 14.9297 49.0915 14.9496 49.0975 14.9719C49.1034 14.9943 49.1022 15.018 49.094 15.0397C49.08 15.1061 49.0759 15.1742 49.082 15.2419C49.0913 15.3088 49.082 15.3316 49.0487 15.3035C48.9768 15.2379 48.9874 14.8803 49.058 14.9151H49.0607ZM47.313 12.6705C48.0523 12.783 48.0523 12.7844 48.2455 13.2196C48.3109 13.357 48.3596 13.5018 48.3907 13.6509C48.4053 13.7848 48.3907 13.7848 48.1163 13.5169C47.8419 13.2491 47.7766 13.2169 47.3503 13.0723C47.0825 12.9825 46.8075 12.9158 46.5284 12.8728C46.3286 12.8487 46.2061 12.8112 46.2354 12.7804C46.3513 12.6558 46.8934 12.6076 47.3104 12.6705H47.313ZM46.0675 15.1213C45.8917 14.7477 45.6799 13.6026 45.7452 13.3803L45.8011 13.1835L46.1395 13.1982C46.6154 13.2396 47.0831 13.3482 47.5288 13.521C47.8232 13.6768 48.0641 13.918 48.2202 14.2133C48.4013 14.5923 48.4533 14.9513 48.3467 15.0999C48.3146 15.1524 48.2725 15.1979 48.2228 15.2338C48.1526 15.192 48.0885 15.1407 48.0323 15.0812C47.8592 14.9164 47.6993 14.9071 47.6327 15.0584C47.5861 15.1669 47.706 15.2928 47.8445 15.2807C47.9831 15.2687 48.019 15.3129 47.9564 15.5928C47.9111 15.7977 47.8818 15.8459 47.8152 15.8311C47.7006 15.8057 47.5901 15.6892 47.6367 15.6423C47.6567 15.6209 47.6367 15.562 47.5794 15.5084C47.4995 15.428 47.4662 15.4307 47.3756 15.5231C47.3534 15.5525 47.3233 15.5749 47.2889 15.5877C47.2544 15.6005 47.217 15.6032 47.1811 15.5954C47.1225 15.57 47.0679 15.5954 47.0026 15.6852C46.9134 15.8057 46.9001 15.8057 46.7123 15.6637C46.5961 15.5772 46.4731 15.5001 46.3446 15.4334C46.2788 15.404 46.2199 15.3611 46.1717 15.3073C46.1235 15.2535 46.0871 15.1902 46.0649 15.1213H46.0675ZM45.7238 19.2275C45.5173 19.1688 45.3144 19.0977 45.1164 19.0145C44.8781 18.9182 44.6343 18.8359 44.3864 18.7681C43.8629 18.6342 43.6152 18.5096 43.5872 18.373C43.5619 18.2619 43.795 17.8306 44.3385 16.9815C44.6315 16.5235 44.6568 16.4954 44.9019 16.3668C45.2097 16.2061 46.4378 15.9302 46.6137 15.9838C46.7083 16.0119 46.7575 16.0642 46.8228 16.2021C46.9201 16.411 47.0692 16.47 47.1958 16.3655C47.2384 16.328 47.2877 16.2878 47.305 16.2744C47.357 16.2343 47.4289 16.336 47.4476 16.4767C47.4615 16.5558 47.497 16.6295 47.5501 16.6896C47.6207 16.7606 47.6101 16.8021 47.4902 16.9574C47.4322 17.039 47.3542 17.1041 47.2637 17.1463C47.2363 17.1462 47.2095 17.1547 47.1871 17.1705C47.1646 17.1863 47.1475 17.2087 47.1382 17.2347C47.1289 17.2606 47.1277 17.2888 47.1349 17.3154C47.1421 17.342 47.1574 17.3657 47.1785 17.3833C47.2357 17.4292 47.3044 17.4584 47.377 17.4677C47.4498 17.4788 47.5183 17.5093 47.5754 17.5561C47.6354 17.615 47.6234 17.6431 47.4955 17.7315C47.3849 17.8104 47.3056 17.9262 47.2717 18.0583C47.1215 18.4209 46.9191 18.7593 46.671 19.0627C46.5044 19.2181 46.0262 19.3065 45.7212 19.2275H45.7238ZM47.722 18.365C47.8109 18.3378 47.8904 18.2858 47.9511 18.215C48.095 18.0703 48.0963 18.0623 47.9671 17.9766C47.8379 17.8909 47.8419 17.8735 47.9191 17.7516C47.9423 17.7118 47.9732 17.6772 48.0101 17.6498C48.0469 17.6224 48.089 17.6028 48.1336 17.5922C48.2601 17.5695 48.2668 17.5695 48.2508 17.7074C48.2388 17.8748 48.3094 17.9552 48.4693 17.9552C48.6291 17.9552 48.6424 17.9284 48.6424 17.8132C48.6424 17.7489 48.6971 17.7141 48.8529 17.6793C49.074 17.6271 49.2525 17.4931 49.1873 17.4289C49.122 17.3646 49.2299 17.3137 49.3578 17.3713C49.4297 17.4034 49.5096 17.4088 49.5336 17.3833C49.5576 17.3579 49.5709 17.394 49.5602 17.465C49.5443 17.5762 49.5256 17.5989 49.427 17.5989C49.3556 17.6062 49.2884 17.6363 49.2352 17.6846C49.2154 17.7055 49.1903 17.7206 49.1626 17.7281C49.1349 17.7357 49.1056 17.7355 49.078 17.7275C48.9248 17.6605 48.8423 17.836 48.9288 18.0462C48.959 18.1345 49.0107 18.2137 49.0794 18.2766C49.1606 18.3128 49.2858 18.1989 49.2858 18.0891C49.2858 18.0369 49.3391 17.986 49.4523 17.9311C49.6015 17.8587 49.6255 17.8641 49.6881 17.9806C49.7801 18.1167 49.8855 18.2432 50.0025 18.3583C50.2289 18.5873 50.2556 18.6007 50.3462 18.5324C50.4367 18.4641 50.4554 18.4788 50.5207 18.5846C50.7871 19.0118 50.7458 19.344 50.3595 20.0953C50.0784 20.6403 50.0265 20.714 49.7281 20.9725C49.5496 21.1278 49.3151 21.3193 49.2059 21.397L49.0088 21.5376L48.7344 21.3555C48.5994 21.2641 48.4588 21.1813 48.3134 21.1077C48.205 21.0575 48.1075 20.9862 48.0266 20.8979C47.9456 20.8097 47.8829 20.7062 47.8419 20.5935C47.662 20.0216 47.5714 18.365 47.7246 18.365H47.722ZM42.4789 13.142C42.4737 13.1369 42.4695 13.1309 42.4666 13.1242C42.4638 13.1176 42.4623 13.1104 42.4623 13.1031C42.4623 13.0958 42.4638 13.0887 42.4666 13.082C42.4695 13.0753 42.4737 13.0693 42.4789 13.0643C42.4989 13.0428 42.5242 13.0335 42.5335 13.0428C42.5428 13.0679 42.5428 13.0955 42.5335 13.1205C42.5282 13.1527 42.4975 13.162 42.4816 13.1393L42.4789 13.142ZM43.1076 12.8179C43.069 12.6665 43.0424 12.6344 42.9531 12.625C42.8639 12.6156 42.8599 12.5996 42.9731 12.4911C43.0863 12.3826 43.097 12.3826 43.0743 12.4683C43.067 12.4982 43.0667 12.5293 43.0734 12.5593C43.0801 12.5893 43.0936 12.6173 43.113 12.6411C43.1522 12.6786 43.2029 12.7017 43.2568 12.7067C43.3088 12.7067 43.3194 12.7536 43.2901 12.854C43.2329 13.0469 43.1636 13.0348 43.1103 12.8152L43.1076 12.8179ZM42.0819 14.4544C42.0247 14.4544 41.9727 14.437 41.9647 14.4035C41.9567 14.37 41.982 14.3486 42.034 14.3607C42.1699 14.3874 42.1965 14.441 42.0846 14.4517L42.0819 14.4544ZM42.339 14.3794C42.2325 14.4049 42.2924 14.2455 42.4176 14.1638C42.4478 14.1455 42.4739 14.121 42.4941 14.0919C42.5143 14.0629 42.5282 14.0299 42.5348 13.995C42.5415 13.916 42.5548 13.9026 42.5895 13.9375C42.6534 14.0017 42.9092 13.6415 42.8945 13.5116C42.8798 13.3817 43.0157 13.3227 43.1369 13.3857C43.2582 13.4486 43.6391 13.162 43.6152 13.008C43.5978 12.9036 43.6152 12.8955 43.7577 12.9009C43.9402 12.9009 43.9748 12.8835 43.9748 12.7563C43.9748 12.629 43.8203 12.4884 43.7084 12.5205C43.6258 12.5447 43.6178 12.5366 43.6258 12.4375C43.6326 12.3788 43.6163 12.3197 43.5805 12.2728C43.4926 12.1844 43.6258 12.1536 43.831 12.2152C44.0747 12.2889 44.14 12.4094 44.0974 12.704C44.0774 12.8379 44.0548 13.1058 44.0468 13.2919C44.0135 14.05 43.7803 14.3352 42.9931 14.587C42.5934 14.7129 42.5335 14.7209 42.5482 14.6285C42.5695 14.5026 42.4429 14.3526 42.3417 14.3767L42.339 14.3794ZM39.0088 14.6473C39.1127 14.9727 39.2752 15.6463 39.3778 16.1445C39.5603 17.0565 39.8627 19.2542 39.8054 19.2556C39.7481 19.2569 39.3458 18.211 39.1487 17.6204C38.8313 16.5731 38.6732 15.4836 38.6798 14.3888C38.6825 13.7084 38.7198 13.7366 39.0062 14.6392L39.0088 14.6473ZM39.5243 20.2828C38.9113 19.3544 38.4742 18.3201 38.2349 17.232C38.1017 16.5851 38.1017 15.0477 38.2229 14.3848L38.3215 13.8745L38.3388 14.6901C38.3494 15.1388 38.4014 15.8057 38.4547 16.17C38.508 16.5342 38.5879 17.0016 38.6425 17.2079C38.8381 17.8787 39.0762 18.5362 39.3552 19.1766C39.515 19.5301 39.896 20.7314 39.8494 20.7314C39.7278 20.5885 39.6182 20.4357 39.5217 20.2747L39.5243 20.2828ZM39.162 28.2191L41.2214 27.7838C41.621 27.6981 42.5988 27.5696 43.3834 27.4986C45.0898 27.3419 45.8944 27.22 46.9547 26.9535C47.409 26.8408 47.8687 26.7514 48.3321 26.6857C49.2292 26.5882 50.11 26.3739 50.9523 26.0482C51.5211 25.846 51.986 25.7 51.986 25.7228C51.8167 25.8588 51.6337 25.9764 51.4398 26.0736C50.1077 26.8236 49.0207 27.2535 46.9707 27.8361C45.7742 28.2018 44.5395 28.4266 43.2915 28.5057C41.8262 28.6235 40.8937 28.649 39.4138 28.6396L39.4444 29.0025C42.1352 28.9731 44.5556 28.8137 45.9023 28.4923C48.0204 27.9861 49.8613 27.3339 51.2094 26.6174C52.0592 26.162 53.1129 25.5125 53.3607 25.2915L53.6004 25.0759L53.4672 24.9246C53.35 24.7906 53.31 24.7759 52.9224 24.8134C52.6933 24.8348 52.0792 24.9313 51.5584 25.0277C49.2152 25.4629 47.7659 25.6705 45.2683 25.933C43.2701 26.1406 41.5611 26.4151 40.3915 26.7151C39.186 27.0232 40.3009 26.7151 39.8494 26.8999L39.162 28.2191ZM39.6948 27.4517C40.2184 27.1263 38.869 27.508 40.0945 27.1732C41.5358 26.7781 42.744 26.5799 45.5347 26.2759C47.5568 26.0549 49.1793 25.8326 50.4634 25.6062C51.0895 25.4924 51.609 25.4054 51.6156 25.4134C51.46 25.4852 51.2998 25.5465 51.1361 25.5969C49.5616 26.1419 49.2046 26.2303 48.1136 26.3509C47.6777 26.415 47.2455 26.5021 46.8188 26.612C45.8571 26.8571 44.8913 27.0057 43.402 27.1383C41.966 27.2656 41.4226 27.3459 40.3915 27.5856C38.849 27.9231 39.5536 27.5307 39.7002 27.4437L39.6948 27.4517ZM40.8657 24.7893L41.1228 24.4773C41.4385 24.0916 42.1352 23.205 42.4416 22.7979C42.8932 22.1979 43.7404 21.4278 44.132 21.2618C44.2559 21.2082 44.2519 21.2323 44.0734 21.5818C43.9682 21.7894 43.7484 22.1845 43.5845 22.459C43.3709 22.8366 43.1014 23.1794 42.7853 23.4755C42.2431 24.0233 41.5864 24.5014 41.1069 24.6942L40.8657 24.7893Z" fill="#F1F6EF"/>
<path d="M33.8549 27.0459C33.7572 27.0457 33.6627 27.0106 33.5884 26.9468C33.3473 26.7432 33.1529 26.687 32.5747 26.8665C32.4827 26.9034 32.3835 26.9187 32.2847 26.9113C32.1859 26.9039 32.0901 26.8739 32.0046 26.8236C31.7382 26.6455 31.7102 26.2678 31.6809 25.9357C31.6729 25.846 31.6649 25.7495 31.6516 25.6678C31.244 25.4 31.2426 24.9688 31.24 24.6219C31.24 24.354 31.24 24.1049 31.0815 23.9201C31.0175 23.8438 30.8151 23.6094 30.907 23.3724C30.931 23.3136 30.9689 23.2615 31.0174 23.2207C31.0659 23.1798 31.1236 23.1515 31.1854 23.138C31.5943 22.9612 31.6356 22.8702 31.6996 22.747C31.7503 22.637 31.8167 22.535 31.8967 22.4443C32.5814 21.6742 32.7692 21.614 33.0956 21.6407C33.1845 21.6515 33.2746 21.6469 33.362 21.6274C33.5418 21.5858 33.7936 21.3073 33.9947 21.0836C34.2611 20.7836 34.4796 20.5479 34.7154 20.5868C34.7742 20.5985 34.8289 20.6256 34.874 20.6654C34.9191 20.7051 34.9531 20.756 34.9725 20.8131C35.0311 20.947 35.0684 20.9751 35.6931 20.7582L35.881 20.6926C36.0057 20.6514 36.1231 20.5903 36.2286 20.5118C36.559 20.2774 36.7082 20.406 37.265 20.8881C37.558 21.1425 37.7392 21.3541 37.6646 21.5577C37.6482 21.611 37.6156 21.6579 37.5714 21.6916C38.0762 23.1969 37.6433 23.9188 37.1851 24.6808C37.0051 24.9665 36.847 25.2656 36.7122 25.5754C36.6176 25.8031 36.4964 25.8701 36.2926 25.8071C36.1873 25.7736 35.9422 25.6973 35.1576 26.2678C35.0857 26.3201 35.0044 26.3843 34.9165 26.4526C34.5635 26.7392 34.1732 27.0459 33.8549 27.0459ZM33.1209 26.3763C33.384 26.3761 33.6375 26.4755 33.8309 26.6549C33.9001 26.7151 34.1865 26.5477 34.6781 26.1593C34.77 26.087 34.8553 26.0254 34.9312 25.9652C35.7104 25.3987 36.0848 25.3638 36.3578 25.4295C36.4992 25.1046 36.6654 24.7912 36.8547 24.492C37.3023 23.7447 37.6539 23.1527 37.1957 21.7974H37.1691C37.1318 21.7974 37.0798 21.7974 37.0492 21.8055C36.9602 21.8888 36.8552 21.9531 36.7407 21.9943C36.6262 22.0355 36.5045 22.0528 36.3831 22.0452C36.4444 22.4014 36.3432 22.7925 36.2273 23.2398C36.1114 23.6871 35.9862 24.1639 36.0142 24.6607C36.0177 24.7194 36.0075 24.7781 35.9844 24.832C35.9612 24.886 35.9258 24.9338 35.881 24.9714C35.4001 25.3812 33.3966 24.9714 32.7665 24.8375C32.4162 24.8214 32.0739 24.9996 31.9673 25.179C31.9127 25.2674 31.938 25.3129 31.9487 25.3317C32.025 25.5146 32.0653 25.7106 32.0672 25.9089C32.0859 26.1299 32.1125 26.4339 32.2217 26.5075C32.2991 26.5389 32.3855 26.5389 32.4628 26.5075C32.6744 26.4302 32.8961 26.3842 33.1209 26.3709V26.3763ZM31.2706 23.517C31.2941 23.5735 31.3275 23.6252 31.3692 23.6697C31.617 23.963 31.6183 24.3125 31.6196 24.6219C31.6182 24.7351 31.6235 24.8482 31.6356 24.9607C31.8421 24.6366 32.3429 24.413 32.8025 24.4438H32.8318C34.1799 24.7478 35.488 24.8455 35.6292 24.6661C35.5946 24.1183 35.7304 23.5947 35.8503 23.1367C35.9702 22.6787 36.0648 22.3117 35.9835 22.0331C35.967 21.9891 35.9614 21.9417 35.9672 21.8951C35.973 21.8484 35.99 21.8039 36.0168 21.7653C36.0596 21.7197 36.1127 21.6853 36.1717 21.665C36.2306 21.6447 36.2936 21.6391 36.3552 21.6488C36.4334 21.6578 36.5125 21.6497 36.5873 21.625C36.662 21.6002 36.7306 21.5595 36.7881 21.5055C36.8376 21.4649 36.8947 21.4346 36.956 21.4164C37.0173 21.3983 37.0816 21.3926 37.1451 21.3997H37.229C37.1602 21.3224 37.0859 21.2504 37.0066 21.1841C36.8511 21.0377 36.6831 20.9055 36.5044 20.789L36.4458 20.8305C36.3095 20.9308 36.1585 21.0089 35.9982 21.0622L35.813 21.1265C35.2709 21.3153 34.8406 21.464 34.6221 20.9925C34.4971 21.0994 34.3808 21.2163 34.2745 21.3421C34.0081 21.634 33.7416 21.9354 33.4419 22.0037C33.3112 22.0354 33.1758 22.0431 33.0423 22.0264C32.8891 22.0117 32.7892 22.0023 32.1698 22.6961C32.1142 22.7608 32.0692 22.834 32.0366 22.913C31.93 23.1273 31.8288 23.2733 31.3106 23.4969L31.2706 23.517Z" fill="#F1F6EF"/>
<path d="M33.6618 24.1451C33.5799 24.1541 33.4972 24.1392 33.4235 24.1022C33.3498 24.0651 33.2882 24.0075 33.2462 23.9362C33.0331 23.5344 33.6459 22.8648 33.9496 22.6639C34.6556 22.2126 35.1484 22.0988 35.6506 22.2621C35.9503 22.3639 36.1249 22.6746 36.1169 23.0938C36.1169 23.3268 36.0369 23.742 35.7812 23.8184C35.7486 23.8284 35.7143 23.8309 35.6806 23.8258C35.647 23.8207 35.6149 23.8081 35.5867 23.7889C35.4801 23.7152 35.4681 23.5907 35.4535 23.4474C35.4255 23.134 35.3816 23.0764 35.2697 23.0724C35.0992 23.063 35.0032 23.2478 34.8794 23.5063C34.8008 23.6764 34.7315 23.825 34.5956 23.8826C34.3027 24.0261 33.9863 24.115 33.6618 24.1451Z" fill="#F1F6EF"/>
<path d="M33.4847 24.9072C33.2596 24.6929 33.2529 24.5054 33.2862 24.3835C33.3928 24.0045 34.0015 23.8478 34.6183 23.7219C34.8367 23.6697 35.592 23.5144 35.8731 23.7527C35.9153 23.7883 35.9485 23.8334 35.9698 23.8844C35.9911 23.9355 36 23.9909 35.9956 24.046C35.9956 24.046 35.7066 24.0179 35.6093 24.0193C35.3049 24.0132 35.0007 24.0406 34.7022 24.1009C33.8403 24.2791 33.6805 24.421 33.6605 24.4893C33.6605 24.5041 33.6778 24.5536 33.7524 24.6232L33.4847 24.9072Z" fill="#F1F6EF"/>
<path d="M32.3855 24.721C32.3602 24.6594 31.7701 23.2104 32.5294 22.5434C32.9104 22.21 33.1488 22.1805 33.3606 22.1792C33.4565 22.1792 33.4565 22.1792 33.5098 22.0814C33.7829 21.5819 33.8695 21.5752 34.9205 21.5015L35.0683 21.4908C35.5758 21.4546 35.9475 21.5551 36.1779 21.7894C36.2525 21.8645 36.3106 21.9544 36.3487 22.0533C36.3868 22.1522 36.4039 22.258 36.3991 22.364L36.0141 22.3332C36.0138 22.2818 36.0035 22.2309 35.9836 22.1836C35.9637 22.1362 35.9347 22.0933 35.8982 22.0573C35.7517 21.9126 35.4746 21.851 35.099 21.8778L34.9524 21.8885C34.02 21.9542 34.02 21.9542 33.8575 22.2582C33.695 22.5622 33.5431 22.5662 33.3659 22.5675C33.2434 22.5675 33.0915 22.5675 32.7878 22.8354C32.3309 23.2372 32.6027 24.2242 32.7465 24.5764L32.3855 24.721Z" fill="#F1F6EF"/>
<path d="M34.7795 27.7062C34.7426 27.7061 34.7064 27.6964 34.6743 27.6781C34.6317 27.649 34.5982 27.6084 34.5774 27.5611C34.5567 27.5137 34.5496 27.4614 34.557 27.4102C34.557 27.2669 34.5477 27.05 34.196 26.8424L34.3919 26.5076C34.7835 26.7379 34.8941 27.0151 34.9247 27.216C35.4843 26.9058 36.1217 26.7662 36.759 26.8143C37.0893 26.829 37.1373 26.8143 37.1919 26.7044C37.9911 25.0558 38.2376 24.9192 38.5626 25.0103C38.5786 24.9959 38.5929 24.9797 38.6052 24.9621C38.7291 24.8014 38.9383 23.876 38.817 23.1809C38.7691 22.9131 38.6838 22.7336 38.5599 22.6559C38.127 22.38 37.8073 22.5997 37.7927 22.609L37.5689 22.2983C37.5902 22.2823 38.1017 21.91 38.7678 22.3318C38.9862 22.4657 39.1314 22.7336 39.198 23.1166C39.3312 23.8358 39.1434 24.9018 38.9116 25.2045C38.7398 25.4295 38.5919 25.4255 38.4587 25.388H38.4334C38.3948 25.404 38.187 25.5594 37.5396 26.8866C37.3664 27.2401 37.0627 27.2268 36.7403 27.2134C36.3407 27.1973 35.7826 27.1732 34.9194 27.6687C34.8766 27.6928 34.8285 27.7057 34.7795 27.7062Z" fill="#F1F6EF"/>
<path d="M35.7505 27.0339C35.7639 27.0205 35.8398 28.1936 35.6013 29.7954C35.584 29.9132 35.1231 29.4579 35.0525 29.4378C34.9819 29.4177 35.4988 30.5654 35.5014 30.5989C35.5974 31.8873 34.7382 33.0912 34.3306 33.5292L35.5161 33.1542C35.676 32.6721 36.0183 31.156 36.1022 29.4043C36.1022 29.3628 36.6803 28.7012 36.671 28.5726C36.671 28.5325 36.0995 28.87 36.1035 28.7293C36.1422 27.6928 36.1035 27.3901 36.0596 27.0566L35.7505 27.0339Z" fill="#F1F6EF"/>
</svg>
