<svg width="236" height="545" viewBox="0 0 236 545" fill="none" xmlns="http://www.w3.org/2000/svg">
<path d="M158.572 122.782C159.354 123.951 151.794 122.282 142.919 116.843C136.019 112.615 128.685 106.32 126.642 102.7C126.586 102.598 126.552 102.484 126.543 102.368C126.533 102.251 126.549 102.134 126.588 102.024C126.628 101.914 126.69 101.814 126.771 101.73C126.853 101.646 126.951 101.58 127.059 101.537C127.273 101.459 127.48 101.362 127.677 101.249C129.691 100.052 129.57 96.7281 131.64 95.6504C133.258 94.8121 135.201 95.8709 136.632 97.0008C138.063 98.1308 139.686 99.4487 141.484 99.1329C142.792 98.9037 143.862 97.8314 145.182 97.7693C147.882 97.642 148.933 101.385 151.345 102.63C152.217 103.065 153.251 103.156 154.02 103.748C155.201 104.663 155.302 106.423 154.988 107.889C154.673 109.355 154.053 110.812 154.174 112.275C154.19 112.706 157.664 121.424 158.572 122.782Z" fill="#E2ECDF"/>
<path d="M161.266 117.56C161.363 117.061 161.606 116.601 161.965 116.24C162.323 115.879 162.781 115.631 163.279 115.53C163.778 115.428 164.296 115.477 164.767 115.67C165.238 115.862 165.641 116.19 165.926 116.612C166.211 117.033 166.364 117.531 166.367 118.04C166.369 118.548 166.221 119.047 165.941 119.471C165.66 119.896 165.26 120.228 164.791 120.425C164.322 120.623 163.805 120.676 163.305 120.58C162.972 120.517 162.656 120.388 162.373 120.202C162.09 120.015 161.847 119.775 161.657 119.494C161.468 119.214 161.336 118.898 161.268 118.566C161.201 118.234 161.2 117.893 161.266 117.56Z" fill="#E2ECDF"/>
<path d="M164.054 108.85C162.502 108.62 161.43 107.176 161.66 105.624C161.889 104.072 163.333 103 164.885 103.23C166.437 103.459 167.509 104.903 167.28 106.455C167.05 108.007 165.606 109.079 164.054 108.85Z" fill="#E2ECDF"/>
<path d="M157.838 101.735C157.925 101.292 158.141 100.884 158.459 100.564C158.777 100.243 159.183 100.025 159.625 99.9348C160.067 99.845 160.527 99.8884 160.944 100.059C161.362 100.23 161.72 100.521 161.972 100.895C162.225 101.27 162.361 101.71 162.363 102.161C162.365 102.613 162.233 103.055 161.984 103.432C161.736 103.808 161.38 104.103 160.964 104.278C160.548 104.452 160.089 104.5 159.646 104.415C159.052 104.298 158.527 103.95 158.189 103.448C157.85 102.946 157.724 102.33 157.838 101.735Z" fill="#E2ECDF"/>
<path d="M152.208 95.4652C152.327 94.8471 152.626 94.2782 153.069 93.8304C153.511 93.3827 154.076 93.0764 154.693 92.9501C155.31 92.8239 155.95 92.8832 156.533 93.1211C157.115 93.3589 157.614 93.7644 157.966 94.2861C158.319 94.8078 158.508 95.4221 158.511 96.0515C158.513 96.6809 158.329 97.2973 157.981 97.822C157.634 98.3466 157.138 98.7558 156.558 98.9986C155.977 99.2414 155.337 99.3064 154.719 99.1854C153.894 99.0236 153.166 98.5413 152.695 97.844C152.225 97.1467 152.049 96.2914 152.208 95.4652Z" fill="#E2ECDF"/>
<path d="M146.866 94.2287C146.101 93.0947 146.4 91.5548 147.534 90.7896C148.668 90.0244 150.208 90.3236 150.973 91.4577C151.738 92.5918 151.439 94.1314 150.305 94.8966C149.171 95.6618 147.632 95.3628 146.866 94.2287Z" fill="#E2ECDF"/>
<path d="M140.199 93.4938C140.294 93.0135 140.529 92.5719 140.874 92.2249C141.219 91.8778 141.659 91.6409 142.139 91.5438C142.619 91.4467 143.116 91.4944 143.569 91.6799C144.022 91.8655 144.41 92.1809 144.684 92.5867C144.957 92.9925 145.105 93.4705 145.107 93.96C145.11 94.4494 144.967 94.9282 144.697 95.3367C144.428 95.7452 144.043 96.0648 143.592 96.2549C143.141 96.4449 142.644 96.4971 142.163 96.4048C141.517 96.279 140.947 95.902 140.579 95.3561C140.21 94.8103 140.074 94.1402 140.199 93.4938Z" fill="#E2ECDF"/>
<path d="M128.803 87.9637C128.935 87.2909 129.265 86.672 129.749 86.1861C130.233 85.7002 130.85 85.3688 131.522 85.2334C132.195 85.098 132.892 85.1651 133.526 85.4257C134.161 85.6863 134.704 86.129 135.087 86.6979C135.47 87.2669 135.675 87.9363 135.678 88.6221C135.681 89.308 135.48 89.9794 135.102 90.5513C134.723 91.1231 134.184 91.5698 133.551 91.8353C132.919 92.1008 132.222 92.1735 131.549 92.0432C131.1 91.9558 130.674 91.7806 130.293 91.5282C129.913 91.2758 129.585 90.9509 129.33 90.5721C129.076 90.1933 128.898 89.768 128.807 89.3204C128.716 88.8728 128.715 88.4119 128.803 87.9637Z" fill="#E2ECDF"/>
<path d="M123.495 91.7279C123.585 91.2662 123.811 90.8414 124.143 90.5077C124.474 90.174 124.898 89.9461 125.359 89.8528C125.82 89.7595 126.298 89.8052 126.734 89.9838C127.169 90.1623 127.542 90.4658 127.805 90.856C128.068 91.2463 128.209 91.7059 128.211 92.1765C128.213 92.6471 128.075 93.1074 127.816 93.4998C127.556 93.8922 127.186 94.199 126.752 94.3811C126.318 94.5631 125.84 94.6125 125.378 94.5229C124.758 94.4011 124.212 94.0383 123.859 93.5144C123.506 92.9906 123.375 92.3481 123.495 91.7279Z" fill="#E2ECDF"/>
<path d="M158.904 110.721C158.986 110.297 159.192 109.908 159.496 109.602C159.8 109.295 160.188 109.086 160.61 109C161.033 108.915 161.472 108.956 161.871 109.12C162.27 109.283 162.611 109.562 162.852 109.92C163.093 110.277 163.223 110.698 163.224 111.13C163.226 111.561 163.1 111.983 162.861 112.342C162.623 112.702 162.283 112.982 161.885 113.149C161.487 113.315 161.049 113.36 160.626 113.277C160.345 113.223 160.077 113.114 159.838 112.956C159.599 112.798 159.394 112.594 159.234 112.357C159.073 112.119 158.962 111.852 158.905 111.572C158.849 111.291 158.848 111.002 158.904 110.721Z" fill="#E2ECDF"/>
<path d="M136.313 89.1357C136.409 88.6461 136.648 88.1956 136.999 87.8415C137.35 87.4874 137.798 87.2456 138.287 87.1459C138.776 87.0462 139.283 87.0931 139.745 87.2814C140.207 87.4696 140.603 87.7906 140.883 88.2035C141.163 88.6165 141.314 89.103 141.318 89.6017C141.321 90.1005 141.177 90.5896 140.903 91.0066C140.63 91.4236 140.239 91.7503 139.779 91.9453C139.32 92.1404 138.814 92.195 138.324 92.1026C137.996 92.0408 137.684 91.9147 137.406 91.7319C137.127 91.5491 136.888 91.3133 136.701 91.0375C136.514 90.7618 136.384 90.4515 136.317 90.1252C136.25 89.7988 136.249 89.4626 136.313 89.1357Z" fill="#E2ECDF"/>
<path d="M144.896 110.215C148.645 110.487 155.507 109.463 160.594 108.146" stroke="#E2ECDF" stroke-width="2" stroke-linecap="round" stroke-linejoin="round"/>
<path d="M149.842 110.921C152.42 112.368 159.924 114.249 163.605 113.415" stroke="#E2ECDF" stroke-width="2" stroke-linecap="round" stroke-linejoin="round"/>
<path d="M144.956 105.626C150.922 106.685 161.007 104.937 164.484 101.919" stroke="#E2ECDF" stroke-width="2" stroke-linecap="round" stroke-linejoin="round"/>
<path d="M148.792 103.578C152.991 103.709 156.816 101.44 160.034 98.8056" stroke="#E2ECDF" stroke-width="2" stroke-linecap="round" stroke-linejoin="round"/>
<path d="M148.319 101.39C151.516 99.7581 153.985 96.9857 155.235 93.6208" stroke="#E2ECDF" stroke-width="2" stroke-linecap="round" stroke-linejoin="round"/>
<path d="M143.784 100.052C145.743 96.4109 148.737 90.4437 147.802 88.8177" stroke="#E2ECDF" stroke-width="2" stroke-linecap="round" stroke-linejoin="round"/>
<path d="M138.954 98.389C139.705 95.0958 141.618 91.35 142.596 90.5334" stroke="#E2ECDF" stroke-width="2" stroke-linecap="round" stroke-linejoin="round"/>
<path d="M137.873 100.072C133.757 96.5183 132.071 90.5322 132.171 85.0919" stroke="#E2ECDF" stroke-width="2" stroke-linecap="round" stroke-linejoin="round"/>
<path d="M132.684 97.8966C130.846 96.7437 129.288 95.1947 128.124 93.3629C126.961 91.531 126.221 89.4625 125.96 87.3083" stroke="#E2ECDF" stroke-width="2" stroke-linecap="round" stroke-linejoin="round"/>
<path d="M138.047 86.8851C137.088 90.402 136.781 94.0647 137.141 97.6922" stroke="#E2ECDF" stroke-width="2" stroke-linecap="round" stroke-linejoin="round"/>
<path d="M142.413 89.2025C142.413 89.2025 163.497 52.6091 175.521 49.7582C183.852 47.7818 183.981 52.0437 200.198 54.7904C210.554 56.5482 211.618 73.8671 213.449 81.1114C215.962 91.2791 194.713 106.211 152.558 112.266" stroke="#E2ECDF" stroke-width="2" stroke-linecap="round" stroke-linejoin="round"/>
<path d="M186.766 104.056C186.766 104.056 211.407 95.9192 219.231 100.394C227.055 104.87 227.276 123.705 228.862 131.697C230.448 139.689 224.48 144.396 218.941 150.306C213.402 156.216 192.498 165.462 178.73 163.175C154.593 159.165 134.876 140.546 134.876 140.546" stroke="#E2ECDF" stroke-width="2" stroke-linecap="round" stroke-linejoin="round"/>
<path d="M217.612 151.549C217.612 151.549 205.524 159.478 191.824 153.913C179.066 148.727 173.81 147.007 159.978 147.092C144.763 147.181 138.053 140.594 138.053 140.594" stroke="#E2ECDF" stroke-width="2" stroke-linecap="round" stroke-linejoin="round"/>
<path d="M142.413 89.2025C142.413 89.2025 164.673 56.3337 161.315 41.9819C158.499 29.9325 155.438 18.129 151.054 12.9561C146.67 7.78332 126.055 1.07407 115.933 7.04698C105.811 13.0199 106.311 34.8532 107.133 45.8606C108.262 61.1626 113.886 85.1563 113.886 85.1563" stroke="#E2ECDF" stroke-width="2" stroke-linecap="round" stroke-linejoin="round"/>
<path d="M107.027 43.6774C107.027 43.6774 104.656 34.4925 99.2511 29.2668C93.8461 24.041 91.3793 14.1006 85.9124 15.3801C80.4456 16.6595 75.7753 37.3551 76.4379 45.1307C77.1005 52.9064 83.4788 63.5168 87.348 75.734C91.2172 87.9512 92.2119 106.98 105.902 115.886" stroke="#E2ECDF" stroke-width="2" stroke-linecap="round" stroke-linejoin="round"/>
<path d="M130.199 101.87C130.199 101.87 122.565 93.8718 118.686 89.0063C114.808 84.1409 105.983 80.84 101.657 87.3638C99.5058 90.609 104.523 101.11 105.668 114.07C107.008 129.066 126.305 144.06 145.652 139.635C165.3 135.113 176.93 127.845 173.566 125.174C168.515 121.158 156.351 120.694 149.202 113.141" stroke="#E2ECDF" stroke-width="2" stroke-linecap="round" stroke-linejoin="round"/>
<path d="M76.4139 45.1271C76.4139 45.1271 77.3 68.1198 80.5957 81.4829C83.8914 94.8459 87.3005 111.17 107.994 121.981" stroke="#E2ECDF" stroke-width="2" stroke-linecap="round" stroke-linejoin="round"/>
<path d="M113.914 130.02C113.914 130.02 71.592 193.56 54.0101 241.165C10.2921 359.448 30.0788 500.877 17.5 538" stroke="#E2ECDF" stroke-width="2" stroke-linecap="round" stroke-linejoin="round"/>
<path d="M66.0217 213.345C66.0217 213.345 75.774 190.909 60.2685 138.258" stroke="#E2ECDF" stroke-width="2" stroke-linecap="round" stroke-linejoin="round"/>
<path d="M68.9183 196.195C68.9183 196.195 79.8212 168.792 75.4244 152.193C71.0276 135.593 58.8591 98.0569 60.9996 76.375C60.9996 76.375 44.4997 116.083 52.4962 153.058C60.4927 190.033 68.9183 196.195 68.9183 196.195Z" stroke="#E2ECDF" stroke-width="2" stroke-linecap="round" stroke-linejoin="round"/>
<path d="M63.4088 218.842C63.4088 218.842 69.6801 204.959 90.601 194.938" stroke="#E2ECDF" stroke-width="2" stroke-linecap="round" stroke-linejoin="round"/>
<path d="M90.601 194.938C90.601 194.938 105.713 182.545 122.2 180.728C138.688 178.91 154.979 171.756 154.979 171.756C154.979 171.756 140.599 201.718 90.601 194.938Z" stroke="#E2ECDF" stroke-width="2" stroke-linecap="round" stroke-linejoin="round"/>
<path d="M44.7989 269.467C44.7989 269.467 49.0244 234.055 42.8836 222.873C36.7429 211.691 28.9188 190.281 28.9188 190.281C28.9188 190.281 23.6021 221.436 29.5546 231.531C35.507 241.625 44.3688 257.593 44.7989 269.467Z" stroke="#E2ECDF" stroke-width="2" stroke-linecap="round" stroke-linejoin="round"/>
<path d="M35.5669 308.591C35.5669 308.591 56.4975 280.16 109.646 264.269" stroke="#E2ECDF" stroke-width="2" stroke-linecap="round" stroke-linejoin="round"/>
<path d="M52.5141 292.526C52.5141 292.526 76.2636 260.766 97.0104 257.098C117.757 253.431 156.229 247.524 156.229 247.524C156.229 247.524 121.561 275.613 101.478 280.799C81.3942 285.984 52.5141 292.526 52.5141 292.526Z" stroke="#E2ECDF" stroke-width="2" stroke-linecap="round" stroke-linejoin="round"/>
<path d="M24.0904 422.402C24.0904 422.402 37.7632 377.341 84.4344 354.118C131.106 330.896 144.429 329.316 159.822 318.838" stroke="#E2ECDF" stroke-width="2" stroke-linecap="round" stroke-linejoin="round"/>
<path d="M116.175 339.207C116.175 339.207 129.574 319.68 139.36 315.813C149.147 311.945 177.92 309.109 191.995 295.241C191.995 295.241 180.472 330.028 142.669 338.986C119.749 344.432 116.175 339.207 116.175 339.207Z" stroke="#E2ECDF" stroke-width="2" stroke-linecap="round" stroke-linejoin="round"/>
<path d="M56.153 373.797C56.153 373.797 64.6081 352.473 70.9191 336.042C77.2302 319.612 93.1318 308.836 93.1318 308.836C93.1318 308.836 87.8239 335.75 56.153 373.797Z" stroke="#E2ECDF" stroke-width="2" stroke-linecap="round" stroke-linejoin="round"/>
<path d="M22.7435 486.006C22.7435 486.006 26.854 458.205 57.6553 427.365" stroke="#E2ECDF" stroke-width="2" stroke-linecap="round" stroke-linejoin="round"/>
<path d="M105.356 394.774C105.356 394.774 86.9675 404.111 75.3878 408.099C63.8082 412.087 57.6508 427.395 57.6508 427.395C57.6508 427.395 81.2815 430.558 105.356 394.774Z" stroke="#E2ECDF" stroke-width="2" stroke-linecap="round" stroke-linejoin="round"/>
<path d="M35.1241 455.938C35.1241 455.938 33.7413 418.209 43.0147 402.571C43.0147 402.571 46.3194 421.091 43.3537 429.885C40.3881 438.68 35.1241 455.938 35.1241 455.938Z" stroke="#E2ECDF" stroke-width="2" stroke-linecap="round" stroke-linejoin="round"/>
</svg>
