<svg width="134" height="48" viewBox="0 0 134 48" fill="none" xmlns="http://www.w3.org/2000/svg">
<g clip-path="url(#clip0)">
<path d="M48.8878 18.8898C47.8252 20.4054 45.6005 22.8001 43.6745 21.2137C39.6556 27.1828 33.8451 35.6425 32.051 35.4076C31.4538 35.3394 30.9212 34.6649 30.7545 34.0915C29.993 31.4291 32.4491 25.3943 34.1761 21.4183C31.7847 25.0912 29.6272 28.6656 27.955 28.7666C27.3254 28.7995 26.8277 27.9583 26.661 27.4177C26.1957 25.7985 27.2259 22.4288 27.955 20.6428C28.057 20.3726 28.1566 20.1023 28.2561 19.8673C26.8974 22.161 24.2447 23.083 21.3258 22.4414C20.0816 22.1686 15.8064 20.8045 14.3408 20.4837C11.6931 19.9103 0.888243 16.3435 0.422904 20.1856C0.358205 20.5923 -0.0399443 20.5241 -0.00759457 20.12C0.522443 15.9393 11.7553 19.4354 14.6219 20.1023C15.8512 20.3877 20.2856 21.772 21.4801 22.0751C24.6354 22.8153 28.057 20.7439 28.8185 18.286C29.3162 16.7376 31.3443 17.0407 30.8466 18.8266C30.6331 19.4507 30.3779 20.0592 30.0826 20.6479C29.0524 23.2093 27.9898 26.2052 27.8903 27.491C27.6564 30.6915 32.3073 23.7827 35.1068 19.3647C35.1659 19.2157 35.2323 19.0699 35.3059 18.9277C35.8707 17.5787 37.8615 18.185 37.1647 19.7714C36.7342 20.8146 30.2245 35.885 32.5835 34.9074C34.1761 34.233 39.6233 26.4123 43.3759 20.951C41.9475 19.2308 43.1096 15.1184 45.9663 15.2194C46.6631 15.2523 47.1284 15.659 46.9294 16.3991C46.795 16.8386 44.1398 20.5115 43.9059 20.85C45.4338 22.2646 47.7257 19.9734 48.5892 18.7584C48.6887 18.7205 48.8878 18.7534 48.8878 18.8898ZM46.5312 16.293C46.5607 16.2037 46.5651 16.1078 46.5438 16.0162C46.5225 15.9245 46.4764 15.8407 46.4106 15.7743C46.3449 15.7078 46.2622 15.6613 46.1718 15.64C46.0814 15.6188 45.987 15.6236 45.8992 15.6539C44.0726 15.9217 42.9777 19.2257 43.6421 20.5418C44.105 19.8673 46.3968 16.7982 46.5312 16.293V16.293Z" fill="#323232"/>
<path d="M57.1893 18.8898C55.6291 21.6204 49.8833 29.7089 46.1655 30.0044C45.5335 30.0372 45.0358 29.8352 44.6028 29.1279C42.1467 25.1822 48.7884 16.245 53.0063 16.2829C55.5619 16.2829 48.3902 21.6103 48.3902 21.6103C47.1609 23.1588 44.8044 27.4758 45.6007 29.4638C45.6654 29.6331 45.8993 29.6659 46.1979 29.6659C49.6195 29.3956 55.4972 21.138 56.8982 18.7433C56.9579 18.6877 57.1893 18.7534 57.1893 18.8898ZM48.8879 20.8096C48.8879 20.8096 54.2007 16.7679 52.74 16.6972C51.777 16.6643 49.9505 19.5971 48.8879 20.8096Z" fill="#323232"/>
<path d="M76.9152 18.8898C74.7577 21.9564 64.794 36.8248 61.574 36.0821C59.6479 35.6426 59.7474 32.3739 59.9789 30.79C60.2451 29.0016 61.0414 26.3391 62.1712 23.3735C60.7777 25.5308 58.9163 27.7209 56.8907 27.8548C54.7656 28.024 53.1058 26.3391 53.1382 24.1137C53.2053 20.0013 58.2195 17.5459 61.5391 16.7881C62.2718 16.6238 63.0168 16.5224 63.7663 16.485C63.8982 16.5532 63.8982 16.8892 63.7663 16.9902C63.0518 17.0404 62.3416 17.1417 61.6411 17.2933C56.6916 18.3391 53.504 27.2384 56.8584 27.3394C59.7474 27.1374 62.4374 22.0145 63.5995 19.8219C63.7986 19.4178 63.8658 19.2485 63.8982 19.1828C67.3521 11.4961 72.334 3.70825 75.987 4.51911C76.6166 4.65299 76.8156 5.05716 76.6838 5.69878C76.2508 7.85602 70.7115 14.1939 67.9742 16.7553L67.3447 17.3944C66.1477 18.91 59.7051 35.0591 61.8328 35.6325C64.3884 36.3751 74.7179 21.3729 76.6091 18.7433C76.7211 18.6877 76.9152 18.7888 76.9152 18.8898ZM67.7627 16.3941C70.4527 13.868 75.8651 7.62868 76.298 5.60784C76.3236 5.53706 76.3333 5.46136 76.3263 5.38629C76.3194 5.31123 76.2959 5.23869 76.2578 5.17402C76.2196 5.10934 76.1676 5.05416 76.1057 5.01252C76.0438 4.97088 75.9735 4.94384 75.8999 4.93338C72.6002 4.22356 68.7805 13.9665 67.7627 16.3941Z" fill="#323232"/>
<path d="M96.6087 18.8898C94.4487 21.9564 84.4875 36.8248 81.265 36.0821C79.3389 35.6426 79.4385 32.3739 79.6724 30.79C79.9386 29.0016 80.7349 26.3391 81.8647 23.3735C80.4687 25.5308 78.6098 27.7209 76.5842 27.8548C74.4591 28.024 72.7968 26.3391 72.8317 24.1137C72.8964 20.0013 77.9106 17.5459 81.2326 16.7881C81.9644 16.6237 82.7087 16.5223 83.4573 16.485C83.5917 16.5532 83.5917 16.8892 83.4573 16.9902C82.7428 17.0406 82.0327 17.1419 81.3322 17.2933C76.3851 18.3391 73.195 27.2384 76.5494 27.3394C79.4385 27.1374 82.1285 22.0145 83.2906 19.8219C83.4921 19.4178 83.5568 19.2485 83.5917 19.1828C87.0431 11.4961 92.025 3.70825 95.678 4.51911C96.3101 4.65299 96.5092 5.05716 96.3748 5.69878C95.9443 7.85602 90.4025 14.1939 87.6652 16.7553L87.0332 17.3944C85.8387 18.91 79.3962 35.0591 81.5213 35.6325C84.0794 36.3751 94.4064 21.3729 96.3001 18.7433C96.4096 18.6877 96.6087 18.7888 96.6087 18.8898ZM87.4438 16.3941C90.1338 13.868 95.5461 7.62868 95.9766 5.60784C96.0022 5.53706 96.0119 5.46136 96.0049 5.38629C95.998 5.31123 95.9745 5.23869 95.9363 5.17402C95.8982 5.10934 95.8462 5.05416 95.7843 5.01252C95.7224 4.97088 95.652 4.94384 95.5785 4.93338C92.2912 4.22356 88.4715 13.9665 87.4438 16.3941V16.3941Z" fill="#323232"/>
<path d="M104.644 18.8898C102.785 21.5194 96.5092 31.664 93.5853 31.8333C92.7566 31.9015 92.1917 31.0578 92.2564 29.8453C92.3908 27.587 94.6827 22.2671 95.3471 20.6757C95.8099 19.5289 96.0762 18.6195 96.3425 18.0132C96.9397 16.6643 98.699 17.2024 98.2362 18.8544C98.0178 19.4765 97.7627 20.0847 97.4722 20.6757C96.442 23.2371 93.752 29.3047 93.5206 30.5879C93.3538 31.4973 93.3215 31.6312 94.1178 31.328C97.0392 30.0802 102.22 21.7291 104.345 18.7534C104.445 18.6877 104.644 18.7887 104.644 18.8898ZM97.6041 14.406C97.6134 14.1987 97.6822 13.9986 97.8021 13.8304C97.9221 13.6623 98.0879 13.5335 98.2791 13.4598C98.4703 13.3862 98.6785 13.371 98.8782 13.4161C99.0778 13.4611 99.2601 13.5646 99.4025 13.7135C99.5449 13.8625 99.6412 14.0505 99.6797 14.2544C99.7181 14.4583 99.6968 14.6692 99.6186 14.861C99.5404 15.0528 99.4085 15.2172 99.2394 15.3338C99.0702 15.4505 98.8711 15.5143 98.6667 15.5175C98.525 15.5155 98.385 15.4852 98.2549 15.4282C98.1247 15.3713 98.0069 15.2888 97.9082 15.1856C97.8095 15.0823 97.7318 14.9603 97.6797 14.8265C97.6275 14.6928 97.6018 14.5499 97.6041 14.406V14.406Z" fill="#323232"/>
<path d="M120.851 18.8898C117.76 23.2851 110.39 34.3997 108.324 34.5311C107.528 34.5639 106.963 33.7884 106.998 32.6441C107.03 29.6432 110.915 23.6413 111.315 21.383C111.514 20.4736 111.181 20.2715 110.385 20.5418C108.292 21.282 105.435 23.6085 102.944 27.2157C102.447 28.5646 101.085 28.024 101.384 26.372C101.75 24.5178 102.713 22.3959 103.444 20.6757C103.907 19.5289 104.208 18.6195 104.472 18.0133C105.037 16.6643 106.796 17.2024 106.334 18.8544C106.167 19.5642 105.769 20.2033 105.602 20.6757C104.87 22.4616 103.843 24.4168 103.278 26.137C106.1 22.2949 109.454 20.2362 111.241 20.1351C111.87 20.1023 112.37 20.9106 112.502 21.4512C113.234 23.9444 108.849 30.545 108.416 32.9473C108.185 33.9577 108.384 34.1598 109.116 33.5535C111.407 31.8686 117.825 22.5298 120.538 18.7534C120.652 18.6877 120.851 18.7888 120.851 18.8898Z" fill="#323232"/>
<path d="M134 18.8898C131.218 22.833 127.557 27.5794 125.365 28.5646C125.333 28.5974 125.3 28.5974 125.266 28.6303C122.177 37.0597 116.267 49.1266 111.154 47.9141C110.522 47.7449 110.323 47.3407 110.454 46.7016C111.086 43.9356 120.485 31.227 123.076 28.8323C123.214 28.5132 123.335 28.1869 123.439 27.8548C123.705 26.9454 124.238 24.922 124.803 22.8027C123.606 25.3969 121.779 28.5999 119.754 28.7692C117.994 28.9031 116.598 27.1853 116.633 24.8917C116.666 20.61 120.864 18.0486 123.641 17.2731C124.243 17.0794 124.868 16.9664 125.5 16.9372C125.551 17.0189 125.575 17.1152 125.569 17.212C125.563 17.3088 125.526 17.401 125.465 17.4752C124.885 17.5443 124.309 17.6455 123.74 17.7783C119.587 18.8923 116.932 28.1351 119.721 28.2286C122.145 28.0265 124.402 22.7016 125.365 20.3979C125.431 20.1646 125.521 19.9386 125.631 19.7234C126.097 18.0385 126.495 16.6921 126.761 16.3536C127.525 14.7673 129.018 15.1058 128.72 16.8589C128.488 18.0714 126.53 25.119 125.599 27.7209C125.567 27.8548 125.5 27.9912 125.465 28.125C127.592 27.0136 131.079 22.396 133.701 18.7534C133.801 18.6877 134 18.7888 134 18.8898ZM122.802 29.7771C120.08 32.2728 111.31 44.8121 110.858 46.8027C110.79 47.1715 110.89 47.4089 111.256 47.4746C114.506 48.2501 121.513 34.3619 122.81 29.7771H122.802Z" fill="#323232"/>
<path d="M25.2328 5.83771C24.8172 6.43386 23.9462 7.37103 23.1922 6.74962C21.6171 9.08622 19.3426 12.4004 18.6384 12.3069C18.5193 12.274 18.4107 12.21 18.3235 12.1214C18.2362 12.0328 18.1732 11.9226 18.1407 11.8017C17.8421 10.761 18.8026 8.3966 19.4795 6.83803C18.5438 8.27788 17.6978 9.67731 17.0483 9.71773C16.7994 9.71773 16.6053 9.39944 16.5506 9.18978C16.3689 8.55574 16.7721 7.23462 17.0483 6.5349C17.0856 6.42881 17.1254 6.32524 17.1652 6.23178C16.6178 6.62837 15.6722 6.40355 14.6768 6.17873C14.2113 6.05105 13.7372 5.95818 13.2584 5.90087C12.2058 5.78214 11.3075 6.01959 11.1258 7.52512C11.0984 7.68426 10.9441 7.65647 10.9566 7.49986C11.1631 5.86298 12.1386 5.59774 13.2833 5.73162C13.7614 5.79366 14.2352 5.88647 14.7017 6.00949C15.9459 6.29998 17.0806 6.57785 17.3817 5.6129C17.5758 5.00664 18.3771 5.12537 18.1731 5.82508C18.0914 6.06986 17.9916 6.308 17.8744 6.53743C17.4713 7.54785 17.0558 8.71488 17.0159 9.21757C16.9264 10.4806 18.7454 7.76509 19.8378 6.03727C19.8615 5.97867 19.888 5.92134 19.9175 5.8655C20.1389 5.33756 20.9128 5.575 20.6441 6.19389C20.4749 6.60311 17.9267 12.509 18.8499 12.1225C19.4745 11.8699 21.6071 8.79572 23.0803 6.65615C22.5204 5.98422 22.9757 4.38271 24.0931 4.41302C24.3668 4.42565 24.5484 4.58479 24.4713 4.87529C24.419 5.04706 23.3789 6.48438 23.2868 6.61574C23.8865 7.17147 24.7799 6.27472 25.1208 5.79982C25.1556 5.77204 25.2328 5.78719 25.2328 5.83771ZM24.3096 4.82729C24.3234 4.79199 24.3267 4.75334 24.3192 4.71613C24.3116 4.67891 24.2935 4.64477 24.267 4.6179C24.2405 4.59103 24.2069 4.57262 24.1702 4.56494C24.1336 4.55726 24.0955 4.56065 24.0607 4.57469C23.344 4.67826 22.916 5.97412 23.1748 6.48691C23.3615 6.22167 24.2573 5.01927 24.3096 4.82224V4.82729Z" fill="#323232"/>
<path d="M30.67 5.8377C29.4606 7.55541 26.8478 11.0136 26.0415 11.054C25.8959 11.035 25.763 10.9599 25.6703 10.8442C25.5777 10.7286 25.5324 10.5812 25.5438 10.4326C25.5189 9.86422 25.9868 8.88917 26.5069 7.71203C26.1037 8.28039 25.5961 8.77044 25.0511 8.7957C24.8894 8.80899 24.7267 8.7869 24.5741 8.73092C24.4214 8.67495 24.2824 8.58639 24.1664 8.47123C24.0503 8.35607 23.96 8.21698 23.9014 8.06336C23.8428 7.90973 23.8174 7.74513 23.8268 7.58068C23.8268 6.23429 25.4791 5.42848 26.5641 5.1784C26.8043 5.12808 27.0481 5.09766 27.2932 5.08746C27.3125 5.11228 27.3216 5.14363 27.3189 5.1751C27.3161 5.20656 27.3016 5.23576 27.2783 5.25671C27.0514 5.26922 26.8258 5.30048 26.6039 5.35017C24.9765 5.69372 23.9512 8.59867 25.0287 8.63404C25.8225 8.58099 26.5641 7.41901 27.0195 6.6132C27.0315 6.59297 27.04 6.57074 27.0444 6.54752C27.2385 6.10041 27.343 5.74424 27.4475 5.50679C27.669 4.97632 28.3583 5.18851 28.1766 5.83517C28.103 6.08105 28.0072 6.3195 27.8904 6.54752C27.4873 7.55794 26.1858 9.98042 26.0963 10.4705C26.0166 10.8393 26.0166 10.9176 26.3302 10.761C27.226 10.2558 29.5029 7.27502 30.5605 5.79728C30.5929 5.75939 30.67 5.79981 30.67 5.8377Z" fill="#323232"/>
<path d="M37.018 5.83767C35.8087 7.55539 32.9221 11.9002 32.1158 11.9633C31.8023 11.9785 31.5833 11.6728 31.5957 11.2257C31.6082 10.0511 33.1286 7.68927 33.2854 6.81525C33.365 6.45908 33.2331 6.38077 32.9221 6.48434C32.1034 6.77484 30.9836 7.68674 30.0081 9.0988C29.814 9.62675 29.2815 9.41708 29.3984 8.77042C29.5945 8.00105 29.8645 7.25311 30.2047 6.53739C30.3864 6.09028 30.5033 5.7341 30.6078 5.49666C30.8268 4.96618 31.5161 5.17837 31.3344 5.82504C31.2554 6.06891 31.1598 6.30693 31.0483 6.53739C30.7621 7.2371 30.359 8.0025 30.1375 8.67695C31.2449 7.16132 32.5588 6.36562 33.2605 6.32773C33.5093 6.3151 33.7009 6.63085 33.7582 6.83294C34.0444 7.80799 32.3273 10.3972 32.1581 11.3344C32.0685 11.7284 32.1457 11.8093 32.4318 11.5718C33.3302 10.91 35.8385 7.25479 36.911 5.77705C36.9409 5.75936 37.018 5.79978 37.018 5.83767Z" fill="#323232"/>
<path d="M43.8463 1.30851C43.4556 2.94539 41.6366 3.26114 39.4891 3.12979C39.3597 3.12979 39.2402 3.12979 39.1133 3.10453C38.6704 3.94823 38.098 5.17589 37.8517 5.75688C36.7468 8.28293 35.199 12.1983 35.953 12.4105C36.9484 12.6884 40.9995 6.8254 41.7535 5.78467C41.7909 5.75688 41.8705 5.78467 41.8705 5.83519C41.012 7.05022 37.1225 12.8728 35.8485 12.5696C35.1019 12.3979 35.1343 11.1172 35.2239 10.5084C35.4453 9.04327 36.2516 6.99717 37.0056 5.34766C37.3475 4.54119 37.7295 3.75289 38.1503 2.98581C37.7223 2.9176 37.2793 2.85193 36.8364 2.79888C34.547 2.50838 32.402 2.23304 31.8421 3.19547C31.7251 3.37987 31.4389 3.32682 31.531 3.15505C32.1556 2.03348 34.445 2.27093 36.9011 2.58922C37.3565 2.64226 37.8118 2.72057 38.2797 2.77362C38.4489 2.49575 38.6305 2.21789 38.8271 1.94255C39.2551 1.38682 39.8225 1.82382 39.4119 2.5488C39.3472 2.64226 39.295 2.76099 39.2178 2.89234C39.3198 2.89234 39.4368 2.89234 39.5413 2.89234C41.5047 3.01107 43.1844 2.77362 43.5228 1.26809C43.5726 1.12663 43.8737 1.15189 43.8463 1.30851Z" fill="#323232"/>
<path d="M49.8459 5.20873C49.0745 6.30756 45.5036 11.6325 44.3515 11.3672C43.6597 11.2106 43.697 10.0385 43.7791 9.47017C44.0528 7.659 45.3145 4.82224 46.0983 3.28641C45.7419 3.19668 45.4046 3.04174 45.103 2.82919C44.6501 2.39471 44.5207 1.71773 44.9835 0.714886C45.0432 0.606266 45.1502 0.593635 45.103 0.702255C44.7347 1.50049 44.8541 2.05622 45.1726 2.45533C45.4803 2.72704 45.8418 2.9286 46.2327 3.04643C46.4795 2.55866 46.7615 2.09006 47.0763 1.64447C47.457 1.13926 47.9821 1.53585 47.6014 2.2002C47.3562 2.56466 47.1295 2.94153 46.922 3.32935C47.8626 3.65521 48.8481 3.96844 48.7535 4.51154C48.7411 4.62016 48.5868 4.69341 48.5868 4.61005C48.6589 4.12505 47.7084 3.82445 46.815 3.54659C46.1008 5.00664 43.5328 10.9605 44.4236 11.2157C45.3145 11.4708 49.0521 6.10548 49.729 5.15316C49.7663 5.13547 49.8459 5.17084 49.8459 5.20873Z" fill="#323232"/>
<path d="M55.4275 5.17081C54.3201 6.74202 51.3937 11.4278 50.6696 11.4632C50.3834 11.4632 50.1719 11.2106 50.1943 10.7862C50.1943 9.71265 51.8815 6.87337 52.0134 6.06504C52.0855 5.73918 51.9536 5.60529 51.6924 5.76444C50.7169 6.36816 50.1445 7.88884 49.0621 9.40953C49.0399 9.49897 49.0038 9.58425 48.9551 9.66213C48.6813 10.2406 48.1463 10.1219 48.2533 9.50551C48.5644 7.64382 51.4186 -0.517849 53.9046 0.0378815C53.9513 0.0436067 53.9961 0.0598407 54.0358 0.0853991C54.0756 0.110958 54.1092 0.145196 54.1342 0.185617C54.1592 0.226038 54.1751 0.271622 54.1806 0.319044C54.186 0.366466 54.181 0.414531 54.1659 0.459731C53.9991 1.2327 52.0134 3.50362 51.0503 4.43321C50.9657 4.50646 50.8836 4.57719 50.8015 4.65045C50.147 6.23176 49.719 7.24723 49.398 8.29806C49.3632 8.39405 49.2786 8.69465 49.184 8.99778C50.1794 7.48215 50.9807 5.65329 51.991 5.62803C52.205 5.62803 52.3841 5.90589 52.4439 6.1004C52.6927 6.9921 50.8363 10.0486 50.702 10.9176C50.6198 11.2687 50.6895 11.3521 50.9508 11.1222C51.7819 10.4351 54.3525 6.48689 55.328 5.13292C55.3553 5.09756 55.4399 5.13545 55.4275 5.17081ZM50.9657 4.28922C51.9312 3.37227 53.8697 1.13924 54.0116 0.414262C54.0226 0.388377 54.0275 0.360244 54.026 0.332086C54.0245 0.303927 54.0165 0.276514 54.0028 0.252013C53.989 0.227513 53.9698 0.206596 53.9467 0.190915C53.9237 0.175233 53.8973 0.165216 53.8697 0.161657C52.7027 -0.0808434 51.339 3.40763 50.9657 4.28922Z" fill="#323232"/>
<path d="M60.387 5.20872C59.2821 6.77739 56.8907 9.94253 56.1566 9.9779C56.0219 9.96259 55.8984 9.89475 55.812 9.78871C55.7257 9.68266 55.6833 9.54671 55.6938 9.40954C55.6689 8.90433 56.0994 7.99748 56.5747 6.92138C56.2064 7.44174 55.7411 7.88886 55.2409 7.91159C55.0932 7.9242 54.9445 7.90438 54.805 7.85347C54.6655 7.80255 54.5384 7.72175 54.4324 7.61654C54.3264 7.51133 54.2439 7.38418 54.1906 7.24374C54.1374 7.1033 54.1145 6.95286 54.1236 6.80265C54.136 5.56994 55.6341 4.83234 56.6344 4.60499C56.8532 4.55777 57.0754 4.52904 57.2988 4.5191C57.3192 4.53992 57.3306 4.56807 57.3306 4.59741C57.3306 4.62675 57.3192 4.6549 57.2988 4.67572C57.0903 4.68677 56.883 4.7155 56.6792 4.7616C55.1862 5.07483 54.253 7.73224 55.2409 7.75497C55.965 7.70698 56.6444 6.64351 57.0475 5.90843C57.059 5.88972 57.0674 5.86924 57.0724 5.84781C57.2491 5.43606 57.3461 5.1102 57.4407 4.89296C57.6422 4.41048 58.2743 4.60499 58.1076 5.19609C58.0397 5.42115 57.9514 5.63932 57.8438 5.84781C57.4755 6.76476 56.286 8.98769 56.2039 9.4348C56.1318 9.77329 56.1318 9.84402 56.4179 9.6874C57.2391 9.21756 59.3195 6.49953 60.2949 5.14051C60.3173 5.13546 60.387 5.17083 60.387 5.20872Z" fill="#323232"/>
<path d="M64.8239 5.20873C64.0525 6.30756 60.4816 11.6325 59.3294 11.3672C58.6376 11.2106 58.675 10.0385 58.7571 9.47017C59.0308 7.659 60.2925 4.82224 61.0763 3.28641C60.7201 3.19615 60.3829 3.04125 60.0809 2.82919C59.628 2.39471 59.4986 1.71773 59.9615 0.714886C60.0212 0.606266 60.1282 0.593635 60.0809 0.702255C59.7126 1.50049 59.8196 2.05622 60.1531 2.45533C60.3422 2.68268 60.7478 2.86455 61.2107 3.04643C61.4575 2.55866 61.7394 2.09006 62.0543 1.64447C62.435 1.13926 62.9601 1.53585 62.5793 2.2002C62.3376 2.56488 62.1142 2.94175 61.9099 3.32935C62.8506 3.65521 63.8385 3.96844 63.7414 4.51154C63.7414 4.62016 63.5747 4.69341 63.5747 4.61005C63.6469 4.12505 62.6963 3.82445 61.8029 3.54659C61.0887 5.00664 58.5207 10.9605 59.4115 11.2157C60.3397 11.4683 64.04 6.10548 64.7169 5.15316C64.7542 5.13547 64.8239 5.17084 64.8239 5.20873Z" fill="#323232"/>
</g>
<defs>
<clipPath id="clip0">
<rect width="134" height="48" fill="white"/>
</clipPath>
</defs>
</svg>
