<svg width="80" height="67" viewBox="0 0 80 67" fill="none" xmlns="http://www.w3.org/2000/svg">
<g clip-path="url(#clip0)">
<path d="M5.49092 56.4266H2.46259C2.36749 56.4266 2.31995 56.3826 2.31995 56.2947V55.7341C2.31995 55.6462 2.36749 55.6022 2.46259 55.6022H3.29647V49.3586H2.46259C2.36749 49.3586 2.31995 49.3147 2.31995 49.2267V48.6661C2.31995 48.5782 2.36749 48.5342 2.46259 48.5342H8.09133C8.18643 48.5342 8.23397 48.5782 8.23397 48.6661V50.4359C8.23397 50.5311 8.18643 50.5788 8.09133 50.5788H7.49884C7.41106 50.5788 7.36717 50.5311 7.36717 50.4359V49.3586H4.25106V52.0847H6.82953C6.92462 52.0847 6.97217 52.1287 6.97217 52.2166V52.7772C6.97217 52.8651 6.92462 52.9091 6.82953 52.9091H4.25106V55.6022H5.49092C5.5787 55.6022 5.62259 55.6462 5.62259 55.7341V56.2947C5.62259 56.3826 5.5787 56.4266 5.49092 56.4266Z" fill="#323232"/>
<path d="M15.9367 56.4266H14.9821C14.7188 56.4266 14.4994 56.2507 14.3238 55.899L13.2924 53.7995C13.2046 53.6163 13.1096 53.4807 13.0071 53.3928C12.9121 53.3048 12.7767 53.2572 12.6012 53.2499H11.2077V55.6022H12.1952C12.283 55.6022 12.3269 55.6462 12.3269 55.7341V56.2947C12.3269 56.3826 12.283 56.4266 12.1952 56.4266H9.41923C9.32414 56.4266 9.27659 56.3826 9.27659 56.2947V55.7341C9.27659 55.6462 9.32414 55.6022 9.41923 55.6022H10.2531V49.3586H9.41923C9.32414 49.3586 9.27659 49.3147 9.27659 49.2267V48.6661C9.27659 48.5782 9.32414 48.5342 9.41923 48.5342H12.7987C13.5814 48.5342 14.2178 48.7431 14.7078 49.1608C15.1979 49.5711 15.443 50.1537 15.443 50.9085C15.443 52.059 14.9053 52.7772 13.8301 53.063C13.969 53.1729 14.1409 53.4184 14.3458 53.7995L15.2674 55.6022H15.9367C16.0245 55.6022 16.0684 55.6462 16.0684 55.7341V56.2947C16.0684 56.3826 16.0245 56.4266 15.9367 56.4266ZM11.2077 52.4694H12.6121C13.8557 52.4694 14.4774 51.9601 14.4774 50.9415C14.4774 49.8863 13.8557 49.3586 12.6121 49.3586H11.2077V52.4694Z" fill="#323232"/>
<path d="M24.3092 52.4474C24.3092 53.6493 23.9471 54.6276 23.223 55.3824C22.5061 56.1298 21.5991 56.5036 20.5019 56.5036C19.412 56.5036 18.5013 56.1262 17.7698 55.3714C17.0383 54.6092 16.6726 53.6309 16.6726 52.4364C16.6726 51.2346 17.0493 50.2746 17.8027 49.5565C18.5561 48.831 19.4558 48.4683 20.5019 48.4683C21.5479 48.4683 22.4439 48.831 23.1901 49.5565C23.9362 50.2746 24.3092 51.2383 24.3092 52.4474ZM18.5378 54.7778C19.1011 55.3347 19.7558 55.6132 20.5019 55.6132C21.248 55.6132 21.899 55.3347 22.4549 54.7778C23.0108 54.2135 23.2888 53.4441 23.2888 52.4694C23.2888 51.4875 23.0035 50.7217 22.433 50.1721C21.8697 49.6151 21.226 49.3366 20.5019 49.3366C19.7777 49.3366 19.1303 49.6151 18.5598 50.1721C17.9892 50.7217 17.7039 51.4875 17.7039 52.4694C17.7039 53.4441 17.9819 54.2135 18.5378 54.7778Z" fill="#323232"/>
<path d="M33.8671 56.4266H31.3325C31.2447 56.4266 31.2008 56.3826 31.2008 56.2947V55.7341C31.2008 55.6462 31.2447 55.6022 31.3325 55.6022H32.0676V50.1281H32.0566L29.9719 55.3164C29.8841 55.5362 29.7232 55.6462 29.4891 55.6462C29.2551 55.6462 29.0941 55.5362 29.0064 55.3164L26.9216 50.1281H26.8997V55.6022H27.6348C27.7299 55.6022 27.7775 55.6462 27.7775 55.7341V56.2947C27.7775 56.3826 27.7299 56.4266 27.6348 56.4266H25.1112C25.0161 56.4266 24.9686 56.3826 24.9686 56.2947V55.7341C24.9686 55.6462 25.0161 55.6022 25.1112 55.6022H25.9451V49.3586H25.1112C25.0161 49.3586 24.9686 49.3147 24.9686 49.2267V48.6661C24.9686 48.5782 25.0161 48.5342 25.1112 48.5342H26.8009C27.0496 48.5342 27.2215 48.6588 27.3166 48.9079L28.9515 52.8651L29.4672 54.2502H29.5111C29.7159 53.6786 29.8841 53.2242 30.0158 52.8871L31.6616 48.9079C31.7567 48.6588 31.9323 48.5342 32.1883 48.5342H33.8671C33.9548 48.5342 33.9987 48.5782 33.9987 48.6661V49.2267C33.9987 49.3147 33.9548 49.3586 33.8671 49.3586H33.0222V55.6022H33.8671C33.9548 55.6022 33.9987 55.6462 33.9987 55.7341V56.2947C33.9987 56.3826 33.9548 56.4266 33.8671 56.4266Z" fill="#323232"/>
<path d="M42.3971 56.4266H38.8531C38.758 56.4266 38.7104 56.3826 38.7104 56.2947V55.7341C38.7104 55.6462 38.758 55.6022 38.8531 55.6022H39.687V49.3586H38.8531C38.758 49.3586 38.7104 49.3147 38.7104 49.2267V48.6661C38.7104 48.5782 38.758 48.5342 38.8531 48.5342H42.3861C43.1176 48.5342 43.6845 48.7284 44.0868 49.1168C44.4965 49.5052 44.7013 50.0145 44.7013 50.6447C44.7013 51.3849 44.3758 51.9381 43.7247 52.3045C44.661 52.5757 45.1292 53.1986 45.1292 54.1732C45.1292 54.8621 44.8988 55.4117 44.4379 55.822C43.9844 56.2251 43.3041 56.4266 42.3971 56.4266ZM40.6415 55.6022H42.3203C42.8982 55.6022 43.348 55.4813 43.6699 55.2395C43.999 54.9903 44.1636 54.6092 44.1636 54.0963C44.1636 53.1803 43.5711 52.7222 42.3861 52.7222H40.6415V55.6022ZM40.6415 51.9968H42.3203C42.7007 51.9894 43.0298 51.8795 43.3078 51.667C43.5931 51.4545 43.7357 51.121 43.7357 50.6667C43.7357 50.2124 43.5858 49.8826 43.2859 49.6774C42.9933 49.4649 42.6312 49.3586 42.1996 49.3586H40.6415V51.9968Z" fill="#323232"/>
<path d="M52.5094 56.4266H51.5548C51.2915 56.4266 51.072 56.2507 50.8965 55.899L49.8651 53.7995C49.7773 53.6163 49.6822 53.4807 49.5798 53.3928C49.4847 53.3048 49.3494 53.2572 49.1738 53.2499H47.7804V55.6022H48.7678C48.8556 55.6022 48.8995 55.6462 48.8995 55.7341V56.2947C48.8995 56.3826 48.8556 56.4266 48.7678 56.4266H45.9919C45.8968 56.4266 45.8492 56.3826 45.8492 56.2947V55.7341C45.8492 55.6462 45.8968 55.6022 45.9919 55.6022H46.8258V49.3586H45.9919C45.8968 49.3586 45.8492 49.3147 45.8492 49.2267V48.6661C45.8492 48.5782 45.8968 48.5342 45.9919 48.5342H49.3713C50.154 48.5342 50.7904 48.7431 51.2805 49.1608C51.7706 49.5711 52.0156 50.1537 52.0156 50.9085C52.0156 52.059 51.478 52.7772 50.4027 53.063C50.5417 53.1729 50.7136 53.4184 50.9184 53.7995L51.8401 55.6022H52.5094C52.5972 55.6022 52.641 55.6462 52.641 55.7341V56.2947C52.641 56.3826 52.5972 56.4266 52.5094 56.4266ZM47.7804 52.4694H49.1848C50.4283 52.4694 51.0501 51.9601 51.0501 50.9415C51.0501 49.8863 50.4283 49.3586 49.1848 49.3586H47.7804V52.4694Z" fill="#323232"/>
<path d="M56.4069 56.4266H53.7736C53.6785 56.4266 53.6309 56.3826 53.6309 56.2947V55.7341C53.6309 55.6462 53.6785 55.6022 53.7736 55.6022H54.6075V49.3586H53.7736C53.6785 49.3586 53.6309 49.3147 53.6309 49.2267V48.6661C53.6309 48.5782 53.6785 48.5342 53.7736 48.5342H56.4069C56.502 48.5342 56.5496 48.5782 56.5496 48.6661V49.2267C56.5496 49.3147 56.502 49.3586 56.4069 49.3586H55.5621V55.6022H56.4069C56.502 55.6022 56.5496 55.6462 56.5496 55.7341V56.2947C56.5496 56.3826 56.502 56.4266 56.4069 56.4266Z" fill="#323232"/>
<path d="M60.8882 56.4266H57.7392C57.6514 56.4266 57.6075 56.3826 57.6075 56.2947V55.7341C57.6075 55.6462 57.6514 55.6022 57.7392 55.6022H58.584V49.3586H57.7392C57.6514 49.3586 57.6075 49.3147 57.6075 49.2267V48.6661C57.6075 48.5782 57.6514 48.5342 57.7392 48.5342H60.7017C61.9159 48.5342 62.8815 48.886 63.5983 49.5895C64.3152 50.2856 64.6736 51.2456 64.6736 52.4694C64.6736 53.6932 64.3335 54.6605 63.6532 55.3714C62.9729 56.0749 62.0513 56.4266 60.8882 56.4266ZM59.5386 55.6022H60.6249C62.6584 55.5875 63.6752 54.5506 63.6752 52.4914C63.6752 51.5021 63.4118 50.7327 62.8852 50.183C62.3658 49.6334 61.6014 49.3586 60.592 49.3586H59.5386V55.6022Z" fill="#323232"/>
<path d="M71.4558 56.4266H65.6296C65.5345 56.4266 65.4869 56.3826 65.4869 56.2947V55.7341C65.4869 55.6462 65.5345 55.6022 65.6296 55.6022H66.4635V49.3586H65.6296C65.5345 49.3586 65.4869 49.3147 65.4869 49.2267V48.6661C65.4869 48.5782 65.5345 48.5342 65.6296 48.5342H71.4558C71.5509 48.5342 71.5985 48.5782 71.5985 48.6661V50.4359C71.5985 50.5311 71.5509 50.5788 71.4558 50.5788H70.8633C70.7756 50.5788 70.7317 50.5311 70.7317 50.4359V49.3586H67.4181V52.0847H70.194C70.2891 52.0847 70.3367 52.1287 70.3367 52.2166V52.7772C70.3367 52.8651 70.2891 52.9091 70.194 52.9091H67.4181V55.6022H70.7207V54.525C70.7207 54.437 70.7682 54.3931 70.8633 54.3931H71.4558C71.5509 54.3931 71.5985 54.437 71.5985 54.525V56.2947C71.5985 56.3826 71.5509 56.4266 71.4558 56.4266Z" fill="#323232"/>
<path d="M73.5221 56.4266H72.9077C72.8126 56.4266 72.765 56.3826 72.765 56.2947V53.7225C72.765 53.6273 72.8126 53.5796 72.9077 53.5796H73.5989C73.6867 53.5796 73.7306 53.6273 73.7306 53.7225V53.9534C73.7306 54.0926 73.8147 54.2795 73.983 54.514C74.1512 54.7411 74.3194 54.928 74.4877 55.0746C74.6559 55.2211 74.879 55.3494 75.157 55.4593C75.4423 55.5619 75.7495 55.6132 76.0787 55.6132C76.6419 55.6132 77.0808 55.4959 77.3953 55.2614C77.7172 55.0269 77.8781 54.7008 77.8781 54.2831C77.8781 54.0413 77.7867 53.8361 77.6038 53.6676C77.4282 53.4917 77.1978 53.3525 76.9125 53.2499C76.6273 53.1473 76.3091 53.052 75.958 52.9641C75.6142 52.8761 75.2667 52.7772 74.9156 52.6673C74.5718 52.55 74.2573 52.4145 73.972 52.2606C73.6867 52.0994 73.4526 51.8795 73.2698 51.601C73.0942 51.3152 73.0064 50.9818 73.0064 50.6007C73.0064 49.9852 73.2368 49.4759 73.6977 49.0728C74.1658 48.6698 74.7912 48.4683 75.5739 48.4683C76.5614 48.4683 77.2856 48.7577 77.7464 49.3366L77.7245 48.6551C77.7245 48.5672 77.772 48.5232 77.8671 48.5232H78.4816C78.5694 48.5232 78.6132 48.5672 78.6132 48.6551V51.0514C78.6132 51.1394 78.5694 51.1833 78.4816 51.1833H77.7903C77.7025 51.1833 77.6587 51.1394 77.6587 51.0514V50.7436C77.6587 50.4432 77.4904 50.1391 77.1539 49.8313C76.8175 49.5235 76.3237 49.3696 75.6727 49.3696C75.1899 49.3696 74.7986 49.4869 74.4987 49.7214C74.2061 49.9485 74.0598 50.2417 74.0598 50.6007C74.0598 50.8572 74.1512 51.0771 74.3341 51.2603C74.5169 51.4435 74.7547 51.59 75.0473 51.7C75.3399 51.8099 75.6617 51.9125 76.0128 52.0078C76.3639 52.0957 76.715 52.1946 77.0662 52.3045C77.4173 52.4145 77.7391 52.5464 78.0317 52.7003C78.3243 52.8541 78.562 53.0667 78.7449 53.3378C78.9278 53.6016 79.0192 53.9167 79.0192 54.2831C79.0192 54.928 78.7888 55.4593 78.328 55.877C77.8671 56.2947 77.1795 56.5036 76.2652 56.5036C75.5922 56.5036 75.0363 56.368 74.5974 56.0968C74.1585 55.8257 73.8403 55.5326 73.6428 55.2175L73.6538 56.2947C73.6538 56.3826 73.6099 56.4266 73.5221 56.4266Z" fill="#323232"/>
<path d="M26.344 60.5304L25.1817 64.1212H24.0961L23.41 61.9359L22.6932 64.1212H21.6076L20.4453 60.5304H21.4899L22.2118 62.8233L22.9697 60.5304H23.9016L24.6235 62.8439L25.3762 60.5304H26.344Z" fill="#323232"/>
<path d="M27.9361 60.5304H28.95V64.1212H27.9361V60.5304Z" fill="#323232"/>
<path d="M31.6631 61.3357H30.5622V60.5304H33.7727V61.3357H32.6769V64.1212H31.6631V61.3357Z" fill="#323232"/>
<path d="M38.7894 60.5304V64.1212H37.7756V62.7208H36.3931V64.1212H35.3793V60.5304H36.3931V61.8795H37.7756V60.5304H38.7894Z" fill="#323232"/>
<path d="M43.4525 60.5304H44.4663V63.3158H46.1765V64.1212H43.4525V60.5304Z" fill="#323232"/>
<path d="M49.5591 64.193C49.1802 64.193 48.8388 64.1126 48.535 63.9519C48.2346 63.7911 47.9974 63.5689 47.8233 63.285C47.6526 63.0012 47.5672 62.6814 47.5672 62.3258C47.5672 61.9701 47.6526 61.6504 47.8233 61.3665C47.9974 61.0827 48.2346 60.8604 48.535 60.6997C48.8388 60.5389 49.1802 60.4586 49.5591 60.4586C49.938 60.4586 50.2776 60.5389 50.578 60.6997C50.8818 60.8604 51.1191 61.0827 51.2897 61.3665C51.4638 61.6504 51.5509 61.9701 51.5509 62.3258C51.5509 62.6814 51.4638 63.0012 51.2897 63.285C51.1191 63.5689 50.8818 63.7911 50.578 63.9519C50.2776 64.1126 49.938 64.193 49.5591 64.193ZM49.5591 63.3517C49.74 63.3517 49.9038 63.309 50.0506 63.2235C50.1974 63.138 50.3135 63.0183 50.3988 62.8644C50.4841 62.7071 50.5268 62.5275 50.5268 62.3258C50.5268 62.124 50.4841 61.9462 50.3988 61.7923C50.3135 61.635 50.1974 61.5136 50.0506 61.4281C49.9038 61.3426 49.74 61.2998 49.5591 61.2998C49.3781 61.2998 49.2143 61.3426 49.0675 61.4281C48.9207 61.5136 48.8047 61.635 48.7193 61.7923C48.634 61.9462 48.5913 62.124 48.5913 62.3258C48.5913 62.5275 48.634 62.7071 48.7193 62.8644C48.8047 63.0183 48.9207 63.138 49.0675 63.2235C49.2143 63.309 49.3781 63.3517 49.5591 63.3517Z" fill="#323232"/>
<path d="M56.8212 60.5304L55.2851 64.1212H54.2866L52.7557 60.5304H53.8514L54.8243 62.8695L55.8176 60.5304H56.8212Z" fill="#323232"/>
<path d="M61.1376 63.3363V64.1212H58.2599V60.5304H61.071V61.3152H59.2635V61.9205H60.856V62.6797H59.2635V63.3363H61.1376Z" fill="#323232"/>
<path d="M39.4835 40.8043C38.9242 40.3815 38.6867 39.0757 39.0748 38.4947C39.1045 38.461 39.1421 38.4351 39.1841 38.4194C39.2262 38.4037 39.2715 38.3987 39.316 38.4047C39.4449 38.4481 39.6484 38.5356 39.658 38.6231C39.7257 39.2229 39.7651 39.8269 39.7784 40.4304C39.781 40.5535 39.637 40.6806 39.5606 40.8056L39.4835 40.8043ZM45.67 38.9853C45.6724 38.6138 45.7226 38.2443 45.8194 37.8857C45.8217 37.8259 45.8411 37.768 45.8753 37.7189C45.9095 37.6697 45.9571 37.6315 46.0123 37.6086C46.0676 37.5858 46.1282 37.5793 46.187 37.5899C46.2458 37.6005 46.3004 37.6278 46.3442 37.6685C46.5382 37.7853 46.7008 37.9478 46.818 38.1417C46.9673 38.4811 47.0324 38.8516 47.0079 39.2217C46.9834 39.5917 46.87 39.9504 46.6773 40.267C45.9826 40.1371 45.7202 39.8374 45.6689 38.9849L45.67 38.9853ZM32.0773 38.9799C32.0233 38.2427 32.2415 37.5113 32.6904 36.9246C32.7742 36.8266 32.9559 36.8121 33.0929 36.759C33.1415 36.8847 33.2552 37.0273 33.2294 37.1338C33.0867 37.6918 32.9177 38.2435 32.7395 38.7915C32.672 38.9994 32.5668 39.1346 32.4079 39.1319C32.2836 39.119 32.167 39.0656 32.0758 38.9799L32.0773 38.9799ZM54.0769 36.5217C53.3711 36.2673 52.7345 35.851 52.2181 35.3059C51.9112 34.9726 51.9117 34.9644 52.1937 34.5326C53.1914 34.6734 53.855 35.3288 54.4587 36.0601C54.4902 36.1247 54.5056 36.196 54.5037 36.2678C54.5018 36.3397 54.4826 36.41 54.4478 36.4729C54.4184 36.52 54.3091 36.5446 54.208 36.5429C54.163 36.5432 54.1182 36.5359 54.0755 36.5213L54.0769 36.5217ZM26.614 32.53C26.9549 32.2242 27.2054 31.735 27.7769 31.8406C27.8598 31.8544 27.9388 31.8855 28.0089 31.9319C28.079 31.9783 28.1386 32.0389 28.1838 32.1098C28.2077 32.1923 28.2123 32.2792 28.1972 32.3637C28.1821 32.4482 28.1478 32.5281 28.097 32.5972C27.777 32.9672 27.4234 33.3067 27.0407 33.6112C26.8938 33.7242 26.6186 33.6709 26.4272 33.6905C26.3615 33.6027 26.3141 33.5026 26.2879 33.3961C26.2617 33.2896 26.2572 33.1788 26.2746 33.0705C26.2921 32.9622 26.3311 32.8585 26.3894 32.7657C26.4477 32.6728 26.5241 32.5927 26.614 32.53V32.53ZM58.4937 31.3933C57.6052 31.3833 56.7273 31.1996 55.909 30.8526C55.7654 30.7961 55.6306 30.7193 55.5086 30.6247C55.3502 30.4846 55.0661 30.41 55.1783 30.0927C55.1939 30.0285 55.2226 29.9681 55.2624 29.9154C55.3022 29.8627 55.3524 29.8187 55.4098 29.7861C55.4673 29.7536 55.5308 29.7332 55.5964 29.7261C55.662 29.7191 55.7284 29.7256 55.7914 29.7453C56.8329 29.7718 57.8446 30.0997 58.7042 30.6895C58.7429 30.7115 58.7764 30.7417 58.8024 30.7779C58.8284 30.8141 58.8463 30.8555 58.8548 30.8993C58.8634 30.9431 58.8624 30.9882 58.8519 31.0315C58.8415 31.0749 58.8218 31.1154 58.7943 31.1505C58.74 31.2569 58.5962 31.3951 58.4969 31.3934L58.4937 31.3933ZM40.6064 29.8442C40.3623 29.6995 40.1317 29.5331 39.9176 29.3469C38.6467 28.0037 37.1236 26.9752 35.6652 25.865C34.4302 24.9853 33.3518 23.9037 32.4752 22.6654C31.5881 21.4111 31.1329 19.9013 31.1788 18.3647C31.2095 17.2525 31.6614 16.1935 32.4428 15.4028C33.2242 14.612 34.2765 14.1487 35.3864 14.1067C36.0735 14.0928 36.7565 14.2155 37.3959 14.4676C38.0354 14.7198 38.6186 15.0964 39.1119 15.5757C39.6799 16.0981 40.1758 16.6995 40.702 17.2638C41.2303 16.6069 41.7623 15.9239 42.3179 15.261C43.047 14.3928 44.0643 13.9668 45.0357 13.4519C45.3997 13.2592 45.8036 13.1543 46.2153 13.1455C46.6269 13.1367 47.0349 13.2244 47.4068 13.4014C49.2426 14.1433 50.1371 15.6067 50.4176 17.4962C50.6846 19.2934 50.1456 20.8945 49.136 22.3591C47.2739 25.0897 44.9546 27.4773 42.2806 29.4164C42.0611 29.5748 41.814 29.6948 41.5945 29.8549C41.4542 29.9671 41.2806 30.0292 41.1011 30.0315C40.9208 30.0218 40.748 29.9563 40.6064 29.8442V29.8442ZM33.1135 17.3174C32.8513 17.9247 32.7405 18.5867 32.7907 19.2464C32.8408 19.9061 33.0504 20.5437 33.4014 21.1042C33.9883 22.0987 34.7489 22.9793 35.6468 23.7041C37.0487 24.8849 38.4834 26.0257 39.8828 27.2093C40.7223 27.9196 40.852 27.9773 41.7494 27.3348C44.0784 25.6474 46.099 23.5696 47.7221 21.1932C48.5154 20.1047 48.8477 18.7464 48.6467 17.4138C48.6091 16.9678 48.4828 16.5339 48.2754 16.1376C48.0679 15.7412 47.7834 15.3905 47.4386 15.1059C46.7806 14.602 46.0679 14.3387 45.2563 14.8025C44.9891 14.9554 44.693 15.0578 44.4108 15.1846C43.807 15.4499 43.2635 15.8357 42.8136 16.3186C42.0495 17.1422 41.2457 17.9311 40.4508 18.7413C40.398 18.7178 40.3798 18.7161 40.375 18.7071C40.2886 18.5789 40.2079 18.4462 40.1172 18.3205C39.2492 17.0653 37.9852 16.1389 36.5283 15.6902C36.2189 15.5931 35.8977 15.5395 35.5737 15.5308C34.4718 15.5124 33.6158 16.1337 33.1135 17.3174ZM21.7859 26.5562C21.444 26.4602 21.4097 26.2678 21.6355 25.9732C22.1322 25.325 22.8503 24.9801 23.5551 24.64C23.6557 24.6003 23.7639 24.5836 23.8718 24.5912C23.9797 24.5988 24.0845 24.6305 24.1785 24.684C24.2726 24.7375 24.3535 24.8114 24.4153 24.9003C24.4771 24.9892 24.5182 25.0909 24.5357 25.1978C24.5285 25.2231 24.533 25.357 24.47 25.4092C23.8969 25.8829 23.375 26.4551 22.6094 26.6124C22.5105 26.6316 22.4099 26.6401 22.3093 26.6377C22.1321 26.6327 21.9563 26.6053 21.7859 26.5562ZM57.5431 24.7716C57.5355 24.3163 57.8126 23.9829 58.2023 24.0457C58.7453 24.121 59.2783 24.2562 59.7917 24.4489C60.339 24.67 60.3394 24.8396 59.9419 25.3592L57.5431 24.7716ZM58.2298 18.2794C58.2138 18.1966 58.2183 18.1111 58.2429 18.0304C58.2675 17.9498 58.3114 17.8764 58.3708 17.8166C58.6009 17.5854 58.8761 17.4043 59.1793 17.2847C59.4825 17.1651 59.8072 17.1096 60.1328 17.1217C60.4146 17.1433 60.6982 17.1463 60.9808 17.1579L60.9743 17.5461C60.321 18.0732 59.5231 18.3886 58.6865 18.4503C58.6704 18.4518 58.6542 18.4524 58.6379 18.452C58.5616 18.4542 58.4858 18.4399 58.4154 18.4101C58.3451 18.3804 58.2821 18.3358 58.2305 18.2794L58.2298 18.2794ZM21.2407 16.7581C21.0633 16.6903 20.9608 16.4123 20.8271 16.2297C21.0239 16.0842 21.2312 15.8029 21.4149 15.8174C22.0613 15.8872 22.7028 15.9961 23.336 16.1436C23.6108 16.1998 23.5528 16.459 23.498 16.6176C23.4359 16.7932 23.3148 16.9417 23.1555 17.0376C23.0264 17.107 22.8292 17.0471 22.6614 17.0442L22.6454 17.1191C22.1702 17.0281 21.701 16.9075 21.2407 16.7581V16.7581ZM56.2282 11.3907C56.7314 10.9939 57.2217 10.5807 57.7172 10.1733C57.7584 10.1368 57.8065 10.1089 57.8586 10.0912C57.9107 10.0735 57.9657 10.0663 58.0206 10.0702C58.0755 10.0741 58.129 10.0888 58.1781 10.1137C58.2272 10.1385 58.2709 10.1729 58.3066 10.2149C58.3867 10.2935 58.4251 10.5565 58.3652 10.6145C57.7658 11.2783 57.0064 11.777 56.1597 12.0626C55.9677 11.7788 55.9871 11.5795 56.2271 11.3907L56.2282 11.3907ZM25.6208 10.4225C24.9532 10.3607 24.4761 9.93462 24.0071 9.51764C23.9682 9.4594 23.943 9.39311 23.9333 9.32374C23.9236 9.25436 23.9296 9.18369 23.951 9.11699C23.9805 9.02052 24.1322 8.96191 24.2534 8.86915C24.7167 9.03556 25.1472 9.15954 25.5476 9.34814C25.7533 9.45173 25.9229 9.61514 26.0343 9.81696C26.0948 9.99004 26.0858 10.1799 26.0093 10.3465C25.9861 10.4048 25.8175 10.4269 25.6865 10.4247C25.6629 10.4254 25.6404 10.4243 25.6208 10.4225ZM51.0352 6.08691C51.1816 4.82555 52.0456 4.1128 52.9444 3.45002C53.0703 3.35734 53.4224 3.46746 53.5935 3.59025C53.6719 3.64669 53.6383 4.02649 53.5305 4.14847C52.9478 4.80661 52.3166 5.4217 51.7202 6.06852C51.688 6.10994 51.647 6.14361 51.6001 6.16709C51.5532 6.19056 51.5017 6.20323 51.4493 6.20418C51.3092 6.17284 51.1709 6.13369 51.0352 6.08691ZM31.8988 5.04069C31.5671 4.71684 31.2672 4.36184 31.0032 3.98057C30.7873 3.58874 30.5998 3.18182 30.4423 2.76299C30.6102 2.67818 30.7406 2.55337 30.8269 2.58025C31.0371 2.62227 31.23 2.72652 31.3804 2.87952C31.7971 3.4478 32.1806 4.03976 32.5291 4.65244C32.5956 4.77166 32.418 5.02842 32.3533 5.22198C32.2 5.16283 32.0024 5.14766 31.8988 5.04069ZM38.4752 3.5285C38.4063 3.47863 38.358 3.40527 38.3394 3.32223C38.2108 2.3627 38.2559 1.38783 38.4725 0.444326C38.4872 0.376589 38.6464 0.298789 38.7375 0.300339C38.9083 0.328821 39.0753 0.376931 39.2351 0.443716C39.2196 1.35413 39.2235 2.24018 39.1817 3.12438C39.1926 3.21103 39.1776 3.29897 39.1386 3.37707C39.0996 3.45517 39.0383 3.51992 38.9626 3.56314C38.8868 3.60636 38.8 3.6261 38.713 3.61987C38.6261 3.61364 38.5429 3.58171 38.4741 3.52813L38.4752 3.5285ZM45.0182 3.64316C44.8843 3.57611 44.7159 3.39469 44.7192 3.26449C44.681 2.3439 44.935 1.43486 45.4448 0.667914C45.5321 0.54953 45.7158 0.502562 45.8547 0.424415C45.9299 0.557144 45.9925 0.696711 46.0415 0.841248C46.058 0.969293 46.0581 1.09893 46.0418 1.22699C46.0241 2.01586 45.794 2.78529 45.3757 3.45387C45.2953 3.5585 45.1786 3.62905 45.0487 3.65155C45.038 3.65097 45.0276 3.64798 45.0182 3.6428L45.0182 3.64316Z" fill="#323232"/>
</g>
<defs>
<clipPath id="clip0">
<rect width="79" height="67" fill="white" transform="translate(0.986816)"/>
</clipPath>
</defs>
</svg>
