<svg width="55" height="62" viewBox="0 0 55 62" fill="none" xmlns="http://www.w3.org/2000/svg">
<g clip-path="url(#clip0)">
<path d="M25.2754 30.1616V30.7033H23.8078V34.8135H23.1912V30.7033H21.7159V30.1775L25.2754 30.1616Z" fill="#323232"/>
<path d="M29.6037 34.7976H28.987V32.6947H26.5399V34.8055H25.9232V30.1616H26.5399V32.2287H28.987V30.1616H29.6037V34.7976Z" fill="#323232"/>
<path d="M33.5144 30.1616V30.6714H31.3327V32.2128H33.1007V32.6947H31.3327V34.2878H33.5144V34.8016H30.716V30.1616H33.5144Z" fill="#323232"/>
<path d="M19.4014 61.9482V57.3123H20.8533C21.0953 57.3079 21.3367 57.336 21.5715 57.3959C21.752 57.4405 21.9219 57.5218 22.071 57.6349C22.1969 57.7343 22.2962 57.8644 22.3598 58.0133C22.4245 58.175 22.4563 58.3484 22.4535 58.523C22.4532 58.6342 22.4347 58.7446 22.3989 58.8496C22.3666 58.9575 22.3135 59.0577 22.2428 59.1444C22.1676 59.2393 22.078 59.3213 21.9774 59.3873C21.8563 59.4648 21.7248 59.5238 21.5871 59.5626C21.8684 59.605 22.1308 59.7326 22.3403 59.929C22.4259 60.0221 22.4924 60.1317 22.536 60.2514C22.5796 60.3711 22.5993 60.4984 22.594 60.626C22.5969 60.8108 22.561 60.9941 22.4886 61.1636C22.4183 61.3262 22.3113 61.4695 22.1764 61.5818C22.0284 61.7039 21.8588 61.7958 21.6768 61.8527C21.4565 61.9195 21.2275 61.9517 20.9977 61.9482H19.4014ZM20.0181 59.3873H20.8299C20.9813 59.3894 21.1323 59.3707 21.2787 59.3316C21.3934 59.2984 21.5008 59.243 21.5949 59.1683C21.6774 59.1025 21.742 59.016 21.7822 58.9173C21.8222 58.8147 21.8421 58.7051 21.8408 58.5947C21.8504 58.4826 21.8334 58.3698 21.7913 58.2659C21.7492 58.1619 21.6831 58.0698 21.5988 57.9973C21.3773 57.8526 21.1156 57.7855 20.8533 57.8061H20.0181V59.3873ZM20.0181 59.8334V61.4504H21.0016C21.1549 61.4542 21.3078 61.4326 21.4544 61.3867C21.5676 61.3517 21.6725 61.2935 21.7627 61.2154C21.8427 61.1425 21.9043 61.0509 21.9422 60.9486C21.9821 60.8404 22.002 60.7256 22.0008 60.61C22.0045 60.5025 21.9838 60.3956 21.9405 60.2975C21.8972 60.1994 21.8324 60.1129 21.751 60.0445C21.531 59.8882 21.2651 59.8137 20.9977 59.8334H20.0181Z" fill="#323232"/>
<path d="M24.4362 61.4185H26.3877V61.9482H23.8351V57.3123H24.4479L24.4362 61.4185Z" fill="#323232"/>
<path d="M31.3639 59.6302C31.3687 59.9562 31.3144 60.2802 31.2039 60.5861C31.1026 60.8645 30.9473 61.1192 30.7473 61.3348C30.5478 61.5485 30.3055 61.7156 30.0369 61.8247C29.4486 62.0531 28.7986 62.0531 28.2104 61.8247C27.9434 61.7145 27.7026 61.5475 27.5039 61.3348C27.3039 61.1192 27.1486 60.8645 27.0473 60.5861C26.8288 59.9683 26.8288 59.2921 27.0473 58.6743C27.1495 58.3964 27.3047 58.1419 27.5039 57.9256C27.7026 57.7129 27.9434 57.5459 28.2104 57.4357C28.7977 57.2019 29.4496 57.2019 30.0369 57.4357C30.3055 57.5448 30.5478 57.712 30.7473 57.9256C30.9465 58.1419 31.1017 58.3964 31.2039 58.6743C31.3144 58.9802 31.3687 59.3042 31.3639 59.6302ZM30.7355 59.6302C30.7392 59.3704 30.6996 59.1118 30.6185 58.8655C30.5507 58.6531 30.4419 58.4567 30.2984 58.288C30.1566 58.1326 29.9835 58.0103 29.791 57.9296C29.363 57.7595 28.8881 57.7595 28.4601 57.9296C28.2671 58.0093 28.0938 58.1317 27.9528 58.288C27.8066 58.4554 27.6963 58.6521 27.6288 58.8655C27.5477 59.1118 27.5081 59.3704 27.5117 59.6302C27.5075 59.8901 27.5471 60.1487 27.6288 60.3949C27.6954 60.6075 27.8058 60.8031 27.9528 60.9684C28.0938 61.1247 28.2671 61.2471 28.4601 61.3269C28.8881 61.4969 29.363 61.4969 29.791 61.3269C29.9835 61.2461 30.1566 61.1238 30.2984 60.9684C30.4427 60.8018 30.5517 60.6065 30.6185 60.3949C30.7002 60.1487 30.7398 59.8901 30.7355 59.6302V59.6302Z" fill="#323232"/>
<path d="M34.5487 61.4902C34.6605 61.4966 34.7726 61.4966 34.8844 61.4902C34.9831 61.4785 35.0809 61.4598 35.1771 61.4344C35.2644 61.4113 35.3504 61.3834 35.4347 61.3508C35.5162 61.3172 35.5957 61.2786 35.6727 61.2353V60.2117H34.9702C34.9343 60.2133 34.8993 60.2004 34.8726 60.1759C34.8615 60.1651 34.8527 60.1521 34.8467 60.1377C34.8406 60.1233 34.8375 60.1079 34.8375 60.0922V59.7338H36.2309V61.5141C36.1186 61.5969 35.9998 61.6702 35.8757 61.7331C35.7501 61.7971 35.6196 61.8504 35.4854 61.8924C35.3383 61.9344 35.1882 61.965 35.0366 61.984C34.8617 62.0054 34.6858 62.016 34.5097 62.0159C34.1995 62.0185 33.8919 61.959 33.6042 61.8407C33.3368 61.7309 33.0949 61.5654 32.8939 61.3548C32.6841 61.1316 32.5232 60.8655 32.4216 60.5741C32.3094 60.2673 32.2538 59.9418 32.2577 59.6143C32.2523 59.2844 32.3065 58.9563 32.4177 58.6465C32.5202 58.3659 32.6799 58.1107 32.8861 57.8977C33.0942 57.6874 33.3427 57.5233 33.6159 57.4158C33.9238 57.2974 34.2509 57.2393 34.5799 57.2445C34.7473 57.2428 34.9144 57.2562 35.0795 57.2844C35.226 57.3081 35.3699 57.3468 35.5088 57.3999C35.6377 57.4477 35.7608 57.5105 35.8757 57.587C35.9884 57.6577 36.0942 57.739 36.1918 57.83L36.0162 58.1128C36.0031 58.1393 35.983 58.1615 35.9582 58.177C35.9334 58.1925 35.9048 58.2006 35.8757 58.2004C35.8368 58.1984 35.7991 58.186 35.7664 58.1645C35.7047 58.1321 35.6448 58.0962 35.5869 58.057C35.5119 58.0065 35.4322 57.9638 35.3488 57.9296C35.2413 57.8866 35.1303 57.8533 35.0171 57.83C34.8667 57.7993 34.7137 57.7846 34.5604 57.7862C34.323 57.7836 34.0873 57.8268 33.8657 57.9136C33.6659 57.995 33.4861 58.1201 33.3388 58.2801C33.1878 58.4466 33.0722 58.6432 32.9992 58.8576C32.8381 59.3582 32.8381 59.8983 32.9992 60.3989C33.0726 60.6163 33.1896 60.8157 33.3427 60.9844C33.4918 61.1422 33.6711 61.2669 33.8696 61.3508C34.0848 61.4424 34.3156 61.4898 34.5487 61.4902V61.4902Z" fill="#323232"/>
<path d="M9.02353 44.1332V45.2245H3.7663V37.3983H8.92986V38.4896H4.9762V40.716H8.39906V41.7396H4.9762V44.1292L9.02353 44.1332Z" fill="#323232"/>
<path d="M12.0288 39.6924V45.2245H10.8189V37.3983H11.8103L16.1542 43.0499V37.4103H17.3758V45.2245H16.3142L12.0288 39.6924Z" fill="#323232"/>
<path d="M22.7736 45.2802C22.2852 45.2831 21.8024 45.1743 21.3607 44.9616C20.9228 44.7485 20.5313 44.4478 20.2094 44.0774C19.8757 43.7029 19.6112 43.2697 19.4288 42.799C19.2433 42.3142 19.1493 41.798 19.1517 41.2776C19.1473 40.2555 19.5192 39.2691 20.1937 38.5135C20.754 37.9094 21.4953 37.5127 22.3008 37.3857C23.1063 37.2588 23.9304 37.409 24.6431 37.8125C25.1356 38.1085 25.5329 38.5445 25.7866 39.0671L24.8538 39.7521C24.6743 39.3476 24.3737 39.0115 23.9952 38.7923C23.6246 38.5802 23.2062 38.4704 22.7814 38.4737C22.4401 38.4687 22.1027 38.548 21.7978 38.7047C21.5045 38.8606 21.2455 39.0761 21.0368 39.3379C20.8232 39.6108 20.6605 39.9212 20.5567 40.254C20.4474 40.6014 20.3934 40.9644 20.3967 41.3293C20.3927 41.7079 20.4548 42.0842 20.5801 42.4405C20.694 42.7738 20.8688 43.0819 21.0953 43.3486C21.3121 43.6048 21.5777 43.8135 21.8759 43.9619C22.1835 44.1094 22.5196 44.1842 22.8594 44.181C23.2782 44.1807 23.6897 44.0696 24.0537 43.8584C24.4684 43.6079 24.8305 43.2763 25.1192 42.8826V44.1372C24.8344 44.4917 24.4766 44.778 24.0713 44.9755C23.6659 45.1731 23.2228 45.2771 22.7736 45.2802V45.2802ZM25.0099 42.1816H23.4019V41.2656H26.0247V45.2245H25.006L25.0099 42.1816Z" fill="#323232"/>
<path d="M27.9489 45.2245V37.3983H29.1588V44.1332H33.2724V45.2245H27.9489Z" fill="#323232"/>
<path d="M34.7985 45.2245V37.3983H36.0084V45.2245H34.7985Z" fill="#323232"/>
<path d="M42.8112 39.2384C42.7171 39.1403 42.6124 39.0534 42.499 38.9795C42.3445 38.8781 42.1812 38.7914 42.0111 38.7206C41.8153 38.6371 41.6129 38.5705 41.4061 38.5215C41.1873 38.4699 40.9633 38.4445 40.7387 38.4458C40.3435 38.4147 39.9491 38.5153 39.6147 38.7326C39.4942 38.8245 39.3978 38.9452 39.3338 39.0841C39.2698 39.223 39.2403 39.3759 39.2478 39.5291C39.241 39.6363 39.2554 39.7437 39.2903 39.845C39.3252 39.9463 39.3798 40.0394 39.4508 40.1186C39.63 40.2864 39.8452 40.4092 40.0791 40.477C40.3602 40.5687 40.7114 40.6722 41.1368 40.7837C41.5999 40.888 42.0521 41.0374 42.4872 41.2298C42.8341 41.3731 43.1363 41.6099 43.3615 41.9148C43.5784 42.2492 43.685 42.6455 43.6659 43.046C43.6742 43.4001 43.5993 43.751 43.4474 44.0695C43.307 44.3505 43.0988 44.5904 42.8424 44.7665C42.5703 44.9529 42.2676 45.0878 41.9486 45.1648C41.5906 45.2514 41.2238 45.2942 40.8558 45.2922C40.4727 45.2928 40.0906 45.2514 39.7162 45.1688C39.3438 45.091 38.9811 44.9708 38.6351 44.8103C38.2991 44.6564 37.982 44.4625 37.6906 44.2328L38.2409 43.1774C38.3607 43.2937 38.4914 43.3978 38.6312 43.488C38.8277 43.6137 39.034 43.7229 39.2478 43.8146C39.5 43.9244 39.7612 44.011 40.0284 44.0735C40.3067 44.1439 40.5925 44.1787 40.8792 44.1771C41.2637 44.2016 41.6471 44.1132 41.9838 43.9222C42.0895 43.8474 42.1782 43.7502 42.2435 43.6371C42.3089 43.5241 42.3495 43.3979 42.3625 43.2673C42.3755 43.1367 42.3605 43.0047 42.3188 42.8806C42.277 42.7564 42.2093 42.643 42.1204 42.5481C41.9081 42.3653 41.6609 42.2297 41.3944 42.1498C41.0783 42.0383 40.6997 41.9268 40.2626 41.8193C39.8284 41.7059 39.4051 41.5526 38.998 41.3612C38.6908 41.2259 38.427 41.0051 38.237 40.724C38.0576 40.4251 37.9693 40.0785 37.9833 39.7283C37.9692 39.2657 38.0975 38.8103 38.3501 38.4259C38.6016 38.0682 38.9484 37.7917 39.3493 37.6294C39.8005 37.4435 40.2835 37.3515 40.77 37.3585C41.1011 37.3577 41.4312 37.3965 41.7535 37.474C42.0518 37.5494 42.3421 37.6548 42.62 37.7887C42.8818 37.9135 43.1303 38.0657 43.3615 38.2427L42.8112 39.2384Z" fill="#323232"/>
<path d="M51.7098 37.3984V45.2245H50.4921V41.7754H46.6243V45.2245H45.4144V37.3984H46.6243V40.6603H50.4921V37.3864L51.7098 37.3984Z" fill="#323232"/>
<path d="M3.53998 46.4034H4.67573L5.62413 49.0599L6.58426 46.4034H7.72001L6.40082 49.8884L7.54828 52.7639L9.93296 46.3915H11.2639L8.12201 54.2017H7.07602L5.63975 50.6969L4.19176 54.2017H3.14968L0.0273438 46.3755H1.34653L3.74293 52.748L4.89039 49.8724L3.53998 46.4034Z" fill="#323232"/>
<path d="M17.9807 53.1064V54.2017H12.7118V46.3715H17.8754V47.4628H13.9217V49.6892H17.3485V50.7128H13.9217V53.1024L17.9807 53.1064Z" fill="#323232"/>
<path d="M19.7683 54.2017V46.3715H22.5004C23.2253 46.3455 23.9429 46.5262 24.5728 46.8933C25.1158 47.2296 25.5501 47.7212 25.8217 48.3072C26.1049 48.9224 26.2477 49.5951 26.2394 50.2747C26.2546 50.9931 26.0964 51.7044 25.7788 52.3457C25.4855 52.9207 25.0337 53.3956 24.4791 53.7118C23.8721 54.0465 23.1901 54.214 22.5004 54.1977L19.7683 54.2017ZM25.006 50.2747C25.0168 49.7708 24.9154 49.271 24.7094 48.813C24.5167 48.4061 24.2132 48.0645 23.8352 47.8292C23.4268 47.5795 22.9566 47.4551 22.4808 47.4708H20.9704V53.1144H22.4808C22.9623 53.1293 23.4375 52.9991 23.8469 52.74C24.2179 52.4903 24.5116 52.1381 24.6938 51.7244C24.9022 51.2708 25.0089 50.7756 25.006 50.2747V50.2747Z" fill="#323232"/>
<path d="M28.0386 54.2017V46.3715H30.7706C31.4955 46.3455 32.2132 46.5262 32.8431 46.8933C33.3861 47.2296 33.8204 47.7212 34.092 48.3072C34.3739 48.9226 34.5154 49.5953 34.5057 50.2747C34.5222 50.9928 34.3654 51.704 34.0491 52.3457C33.7543 52.921 33.3012 53.3959 32.7455 53.7118C32.14 54.0469 31.4592 54.2144 30.7706 54.1977L28.0386 54.2017ZM33.2685 50.2786C33.2793 49.7748 33.1779 49.275 32.9719 48.817C32.7857 48.4098 32.4891 48.0656 32.1171 47.8253C31.7085 47.5761 31.2385 47.4517 30.7628 47.4668H29.2524V53.1104H30.7628C31.2443 53.1253 31.7194 52.9951 32.1288 52.736C32.4989 52.4852 32.7924 52.1333 32.9758 51.7204C33.1769 51.2665 33.2768 50.7727 33.2685 50.2747V50.2786Z" fill="#323232"/>
<path d="M36.3245 54.2017V46.3715H37.5344V54.2017H36.3245Z" fill="#323232"/>
<path d="M41.0081 48.6656V54.2017H39.7982V46.3715H40.7934L45.1335 52.0271V46.3835H46.3551V54.2017H45.3013L41.0081 48.6656Z" fill="#323232"/>
<path d="M51.7488 54.2535C51.2588 54.2565 50.7744 54.1462 50.3321 53.9309C49.8953 53.7194 49.505 53.42 49.1846 53.0507C48.8511 52.6759 48.5867 52.2428 48.404 51.7722C48.2198 51.2871 48.1271 50.7709 48.1308 50.2508C48.1264 49.7344 48.2191 49.222 48.404 48.7413C48.5879 48.2772 48.8523 47.8509 49.1846 47.4827C49.7461 46.8805 50.4875 46.4853 51.2927 46.3592C52.0979 46.233 52.9213 46.3831 53.634 46.7857C54.1179 47.0805 54.5092 47.5103 54.7619 48.0244L53.833 48.7094C53.6522 48.3057 53.3519 47.97 52.9744 47.7496C52.6043 47.5362 52.1856 47.4263 51.7606 47.4309C51.4192 47.4257 51.0817 47.5049 50.777 47.6619C50.4815 47.8144 50.2218 48.0305 50.0159 48.2952C49.7995 48.5661 49.6365 48.8772 49.5359 49.2112C49.4256 49.5572 49.3702 49.9189 49.372 50.2826C49.3696 50.6624 49.4317 51.0396 49.5554 51.3978C49.6719 51.7307 49.8479 52.0386 50.0745 52.3059C50.2906 52.5629 50.5563 52.7717 50.8551 52.9192C51.1625 53.067 51.4988 53.1419 51.8386 53.1383C52.2579 53.1385 52.6699 53.0258 53.0329 52.8117C53.4463 52.5627 53.8072 52.2323 54.0945 51.8399V53.0945C53.8118 53.4526 53.4548 53.7423 53.0492 53.9427C52.6436 54.1431 52.1995 54.2492 51.7488 54.2535V54.2535ZM53.9852 51.1548H52.3733V50.2388H55V54.2017H53.9852V51.1548Z" fill="#323232"/>
<path d="M34.7399 26.2187C33.4403 26.2187 32.4645 25.7567 31.8401 24.8526C31.285 23.9269 31.0233 22.849 31.0907 21.7659C29.9511 23.7812 28.6826 23.9883 28.0269 23.9326C27.5276 23.8654 27.0576 23.6538 26.6724 23.3228C26.2872 22.9918 26.0029 22.5552 25.853 22.0646C25.2793 20.4715 25.6305 18.273 26.9575 15.1107C27.1058 14.7562 27.2619 14.3978 27.422 14.0393C28.0425 12.6135 28.6904 11.1438 28.6982 10.1282V9.99281C28.7255 8.4674 28.4406 7.44383 26.977 7.39603C25.7827 7.35621 24.3152 8.51519 23.4644 9.3237C25.2285 10.7535 25.9623 13.422 25.2597 16.0944C24.6158 18.5399 22.6448 21.1366 19.0151 21.0888C16.7592 21.061 14.6282 19.8183 13.1607 17.6756C11.5371 15.2859 11.0726 12.259 11.9469 9.73393C12.6533 7.69872 13.8125 6.30873 15.3892 5.59581C16.4286 5.14952 17.5623 4.98092 18.6833 5.10593C18.3312 4.75054 18.0641 4.31716 17.9027 3.83941C17.8187 3.81995 17.7365 3.7933 17.6568 3.75975C17.2665 3.57256 16.8489 3.36147 16.4157 3.11056C14.9638 2.314 13.3168 1.39 10.7057 1.29441C7.33751 1.17094 5.37434 2.88752 5.30799 3.32563C5.29831 3.44738 5.32071 3.56955 5.37286 3.67949C5.42502 3.78943 5.50503 3.88315 5.60461 3.95092C5.74087 4.01961 5.84561 4.13968 5.89669 4.28574C5.94777 4.4318 5.94119 4.59241 5.87834 4.73361C5.81549 4.87481 5.7013 4.98554 5.5599 5.04238C5.41851 5.09923 5.26099 5.09774 5.12065 5.03822C4.81402 4.87468 4.55897 4.62598 4.38494 4.32083C4.21091 4.01568 4.12499 3.66653 4.13711 3.31368C4.19241 2.80784 4.4423 2.34512 4.83183 2.02724C5.79585 1.07934 7.92685 0.00398595 10.7604 0.111521C13.5939 0.219056 15.4985 1.24661 17.0051 2.07105L17.731 2.46933C17.731 1.02756 18.9019 0.151349 20.0728 0.027883C21.0719 -0.0756694 21.8486 0.402264 21.9618 1.19086C22.0395 1.57787 22.0073 1.97947 21.869 2.34846C21.7307 2.71745 21.4921 3.03849 21.1812 3.27385C20.6214 3.66573 19.9662 3.89181 19.2883 3.92703C19.6896 4.45998 20.1566 4.93788 20.6777 5.34888L21.1343 5.74716C21.2371 5.84146 21.3039 5.96985 21.3229 6.10957C21.3418 6.2493 21.3117 6.39136 21.2378 6.5106C21.164 6.62984 21.0512 6.71857 20.9194 6.76108C20.7876 6.80358 20.6453 6.79713 20.5177 6.74285C20.4943 6.74285 18.051 5.7153 15.8927 6.69506C14.6282 7.26858 13.6837 8.42359 13.0904 10.1362C12.3372 12.2988 12.747 14.9155 14.1598 16.9945C15.401 18.8147 17.1885 19.8701 19.0619 19.894H19.136C22.0554 19.894 23.6517 17.7792 24.1747 15.7838C24.6977 13.7884 24.3426 11.0921 22.313 9.9251C22.236 9.88175 22.1696 9.82112 22.1189 9.74781C22.0682 9.67449 22.0344 9.59038 22.0201 9.50181C22.0058 9.41324 22.0114 9.32253 22.0365 9.23648C22.0615 9.15044 22.1054 9.07132 22.1647 9.00508C22.2701 8.88559 24.7797 6.10959 27.059 6.19323C29.9784 6.28882 29.9315 9.08473 29.9159 10.0048V10.1402C29.9159 11.4027 29.2407 12.9281 28.5343 14.5212C28.3821 14.8757 28.226 15.2302 28.0816 15.5767C26.9107 18.4005 26.5399 20.3839 26.9965 21.6425C27.0715 21.9186 27.2211 22.1677 27.4281 22.3614C27.6351 22.555 27.8913 22.6854 28.1674 22.7377C28.8153 22.7935 29.5295 22.212 30.1189 21.1446C30.8313 19.8912 31.4422 18.5805 31.9454 17.2255C32.0352 16.9428 32.0977 16.7675 32.1133 16.7277C32.165 16.5777 32.2731 16.4548 32.4136 16.3861C32.5541 16.3174 32.7156 16.3085 32.8626 16.3613C33.0096 16.4141 33.13 16.5243 33.1974 16.6677C33.2647 16.8111 33.2735 16.976 33.2217 17.126C33.2217 17.1539 33.1515 17.357 33.0266 17.7035C32.4958 19.3762 31.7776 22.6541 32.8275 24.1715C33.2412 24.765 33.9008 25.0477 34.857 25.0318C36.6875 24.996 38.877 24.3786 41.2344 20.0613C41.332 19.8821 41.4296 19.6869 41.5349 19.4679C39.0839 18.7748 37.1793 16.6321 36.2465 13.4937C35.2161 10.0048 35.6883 6.32466 37.3705 4.69969C38.0301 4.07041 39.1815 3.46104 40.9144 4.12617C41.664 4.41205 42.3411 4.86611 42.8957 5.45482C43.4503 6.04352 43.8683 6.75184 44.1187 7.52746C45.3364 10.9168 44.2982 15.5528 43.1937 18.5319C44.2199 18.5234 45.2374 18.3376 46.2028 17.9823C47.3113 17.6358 48.3611 17.3092 49.5671 17.584C50.5038 17.7871 51.0815 18.1973 51.2844 18.8067C51.5733 19.6829 50.9176 20.4954 50.8434 20.587C50.7933 20.6468 50.7321 20.6959 50.6633 20.7314C50.5945 20.767 50.5196 20.7884 50.4427 20.7943C50.3658 20.8002 50.2885 20.7906 50.2153 20.7659C50.1421 20.7413 50.0743 20.7022 50.016 20.6507C49.8991 20.5482 49.8268 20.4026 49.8151 20.2457C49.8034 20.0889 49.8532 19.9338 49.9535 19.8144C50.0589 19.6829 50.2345 19.3643 50.1721 19.1891C50.1097 19.0138 49.8833 18.8744 49.3252 18.7509C48.4119 18.5558 47.5454 18.8266 46.5424 19.1492C45.3219 19.6105 44.0206 19.8072 42.7214 19.7267C42.5575 20.0931 42.4014 20.4158 42.257 20.6786C40.1806 24.4822 37.9052 26.2027 34.8765 26.2545L34.7399 26.2187ZM39.4469 5.02229C38.9557 5.01763 38.4823 5.20917 38.1277 5.55599C36.7968 6.82649 36.4455 10.1521 37.3276 13.1233C37.7179 14.4734 38.959 17.5999 41.9604 18.3447C43.0688 15.4851 44.0757 10.9766 42.9751 7.91379C42.7823 7.30094 42.457 6.74011 42.0233 6.27272C41.5896 5.80534 41.0586 5.44334 40.4694 5.21347C40.1429 5.08646 39.7963 5.02166 39.4469 5.02229ZM20.3225 1.19484H20.1742C19.7098 1.24263 18.8433 1.59312 18.898 2.54102C18.898 2.60474 18.898 2.66847 18.898 2.72821C19.4506 2.7395 19.994 2.58284 20.4591 2.27815C20.5945 2.16881 20.6962 2.02211 20.7523 1.85549C20.8083 1.68887 20.8163 1.50933 20.7753 1.33822C20.7597 1.27847 20.5762 1.19484 20.3225 1.19484Z" fill="#323232"/>
</g>
<defs>
<clipPath id="clip0">
<rect width="55" height="62" fill="white"/>
</clipPath>
</defs>
</svg>
