<svg width="110" height="45" viewBox="0 0 110 45" fill="none" xmlns="http://www.w3.org/2000/svg">
<path d="M12.6666 5.77109C11.7496 6.71498 10.9777 7.39982 10.3508 7.82559C9.72916 8.25137 9.19297 8.46426 8.74226 8.46426C8.47286 8.46426 8.26046 8.36679 8.10504 8.17186C7.9548 7.9718 7.87969 7.70248 7.87969 7.36391C7.87969 7.03047 7.94962 6.66625 8.0895 6.27125C8.23456 5.87625 8.44696 5.46073 8.72671 5.02469C8.89767 4.75281 9.15152 4.37833 9.48826 3.90126C10.2291 2.83937 10.5995 2.08016 10.5995 1.6236C10.5995 1.22347 10.4467 0.910549 10.141 0.684836C9.84054 0.459122 9.42091 0.346265 8.88213 0.346265C8.32781 0.346265 7.73463 0.464252 7.1026 0.700225C6.47574 0.931069 5.9007 1.24912 5.37746 1.65438C4.90602 2.0186 4.53043 2.4136 4.25068 2.83937C3.97611 3.26515 3.83882 3.65246 3.83882 4.00129C3.83882 4.35012 3.94502 4.622 4.15743 4.81693C4.37501 5.01187 4.67549 5.10934 5.05885 5.10934C5.70643 5.10934 6.35659 4.87336 7.00935 4.40142C7.6621 3.92947 8.15426 3.33441 8.48582 2.61623C8.63087 2.29818 8.75003 1.96986 8.84328 1.63129C8.93653 1.29272 9.00129 1.12344 9.03755 1.12344C9.06345 1.12344 9.08677 1.15422 9.10749 1.21578C9.12821 1.27733 9.13857 1.34915 9.13857 1.43123C9.13857 1.70824 9.09713 2.02116 9.01424 2.36999C8.93135 2.71369 8.81737 3.03174 8.67232 3.32415C8.32004 4.08336 7.85896 4.66047 7.2891 5.05547C6.72441 5.44534 6.07166 5.64028 5.33083 5.64028C4.80759 5.64028 4.38278 5.5069 4.05641 5.24015C3.73003 4.96826 3.56684 4.6143 3.56684 4.17827C3.56684 3.70632 3.72485 3.22668 4.04086 2.73934C4.35688 2.25201 4.80759 1.79545 5.393 1.36967C5.93178 0.990062 6.5146 0.69253 7.14145 0.477077C7.77348 0.256493 8.35889 0.146201 8.89767 0.146201C9.59187 0.146201 10.1332 0.336006 10.5218 0.715615C10.9155 1.09009 11.1124 1.61334 11.1124 2.28535C11.1124 2.92658 10.7549 3.7884 10.04 4.8708C9.83795 5.17859 9.68512 5.41456 9.58151 5.57872L9.44164 5.80956C8.77334 6.89196 8.43919 7.54602 8.43919 7.77173C8.43919 7.91024 8.47027 8.01027 8.53244 8.07183C8.59979 8.13339 8.70599 8.16416 8.85105 8.16416C9.43127 8.16416 10.1151 7.8179 10.9026 7.12537C11.6952 6.43284 12.7728 5.2145 14.1353 3.47035C14.8709 2.51106 15.6739 1.69285 16.5442 1.01571C17.4198 0.33857 18.0052 0 18.3005 0C18.3574 0 18.4067 0.0153896 18.4481 0.0461687C18.4895 0.071818 18.5103 0.105162 18.5103 0.146201C18.5103 0.259058 18.3497 0.374479 18.0285 0.492466C17.8679 0.554024 17.741 0.605323 17.6477 0.646362C17.2125 0.841296 16.8059 1.12857 16.4277 1.50818C16.0547 1.88266 15.6868 2.37769 15.3242 2.99327C14.9978 3.55242 14.4746 4.53992 13.7545 5.95576C13.0344 7.3716 12.4282 8.44887 11.9361 9.18757C10.9829 10.6393 9.88717 11.7192 8.649 12.4271C7.41084 13.135 5.99913 13.489 4.41387 13.489C3.07209 13.489 1.99971 13.2017 1.19672 12.6271C0.398906 12.0577 0 11.3011 0 10.3572C0 9.31069 0.429989 8.41553 1.28997 7.6717C2.14995 6.92787 3.20161 6.55596 4.44495 6.55596C5.35674 6.55596 6.08461 6.77397 6.62857 7.21001C7.17772 7.64092 7.45229 8.21546 7.45229 8.93364C7.45229 9.71338 7.12591 10.3674 6.47315 10.8958C5.82558 11.4191 5.02 11.6807 4.05641 11.6807C3.73521 11.6807 3.46582 11.6499 3.24823 11.5883C3.03583 11.5319 2.92963 11.4627 2.92963 11.3806C2.92963 11.3652 2.93481 11.3549 2.94517 11.3498C2.95553 11.3395 2.98143 11.3344 3.02288 11.3344C3.04878 11.3344 3.17571 11.3524 3.40365 11.3883C3.63678 11.4242 3.85436 11.4421 4.05641 11.4421C4.91639 11.4421 5.64167 11.2139 6.23226 10.7573C6.82284 10.2956 7.11814 9.73134 7.11814 9.06445C7.11814 8.48478 6.89537 8.02566 6.44984 7.68709C6.00949 7.34339 5.40854 7.17154 4.64699 7.17154C4.13412 7.17154 3.62901 7.25875 3.13167 7.43316C2.63951 7.60758 2.18621 7.85637 1.77176 8.17955C1.33141 8.51812 0.997265 8.88491 0.769318 9.27991C0.546553 9.67491 0.43517 10.0853 0.43517 10.5111C0.43517 11.3165 0.792631 11.9782 1.50755 12.4963C2.22248 13.0144 3.15239 13.2735 4.2973 13.2735C6.02762 13.2735 7.5015 12.7426 8.71894 11.6807C9.93638 10.6239 11.2523 8.65407 12.6666 5.77109Z" fill="#323232"/>
<path d="M14.4927 10.7188C14.4927 10.9086 14.5316 11.0497 14.6093 11.142C14.6922 11.2344 14.8165 11.2806 14.9823 11.2806C15.1584 11.2806 15.3838 11.1959 15.6584 11.0266C15.9381 10.8522 16.2127 10.6239 16.4821 10.3418C16.8292 9.97244 17.1037 9.58257 17.3058 9.17218C17.5078 8.75666 17.6088 8.37962 17.6088 8.04105C17.6088 7.79482 17.5544 7.60245 17.4457 7.46394C17.342 7.3203 17.1944 7.24849 17.0027 7.24849C16.7644 7.24849 16.5106 7.35621 16.2412 7.57167C15.9718 7.78199 15.6843 8.10004 15.3786 8.52582C15.0988 8.92082 14.8813 9.31325 14.7258 9.70312C14.5704 10.093 14.4927 10.4316 14.4927 10.7188ZM17.1659 10.0263C17.1763 10.0263 17.1996 10.0314 17.2358 10.0417C17.3136 10.0622 17.3757 10.0725 17.4223 10.0725C17.6296 10.0725 17.8497 10.0109 18.0829 9.8878C18.3212 9.76468 18.5414 9.59539 18.7434 9.37994L18.9454 9.1414C18.9558 9.13114 18.9739 9.12088 18.9998 9.11062C19.0309 9.10036 19.0568 9.09523 19.0775 9.09523C19.0983 9.09523 19.1138 9.10293 19.1242 9.11832C19.1345 9.13371 19.1397 9.15679 19.1397 9.18757C19.1397 9.21322 19.1371 9.23117 19.1319 9.24143C19.1319 9.25169 19.1294 9.25939 19.1242 9.26452L18.9454 9.47228C18.7279 9.7339 18.4766 9.93653 18.1917 10.0802C17.9119 10.2187 17.6218 10.2879 17.3213 10.2879C17.2333 10.2879 17.1607 10.2854 17.1037 10.2802C17.0519 10.2751 17.0053 10.27 16.9639 10.2648C16.5857 10.6701 16.2127 10.983 15.8449 11.2036C15.4822 11.4242 15.1532 11.5345 14.8579 11.5345C14.516 11.5345 14.2518 11.3934 14.0653 11.1113C13.884 10.8291 13.7933 10.4239 13.7933 9.89549C13.7933 9.79802 13.8037 9.6903 13.8244 9.57231C13.8451 9.45432 13.8762 9.32095 13.9177 9.17218C13.8296 9.28504 13.7571 9.36712 13.7001 9.41841C13.6483 9.46458 13.6042 9.48767 13.568 9.48767C13.5421 9.48767 13.5239 9.4851 13.5136 9.47997C13.498 9.46971 13.4903 9.45176 13.4903 9.42611C13.4903 9.39533 13.5291 9.32864 13.6068 9.22604C13.6897 9.12345 13.8685 8.92082 14.143 8.61816C14.6196 8.10517 15.104 7.70504 15.5962 7.41777C16.0883 7.12537 16.5365 6.97917 16.9405 6.97917C17.2773 6.97917 17.5441 7.08177 17.741 7.28696C17.9378 7.49215 18.0362 7.76917 18.0362 8.118C18.0362 8.38988 17.9663 8.67715 17.8264 8.97981C17.6917 9.28247 17.4716 9.6313 17.1659 10.0263Z" fill="#323232"/>
<path d="M22.8464 10.0879L22.8231 10.1263C22.5434 10.5675 22.4035 10.865 22.4035 11.0189C22.4035 11.1113 22.4242 11.1831 22.4657 11.2344C22.5071 11.2806 22.5693 11.3036 22.6522 11.3036C22.792 11.3036 22.9967 11.1985 23.2661 10.9882C23.5406 10.7727 23.911 10.429 24.3773 9.95705C24.5068 9.8288 24.6467 9.67491 24.7969 9.49536C24.9523 9.31069 25.056 9.21835 25.1078 9.21835C25.1337 9.21835 25.1544 9.22604 25.1699 9.24143C25.1906 9.25169 25.201 9.26452 25.201 9.27991C25.201 9.33121 25.1622 9.40559 25.0844 9.50306C25.0119 9.60052 24.8435 9.7852 24.5793 10.0571C24.1131 10.5444 23.7142 10.9138 23.3826 11.1651C23.0562 11.4114 22.8076 11.5345 22.6366 11.5345C22.4138 11.5345 22.2325 11.437 22.0927 11.2421C21.958 11.042 21.8906 10.783 21.8906 10.4649C21.8906 10.4085 21.8958 10.3444 21.9061 10.2725C21.9165 10.2007 21.9321 10.1135 21.9528 10.0109C21.528 10.4982 21.1342 10.8753 20.7716 11.142C20.4141 11.4037 20.1137 11.5345 19.8702 11.5345C19.606 11.5345 19.3936 11.4447 19.233 11.2652C19.0724 11.0856 18.9921 10.8445 18.9921 10.5419C18.9921 10.1263 19.3832 9.3389 20.1655 8.17955L20.282 8.01027C19.9971 8.28728 19.6992 8.60277 19.3884 8.95673C19.0775 9.31069 18.8936 9.48767 18.8366 9.48767C18.8159 9.48767 18.7978 9.4851 18.7823 9.47997C18.7667 9.46971 18.7589 9.45689 18.7589 9.4415C18.7589 9.37994 18.9273 9.15936 19.264 8.77975C19.6008 8.39501 20.1059 7.85381 20.7794 7.15615L21.9217 7.09459L20.3442 9.53384L20.2432 9.69543C19.7925 10.4085 19.5671 10.8496 19.5671 11.0189C19.5671 11.0959 19.5904 11.1626 19.637 11.219C19.6889 11.2754 19.751 11.3036 19.8235 11.3036C20.2484 11.3036 20.8027 10.9394 21.4865 10.211C22.1704 9.47741 22.9034 8.45913 23.6857 7.15615L24.7581 7.09459L22.8464 10.0879Z" fill="#323232"/>
<path d="M25.2943 11.4575L27.3613 8.4027L27.4235 8.30267C27.7188 7.87176 27.8664 7.58962 27.8664 7.45624C27.8664 7.38443 27.8483 7.33313 27.812 7.30235C27.7809 7.26644 27.7265 7.24849 27.6488 7.24849C27.4779 7.24849 27.2551 7.35621 26.9805 7.57167C26.7112 7.78712 26.3122 8.17442 25.7838 8.73358C25.675 8.84644 25.5455 8.99264 25.3953 9.17218C25.214 9.39277 25.0948 9.50306 25.0378 9.50306C25.0171 9.50306 24.999 9.49793 24.9834 9.48767C24.9679 9.47228 24.9601 9.45689 24.9601 9.4415C24.9601 9.40046 24.986 9.34403 25.0378 9.27221C25.0844 9.2004 25.1803 9.08241 25.3253 8.91825L25.8305 8.37192C26.3433 7.82816 26.7293 7.46394 26.9883 7.27926C27.2525 7.08946 27.4934 6.99456 27.711 6.99456C27.8923 6.99456 28.04 7.05868 28.1539 7.18693C28.2731 7.31517 28.3327 7.47676 28.3327 7.6717C28.3327 7.92306 28.2835 8.17955 28.185 8.44118C28.0918 8.7028 27.8871 9.0978 27.5711 9.62617L27.5867 9.61078C28.1617 9.06189 28.6124 8.64894 28.9388 8.37192C29.1409 7.83842 29.3351 7.47676 29.5216 7.28696C29.7133 7.09203 29.9542 6.99456 30.2443 6.99456C30.3479 6.99456 30.4334 7.02021 30.5008 7.07151C30.5733 7.11767 30.6096 7.17667 30.6096 7.24849C30.6096 7.42803 30.3013 7.74352 29.6848 8.19494C29.5812 8.27189 29.5009 8.33089 29.4439 8.37192C29.2108 8.54121 29.0424 8.71819 28.9388 8.90286C28.8404 9.08754 28.7912 9.29786 28.7912 9.53384C28.7912 9.66208 28.8274 9.76468 28.9 9.84163C28.9777 9.91858 29.0735 9.95705 29.1875 9.95705C29.4517 9.95705 29.7185 9.83137 29.9879 9.58C30.2573 9.32864 30.3946 9.20296 30.3997 9.20296C30.4308 9.20809 30.4541 9.21835 30.4697 9.23374C30.4852 9.244 30.493 9.25939 30.493 9.27991C30.493 9.40302 30.3402 9.58257 30.0345 9.81854C29.734 10.0494 29.4646 10.1648 29.2263 10.1648C29.0087 10.1648 28.843 10.1135 28.729 10.0109C28.615 9.90319 28.558 9.74929 28.558 9.54923C28.558 9.47228 28.5736 9.37481 28.6047 9.25682C28.6357 9.13884 28.6875 8.98494 28.7601 8.79514C28.4441 9.05676 28.0944 9.39533 27.711 9.81085C27.3328 10.2212 26.8977 10.7342 26.4055 11.3498L25.2943 11.4575Z" fill="#323232"/>
<path d="M65.8928 27.5473C64.9389 28.2435 63.9849 29.0281 63.0309 29.9011C62.077 30.7741 61.0898 31.7659 60.0693 32.8765C59.8696 33.092 59.584 33.4014 59.2124 33.8048C57.5263 35.6502 56.3921 36.8078 55.8098 37.2775C55.1608 37.7968 54.5313 38.1781 53.9213 38.4212C53.3167 38.6643 52.69 38.7859 52.0411 38.7859C50.832 38.7859 49.8531 38.4654 49.1044 37.8245C48.3612 37.1835 47.9896 36.3492 47.9896 35.3215C47.9896 34.2661 48.4194 33.3793 49.2791 32.661C50.1387 31.9372 51.1953 31.5753 52.4487 31.5753C53.4082 31.5753 54.1903 31.8184 54.7948 32.3046C55.3993 32.7909 55.7016 33.4125 55.7016 34.1694C55.7016 34.9651 55.3633 35.6447 54.6866 36.2083C54.0155 36.7719 53.1808 37.0537 52.1825 37.0537C51.5946 37.0537 51.0372 36.9432 50.5103 36.7222C49.989 36.4956 49.7283 36.3022 49.7283 36.142C49.7283 36.1033 49.7311 36.0757 49.7366 36.0591C49.7477 36.0425 49.7671 36.0343 49.7949 36.0343C49.817 36.0343 49.8836 36.0702 49.9945 36.142C50.7155 36.6061 51.4671 36.8382 52.2491 36.8382C53.1087 36.8382 53.8381 36.6006 54.4371 36.1254C55.0416 35.6447 55.3439 35.0784 55.3439 34.4264C55.3439 33.8075 55.0832 33.3047 54.5618 32.918C54.0461 32.5312 53.3583 32.3378 52.4987 32.3378C51.2563 32.3378 50.2441 32.6334 49.4621 33.2246C48.6856 33.8158 48.2974 34.5728 48.2974 35.4955C48.2974 36.3685 48.644 37.0951 49.3373 37.6753C50.0306 38.2554 50.9152 38.5455 51.9912 38.5455C52.69 38.5455 53.3417 38.4184 53.9462 38.1643C54.5508 37.9101 55.1997 37.4847 55.8929 36.8879C56.4753 36.3851 57.3766 35.4624 58.5967 34.1197C59.8169 32.7715 60.7736 31.7521 61.4669 31.0614C62.6871 29.8459 63.8268 28.8181 64.8862 27.9783C65.9455 27.1384 66.5889 26.7185 66.8163 26.7185C66.8273 26.7185 66.8384 26.7268 66.8495 26.7434C66.8606 26.7544 66.8662 26.7682 66.8662 26.7848C66.8662 26.8953 66.7386 27.0832 66.4835 27.3484C66.367 27.4644 66.2783 27.5556 66.2173 27.6219C65.9011 27.97 65.5434 28.4231 65.1441 28.9811C64.7447 29.5337 64.2567 30.263 63.6799 31.1692C62.6926 32.7052 61.8912 34.0672 61.2756 35.2552C60.6655 36.4376 60.3604 37.1835 60.3604 37.4929C60.3604 37.5427 60.366 37.5758 60.3771 37.5924C60.3882 37.609 60.4048 37.6173 60.427 37.6173C60.6211 37.6173 61.3837 36.8106 62.7148 35.1972C64.0515 33.5838 65.2411 32.1941 66.2838 31.0283C67.4541 29.7298 68.4579 28.6911 69.2954 27.912C70.1384 27.1274 70.6681 26.7351 70.8844 26.7351C70.8955 26.7351 70.9038 26.7378 70.9094 26.7434C70.9149 26.7489 70.9177 26.7627 70.9177 26.7848C70.9177 26.8566 70.6626 27.2821 70.1523 28.0612C69.6143 28.8734 69.1595 29.5696 68.7879 30.1498C67.6288 31.9786 66.7109 33.6003 66.0342 35.0148C65.3631 36.4238 65.0276 37.4101 65.0276 37.9737C65.0276 38.0842 65.0664 38.1809 65.1441 38.2637C65.2273 38.3411 65.3243 38.3798 65.4352 38.3798C65.6959 38.3798 66.0093 38.2527 66.3753 37.9985C66.7469 37.7443 67.1657 37.3631 67.6315 36.8548C67.6926 36.7885 67.7647 36.7028 67.8479 36.5978C68.0087 36.4155 68.1141 36.3243 68.164 36.3243C68.1862 36.3243 68.2084 36.3354 68.2305 36.3575C68.2527 36.3741 68.2638 36.3906 68.2638 36.4072C68.2638 36.4625 68.2167 36.5509 68.1224 36.6724C68.0281 36.7885 67.8589 36.9736 67.6149 37.2277C67.0769 37.7692 66.611 38.1643 66.2173 38.4129C65.8235 38.6616 65.4657 38.7859 65.1441 38.7859C64.8113 38.7859 64.5395 38.6588 64.3288 38.4046C64.1236 38.1449 64.021 37.8079 64.021 37.3935C64.021 36.4818 64.4591 35.2883 65.3354 33.8131C66.2117 32.3323 67.6426 30.3873 69.6282 27.9783C69.0347 28.4479 68.3193 29.1331 67.4818 30.0337C66.6443 30.9344 65.438 32.324 63.8629 34.2026C63.6133 34.5065 63.2667 34.9264 62.823 35.4624C61.0648 37.5896 59.975 38.6533 59.5535 38.6533C59.3926 38.6533 59.2678 38.5814 59.1791 38.4378C59.0903 38.2886 59.046 38.0759 59.046 37.7996C59.046 36.8492 59.6588 35.4486 60.8846 33.5976C62.1103 31.7411 63.7797 29.7243 65.8928 27.5473Z" fill="#323232"/>
<path d="M69.0209 37.9902C69.0209 38.1505 69.0569 38.2775 69.129 38.3715C69.2011 38.4654 69.301 38.5124 69.4285 38.5124C69.6171 38.5124 69.85 38.4184 70.1274 38.2306C70.4102 38.0427 70.7042 37.7803 71.0092 37.4432C71.4695 36.9404 71.8245 36.4514 72.0741 35.9762C72.3292 35.4955 72.4568 35.0811 72.4568 34.733C72.4568 34.5838 72.4013 34.4595 72.2904 34.3601C72.185 34.2551 72.0547 34.2026 71.8994 34.2026C71.6221 34.2026 71.3198 34.3242 70.9926 34.5673C70.6653 34.8049 70.3409 35.1419 70.0192 35.5784C69.7086 36.0149 69.4646 36.4514 69.2871 36.8879C69.1096 37.3244 69.0209 37.6919 69.0209 37.9902ZM72.6648 35.106L73.3636 34.0866L74.4867 34.0203L72.6148 36.9542C72.3375 37.3852 72.1628 37.6836 72.0907 37.8493C72.0186 38.0151 71.9826 38.1588 71.9826 38.2803C71.9826 38.3742 72.002 38.4433 72.0408 38.4875C72.0796 38.5262 72.1462 38.5455 72.2405 38.5455C72.3847 38.5455 72.6093 38.4267 72.9143 38.1891C73.2249 37.946 73.6132 37.5841 74.079 37.1034C74.2122 36.9708 74.3647 36.8078 74.5366 36.6144C74.7141 36.421 74.8222 36.3243 74.8611 36.3243C74.8943 36.3243 74.9193 36.3299 74.9359 36.3409C74.9526 36.352 74.9609 36.3685 74.9609 36.3906C74.9609 36.4514 74.8971 36.5592 74.7696 36.7139C74.642 36.8686 74.4451 37.0785 74.1789 37.3438C73.5799 37.9571 73.1362 38.3577 72.8478 38.5455C72.5649 38.7279 72.2987 38.819 72.0491 38.819C71.8217 38.819 71.647 38.7472 71.525 38.6035C71.4085 38.4599 71.3503 38.2499 71.3503 37.9737C71.3503 37.9018 71.3558 37.8217 71.3669 37.7333C71.378 37.6394 71.4002 37.504 71.4335 37.3272C71.0453 37.8189 70.6681 38.1919 70.3021 38.4461C69.9416 38.6947 69.6032 38.819 69.2871 38.819C68.9821 38.819 68.7408 38.6671 68.5633 38.3632C68.3914 38.0538 68.3054 37.6283 68.3054 37.0868C68.3054 36.9542 68.3137 36.8216 68.3304 36.689C68.3526 36.5564 68.3803 36.4266 68.4136 36.2995C68.347 36.4045 68.2832 36.4873 68.2222 36.5481C68.1612 36.6034 68.1085 36.631 68.0642 36.631C68.0253 36.631 68.0004 36.6255 67.9893 36.6144C67.9726 36.6034 67.9643 36.5868 67.9643 36.5647C67.9643 36.5205 68.0364 36.4127 68.1806 36.2415C68.3248 36.0702 68.5189 35.8602 68.763 35.6116C69.2954 35.0811 69.8279 34.6723 70.3603 34.3849C70.8983 34.0921 71.3891 33.9457 71.8328 33.9457C72.1046 33.9457 72.3209 34.0175 72.4817 34.1612C72.6481 34.3048 72.7313 34.4954 72.7313 34.733C72.7313 34.7883 72.7258 34.8463 72.7147 34.9071C72.7036 34.9679 72.6869 35.0342 72.6648 35.106Z" fill="#323232"/>
<path d="M77.2404 39.4158C76.0036 40.1285 75.0441 40.8247 74.3619 41.5044C73.6797 42.1895 73.3386 42.7835 73.3386 43.2863C73.3386 43.4741 73.3802 43.615 73.4634 43.709C73.5466 43.8084 73.6686 43.8582 73.8295 43.8582C74.251 43.8582 74.728 43.5128 75.2604 42.8221C75.7928 42.137 76.4528 41.0015 77.2404 39.4158ZM75.7429 37.9902C75.7429 38.1505 75.779 38.2775 75.8511 38.3715C75.9232 38.4654 76.023 38.5124 76.1506 38.5124C76.3391 38.5124 76.5721 38.4184 76.8494 38.2306C77.1322 38.0427 77.4262 37.7803 77.7312 37.4432C78.1916 36.9404 78.5465 36.4514 78.7961 35.9762C79.0512 35.4955 79.1788 35.0811 79.1788 34.733C79.1788 34.5838 79.1233 34.4595 79.0124 34.3601C78.907 34.2551 78.7767 34.2026 78.6214 34.2026C78.3441 34.2026 78.0418 34.3242 77.7146 34.5673C77.3874 34.8049 77.0629 35.1419 76.7412 35.5784C76.4306 36.0149 76.1866 36.4514 76.0091 36.8879C75.8317 37.3244 75.7429 37.6919 75.7429 37.9902ZM79.3868 35.106L80.0856 34.0866L81.1255 34.0203C80.6097 34.8546 80.1244 35.6723 79.6697 36.4735C79.2149 37.2692 78.7961 38.0344 78.4134 38.7693C79.1178 38.3162 79.7528 37.7968 80.3186 37.2112C80.8898 36.6199 81.1755 36.3243 81.1755 36.3243C81.2032 36.3243 81.2226 36.3326 81.2337 36.3492C81.2503 36.3658 81.2586 36.3851 81.2586 36.4072C81.2586 36.5619 80.9453 36.9376 80.3186 37.5344C79.6974 38.1256 78.9819 38.6671 78.1722 39.1588C77.3402 40.7391 76.5388 41.9574 75.7679 42.8139C74.9969 43.6703 74.3231 44.0985 73.7463 44.0985C73.4634 44.0985 73.2499 44.0267 73.1057 43.883C72.9559 43.7394 72.8811 43.5294 72.8811 43.2531C72.8811 42.7061 73.2277 42.1094 73.921 41.4629C74.6143 40.8164 75.7817 40.0153 77.4234 39.0594L78.297 37.1946C77.8033 37.7637 77.3763 38.1781 77.0158 38.4378C76.6553 38.6919 76.3197 38.819 76.0091 38.819C75.7041 38.819 75.4628 38.6671 75.2854 38.3632C75.1134 38.0538 75.0275 37.6283 75.0275 37.0868C75.0275 36.9542 75.0358 36.8216 75.0524 36.689C75.0746 36.5564 75.1023 36.4266 75.1356 36.2995C75.069 36.4045 75.0053 36.4873 74.9443 36.5481C74.8833 36.6034 74.8306 36.631 74.7862 36.631C74.7474 36.631 74.7224 36.6255 74.7113 36.6144C74.6947 36.6034 74.6864 36.5868 74.6864 36.5647C74.6864 36.5205 74.7585 36.4127 74.9027 36.2415C75.0469 36.0702 75.241 35.8602 75.485 35.6116C76.0175 35.0811 76.5499 34.6723 77.0823 34.3849C77.6203 34.0921 78.1112 33.9457 78.5549 33.9457C78.8266 33.9457 79.0429 34.0175 79.2038 34.1612C79.3702 34.3048 79.4533 34.4954 79.4533 34.733C79.4533 34.7883 79.4478 34.8463 79.4367 34.9071C79.4256 34.9679 79.409 35.0342 79.3868 35.106Z" fill="#323232"/>
<path d="M82.0323 37.9902C82.0323 38.1505 82.0684 38.2775 82.1405 38.3715C82.2126 38.4654 82.3124 38.5124 82.44 38.5124C82.6286 38.5124 82.8615 38.4184 83.1388 38.2306C83.4217 38.0427 83.7156 37.7803 84.0207 37.4432C84.481 36.9404 84.836 36.4514 85.0855 35.9762C85.3407 35.4955 85.4682 35.0811 85.4682 34.733C85.4682 34.5838 85.4128 34.4595 85.3019 34.3601C85.1965 34.2551 85.0661 34.2026 84.9108 34.2026C84.6335 34.2026 84.3313 34.3242 84.004 34.5673C83.6768 34.8049 83.3523 35.1419 83.0307 35.5784C82.7201 36.0149 82.476 36.4514 82.2986 36.8879C82.1211 37.3244 82.0323 37.6919 82.0323 37.9902ZM85.6762 35.106L86.375 34.0866L87.4982 34.0203L85.6263 36.9542C85.349 37.3852 85.1743 37.6836 85.1022 37.8493C85.0301 38.0151 84.994 38.1588 84.994 38.2803C84.994 38.3742 85.0134 38.4433 85.0523 38.4875C85.0911 38.5262 85.1576 38.5455 85.2519 38.5455C85.3961 38.5455 85.6208 38.4267 85.9258 38.1891C86.2364 37.946 86.6246 37.5841 87.0905 37.1034C87.2236 36.9708 87.3761 36.8078 87.5481 36.6144C87.7256 36.421 87.8337 36.3243 87.8725 36.3243C87.9058 36.3243 87.9308 36.3299 87.9474 36.3409C87.964 36.352 87.9724 36.3685 87.9724 36.3906C87.9724 36.4514 87.9086 36.5592 87.781 36.7139C87.6535 36.8686 87.4566 37.0785 87.1903 37.3438C86.5913 37.9571 86.1477 38.3577 85.8592 38.5455C85.5764 38.7279 85.3102 38.819 85.0606 38.819C84.8332 38.819 84.6585 38.7472 84.5365 38.6035C84.42 38.4599 84.3618 38.2499 84.3618 37.9737C84.3618 37.9018 84.3673 37.8217 84.3784 37.7333C84.3895 37.6394 84.4117 37.504 84.445 37.3272C84.0567 37.8189 83.6796 38.1919 83.3135 38.4461C82.953 38.6947 82.6147 38.819 82.2986 38.819C81.9935 38.819 81.7523 38.6671 81.5748 38.3632C81.4028 38.0538 81.3169 37.6283 81.3169 37.0868C81.3169 36.9542 81.3252 36.8216 81.3418 36.689C81.364 36.5564 81.3918 36.4266 81.425 36.2995C81.3585 36.4045 81.2947 36.4873 81.2337 36.5481C81.1727 36.6034 81.12 36.631 81.0756 36.631C81.0368 36.631 81.0118 36.6255 81.0007 36.6144C80.9841 36.6034 80.9758 36.5868 80.9758 36.5647C80.9758 36.5205 81.0479 36.4127 81.1921 36.2415C81.3363 36.0702 81.5304 35.8602 81.7744 35.6116C82.3069 35.0811 82.8393 34.6723 83.3718 34.3849C83.9097 34.0921 84.4006 33.9457 84.8443 33.9457C85.1161 33.9457 85.3324 34.0175 85.4932 34.1612C85.6596 34.3048 85.7428 34.4954 85.7428 34.733C85.7428 34.7883 85.7372 34.8463 85.7261 34.9071C85.715 34.9679 85.6984 35.0342 85.6762 35.106Z" fill="#323232"/>
<path d="M87.9973 37.7665C88.5908 37.2581 89.1648 36.7802 89.7194 36.3326C90.274 35.8851 90.8148 35.4651 91.3417 35.0728C91.0699 35.1447 90.8509 35.1972 90.6845 35.2303C90.5181 35.2579 90.3683 35.2718 90.2352 35.2718C90.0356 35.2718 89.8609 35.2469 89.7111 35.1972C89.5614 35.1419 89.4227 35.0535 89.2951 34.9319C88.9235 35.3905 88.5741 35.816 88.2469 36.2083C88.2247 36.2359 88.2108 36.2525 88.2053 36.258L87.9391 36.5564C87.9114 36.5951 87.8836 36.6227 87.8559 36.6393C87.8337 36.6559 87.8143 36.6641 87.7977 36.6641C87.7755 36.6641 87.7561 36.6586 87.7394 36.6476C87.7228 36.6365 87.7145 36.6255 87.7145 36.6144V36.5481C87.7145 36.5315 87.7172 36.5177 87.7228 36.5067C87.7228 36.4956 87.7256 36.4846 87.7311 36.4735L87.9141 36.2415C87.9807 36.1641 88.0805 36.0453 88.2136 35.8851C88.6351 35.3878 88.9485 34.9872 89.1537 34.6833C89.1315 34.617 89.1121 34.5617 89.0955 34.5175C89.0844 34.4678 89.0788 34.4264 89.0788 34.3932C89.0788 34.233 89.1288 34.1059 89.2286 34.012C89.3284 33.9125 89.4643 33.8628 89.6362 33.8628C89.7804 33.8628 89.8914 33.8987 89.969 33.9705C90.0522 34.0368 90.0938 34.1252 90.0938 34.2357C90.0938 34.3186 90.0716 34.4153 90.0272 34.5258C89.9829 34.6363 89.9607 34.7054 89.9607 34.733C89.9607 34.8159 90.0078 34.885 90.1021 34.9402C90.2019 34.99 90.3378 35.0148 90.5098 35.0148C91.0977 35.0148 91.5913 34.8463 91.9906 34.5093C92.3899 34.1722 92.6173 34.0037 92.6728 34.0037C92.7393 34.0037 92.7948 34.023 92.8392 34.0617C92.8836 34.0949 92.9057 34.1363 92.9057 34.186C92.9057 34.3739 92.7033 34.5728 92.2984 34.7828C92.2152 34.827 92.1514 34.8601 92.1071 34.8822C91.5857 35.2524 91.0783 35.6281 90.5846 36.0094C90.0966 36.3906 89.6224 36.7802 89.162 37.178C89.2119 37.1504 89.2813 37.1145 89.37 37.0703C89.9468 36.7995 90.3489 36.6641 90.5763 36.6641C90.7704 36.6641 90.9285 36.7249 91.0505 36.8465C91.1781 36.9625 91.2419 37.1117 91.2419 37.294C91.2419 37.4653 91.1809 37.678 91.0588 37.9322C90.9424 38.1864 90.8841 38.3356 90.8841 38.3798C90.8841 38.4295 90.8952 38.4737 90.9174 38.5124C90.9396 38.5511 90.9673 38.5704 91.0006 38.5704C91.0949 38.5704 91.2696 38.4682 91.5247 38.2637C91.7854 38.0538 92.1431 37.725 92.5979 37.2775C92.7809 37.1006 92.9695 36.899 93.1636 36.6724C93.3578 36.4404 93.477 36.3243 93.5214 36.3243C93.5546 36.3299 93.5796 36.3409 93.5962 36.3575C93.6129 36.3685 93.6212 36.3851 93.6212 36.4072C93.6212 36.4625 93.5602 36.5647 93.4382 36.7139C93.3162 36.8575 93.1054 37.0785 92.8059 37.3769C92.2679 37.9239 91.8547 38.3024 91.5663 38.5124C91.2779 38.7168 91.0367 38.819 90.8425 38.819C90.6318 38.819 90.4626 38.7361 90.3351 38.5704C90.213 38.3991 90.152 38.167 90.152 37.8742C90.152 37.7471 90.1742 37.6062 90.2186 37.4515C90.263 37.2913 90.2851 37.1863 90.2851 37.1366C90.2851 37.12 90.274 37.1062 90.2519 37.0951C90.2352 37.0785 90.2075 37.0703 90.1687 37.0703C89.9856 37.0703 89.7305 37.1393 89.4033 37.2775C89.0761 37.4101 88.7849 37.5731 88.5298 37.7665C88.3523 37.9046 88.1554 38.109 87.9391 38.3798C87.7283 38.6505 87.5564 38.7859 87.4233 38.7859C87.3567 38.7859 87.304 38.7693 87.2652 38.7361C87.2208 38.6975 87.1987 38.6477 87.1987 38.587C87.1987 38.4488 87.2624 38.319 87.39 38.1974C87.512 38.0703 87.7145 37.9267 87.9973 37.7665Z" fill="#323232"/>
<path d="M94.9689 35.0148C94.6583 35.3242 94.3339 35.6696 93.9956 36.0508C93.6628 36.4266 93.4659 36.6144 93.4049 36.6144C93.3827 36.6144 93.3661 36.6117 93.355 36.6061C93.3439 36.5951 93.3383 36.5813 93.3383 36.5647C93.3383 36.4929 93.5269 36.2415 93.9041 35.8105C94.2812 35.3795 94.8136 34.8104 95.5014 34.1031L96.7243 34.0203L95.0355 36.6641C94.675 37.2333 94.4448 37.6145 94.345 37.8079C94.2507 38.0013 94.2036 38.1532 94.2036 38.2637C94.2036 38.3466 94.2313 38.4212 94.2867 38.4875C94.3478 38.5538 94.4171 38.587 94.4947 38.587C94.7055 38.587 94.9634 38.4765 95.2684 38.2554C95.5735 38.0289 95.9811 37.6449 96.4914 37.1034C96.5857 36.9984 96.7077 36.8631 96.8574 36.6973C97.0793 36.4487 97.2179 36.3243 97.2734 36.3243C97.3011 36.3243 97.3233 36.3326 97.34 36.3492C97.3621 36.3658 97.3732 36.3851 97.3732 36.4072C97.3732 36.4569 97.3261 36.5398 97.2318 36.6559C97.1375 36.7719 96.924 37.0012 96.5912 37.3438C96.0199 37.9239 95.5873 38.3162 95.2934 38.5207C94.9994 38.7196 94.7388 38.819 94.5114 38.819C94.2341 38.819 94.0094 38.7223 93.8375 38.5289C93.6711 38.3356 93.5879 38.0759 93.5879 37.7499C93.5879 37.3189 93.9817 36.5122 94.7693 35.3298C94.858 35.1916 94.9246 35.0867 94.9689 35.0148ZM97.0654 31.3515C97.0654 31.1692 97.1375 30.9979 97.2817 30.8377C97.4315 30.6719 97.5923 30.589 97.7642 30.589C97.9029 30.589 98.0138 30.636 98.097 30.7299C98.1802 30.8183 98.2218 30.9344 98.2218 31.078C98.2218 31.2659 98.1525 31.4427 98.0138 31.6084C97.8752 31.7687 97.7199 31.8488 97.5479 31.8488C97.4093 31.8488 97.2928 31.8018 97.1985 31.7079C97.1098 31.614 97.0654 31.4952 97.0654 31.3515Z" fill="#323232"/>
<path d="M97.4564 38.7527L99.6694 35.4458C99.6916 35.4071 99.7276 35.3546 99.7775 35.2883C100.066 34.8629 100.21 34.5756 100.21 34.4264C100.21 34.349 100.191 34.2938 100.152 34.2606C100.119 34.2219 100.06 34.2026 99.9772 34.2026C99.7942 34.2026 99.5557 34.3186 99.2617 34.5507C98.9733 34.7828 98.5463 35.1999 97.9805 35.8022C97.8641 35.9237 97.7254 36.0812 97.5646 36.2746C97.3705 36.5122 97.2429 36.631 97.1819 36.631C97.1597 36.631 97.1403 36.6255 97.1236 36.6144C97.107 36.5978 97.0987 36.5813 97.0987 36.5647C97.0987 36.5205 97.1264 36.4597 97.1819 36.3823C97.2318 36.305 97.3344 36.1779 97.4897 36.0011L98.0305 35.4126C98.5795 34.827 98.9927 34.4347 99.27 34.2357C99.5529 34.0313 99.8108 33.9291 100.044 33.9291C100.249 33.9291 100.41 34.0009 100.526 34.1446C100.648 34.2882 100.709 34.4844 100.709 34.733C100.709 34.9872 100.654 35.2607 100.543 35.5535C100.438 35.8464 100.266 36.1834 100.027 36.5647C100.892 35.5922 101.555 34.9126 102.015 34.5258C102.481 34.1391 102.853 33.9457 103.13 33.9457C103.324 33.9457 103.48 34.0203 103.596 34.1694C103.713 34.3186 103.771 34.5175 103.771 34.7662C103.771 35.1916 103.491 35.7856 102.931 36.5481C102.836 36.6752 102.767 36.7719 102.723 36.8382C102.412 37.2581 102.201 37.5703 102.09 37.7747C101.985 37.9737 101.932 38.1366 101.932 38.2637C101.932 38.3632 101.954 38.4405 101.999 38.4958C102.043 38.5455 102.112 38.5704 102.207 38.5704C102.351 38.5704 102.581 38.4461 102.897 38.1974C103.213 37.9488 103.596 37.5896 104.045 37.12C104.178 36.9874 104.331 36.8216 104.503 36.6227C104.68 36.4238 104.789 36.3243 104.827 36.3243C104.855 36.3243 104.88 36.3354 104.902 36.3575C104.924 36.3741 104.936 36.3906 104.936 36.4072C104.936 36.4956 104.689 36.7912 104.195 37.294L104.095 37.3935C103.624 37.8742 103.23 38.2333 102.914 38.4709C102.598 38.703 102.357 38.819 102.19 38.819C101.946 38.819 101.749 38.7085 101.599 38.4875C101.45 38.2665 101.375 37.9764 101.375 37.6173C101.375 37.3576 101.441 37.0868 101.575 36.805C101.713 36.5232 102.01 36.0978 102.465 35.5287C102.526 35.4513 102.612 35.3463 102.723 35.2137C103.05 34.8104 103.213 34.5424 103.213 34.4098C103.213 34.338 103.2 34.2882 103.172 34.2606C103.144 34.233 103.094 34.2192 103.022 34.2192C102.756 34.2192 102.229 34.6142 101.441 35.4044C100.659 36.1945 99.7276 37.2719 98.6461 38.6367L97.4564 38.7527Z" fill="#323232"/>
<path d="M106.034 36.8382C106.794 36.6724 107.445 36.3464 107.989 35.8602C108.532 35.374 108.804 34.9181 108.804 34.4927C108.804 34.3987 108.774 34.3186 108.713 34.2523C108.657 34.186 108.588 34.1529 108.505 34.1529C108.133 34.1529 107.698 34.4126 107.198 34.9319C106.699 35.4513 106.311 36.0867 106.034 36.8382ZM105.11 36.2746C105.016 36.3962 104.938 36.4846 104.877 36.5398C104.822 36.5896 104.775 36.6144 104.736 36.6144C104.708 36.6144 104.689 36.6117 104.678 36.6061C104.661 36.5951 104.653 36.5757 104.653 36.5481C104.653 36.5094 104.711 36.4183 104.827 36.2746C104.944 36.1254 105.107 35.9376 105.318 35.711C105.84 35.1419 106.366 34.7054 106.899 34.4015C107.437 34.0976 107.947 33.9457 108.43 33.9457C108.713 33.9457 108.94 34.0203 109.112 34.1694C109.284 34.3131 109.37 34.501 109.37 34.733C109.37 35.2027 109.059 35.6558 108.438 36.0923C107.817 36.5288 106.985 36.8658 105.942 37.1034C105.909 37.3078 105.887 37.457 105.876 37.551C105.865 37.6449 105.859 37.7222 105.859 37.783C105.859 38.0317 105.917 38.2251 106.034 38.3632C106.156 38.5013 106.325 38.5704 106.541 38.5704C106.83 38.5704 107.137 38.4765 107.465 38.2886C107.792 38.0952 108.183 37.7747 108.638 37.3272C108.826 37.1393 109.026 36.9266 109.237 36.689C109.453 36.4459 109.583 36.3243 109.628 36.3243C109.655 36.3243 109.678 36.3326 109.694 36.3492C109.716 36.3658 109.727 36.3851 109.727 36.4072C109.727 36.4569 109.675 36.5453 109.569 36.6724C109.464 36.7995 109.228 37.0509 108.862 37.4266C108.363 37.9239 107.925 38.2803 107.548 38.4958C107.171 38.7113 106.807 38.819 106.458 38.819C106.036 38.819 105.69 38.6477 105.418 38.3052C105.146 37.9571 105.01 37.5178 105.01 36.9874C105.01 36.8769 105.019 36.7636 105.035 36.6476C105.052 36.526 105.077 36.4017 105.11 36.2746Z" fill="#323232"/>
<path d="M30.6096 1.69058H31.9184V5.54822H33.8377V1.69058H35.1465V11.5518H33.8377V6.6723H31.9184V11.5518H30.6096V1.69058Z" fill="#323232"/>
<path d="M37.3904 1.69058H38.4098L40.4927 11.5518H39.1964L38.8314 9.62939H36.9059L36.5347 11.5518H35.2761L37.3904 1.69058ZM38.6427 8.60111L38.3532 7.02996C38.1602 5.96123 38.0029 4.82012 37.8813 3.60663C37.8225 4.19847 37.747 4.79883 37.6547 5.40771C37.5624 6.01233 37.4534 6.65526 37.3275 7.33653L37.0884 8.60111H38.6427Z" fill="#323232"/>
<path d="M41.0817 1.69058H42.2018L43.0575 5.71427C43.1624 6.2167 43.2568 6.72126 43.3407 7.22795C43.4288 7.73038 43.5085 8.25836 43.5798 8.81188C43.5882 8.7395 43.5945 8.68414 43.5987 8.64582C43.6029 8.60324 43.6071 8.57344 43.6113 8.55641L43.7938 7.42594L43.9574 6.35296L44.1021 5.64402L44.8635 1.69058H45.9962L46.8897 11.5518H45.6375L45.4173 8.20513C45.4089 8.03482 45.4005 7.88792 45.3921 7.76444C45.3879 7.64096 45.3858 7.53877 45.3858 7.45787L45.3292 6.1358L45.2977 4.92231C45.2977 4.91379 45.2956 4.89676 45.2914 4.87121C45.2914 4.84141 45.2893 4.80309 45.2851 4.75625L45.2537 4.95424C45.2201 5.18843 45.1886 5.3928 45.1593 5.56738C45.1341 5.74195 45.111 5.88885 45.09 6.00807L44.9264 6.90861L44.8635 7.24711L44.0455 11.5518H43.1645L42.3968 7.8347C42.2919 7.34504 42.1976 6.849 42.1137 6.34657C42.034 5.83988 41.9605 5.30978 41.8934 4.75625L41.5159 11.5518H40.2825L41.0817 1.69058Z" fill="#323232"/>
<path d="M47.3277 1.69058H49.0519C49.8825 1.69058 50.4866 1.90347 50.8641 2.32926C51.2417 2.75931 51.4305 3.44057 51.4305 4.37304C51.4305 5.68447 51.0508 6.53179 50.2915 6.915C49.9097 7.08957 49.3581 7.17685 48.6365 7.17685V11.5518H47.3277V1.69058ZM48.6365 6.04C49.1777 6.04 49.5511 5.9293 49.7566 5.70789C49.9664 5.48222 50.0713 5.08198 50.0713 4.50717C50.0713 3.91958 49.9706 3.48953 49.7692 3.21703C49.5679 2.94453 49.2511 2.80827 48.819 2.80827H48.6365V6.04Z" fill="#323232"/>
<path d="M55.0336 1.89496V3.19148C54.6351 2.90195 54.2764 2.75718 53.9576 2.75718C53.6136 2.75718 53.3325 2.88066 53.1143 3.12761C52.8962 3.3618 52.7871 3.67475 52.7871 4.06648C52.7871 4.41136 52.8647 4.70729 53.02 4.95424C53.0997 5.08624 53.2297 5.25655 53.4101 5.46519C53.5947 5.67382 53.8317 5.92504 54.1212 6.21883C54.6539 6.7681 55.0168 7.24285 55.2098 7.64309C55.4028 8.03056 55.4992 8.50531 55.4992 9.06735C55.4992 9.82951 55.2874 10.4575 54.8637 10.9515C54.44 11.4326 53.8967 11.6732 53.2339 11.6732C52.676 11.6732 52.1998 11.5178 51.8055 11.2069V9.89125C52.2711 10.2361 52.6948 10.4086 53.0766 10.4086C53.4332 10.4086 53.7121 10.2894 53.9135 10.0509C54.1149 9.80822 54.2156 9.48037 54.2156 9.06735C54.2156 8.70969 54.1379 8.38822 53.9827 8.10294C53.903 7.96669 53.7919 7.81128 53.6492 7.63671C53.5066 7.45787 53.3283 7.25988 53.1143 7.04273C52.7829 6.71062 52.5082 6.41682 52.29 6.16135C52.0719 5.90588 51.9104 5.68234 51.8055 5.49074C51.6041 5.11604 51.5034 4.64342 51.5034 4.07286C51.5034 3.30219 51.7006 2.69118 52.095 2.23985C52.4935 1.78425 53.0284 1.55646 53.6996 1.55646C54.1652 1.55646 54.6099 1.66929 55.0336 1.89496Z" fill="#323232"/>
<path d="M55.9561 1.69058H57.2649V5.54822H59.1842V1.69058H60.493V11.5518H59.1842V6.6723H57.2649V11.5518H55.9561V1.69058Z" fill="#323232"/>
<path d="M61.3526 1.69058H62.6615V11.5518H61.3526V1.69058Z" fill="#323232"/>
<path d="M63.5147 1.69058H65.2389C65.9521 1.69058 66.4827 1.86302 66.8309 2.20791C67.2714 2.65499 67.4916 3.33838 67.4916 4.25808C67.4916 4.96489 67.3742 5.53331 67.1393 5.96336C66.9085 6.38915 66.5771 6.65314 66.145 6.75533L67.9321 11.5518H66.6044L64.8236 6.72339V11.5518H63.5147V1.69058ZM64.8236 6.05916C65.3312 6.05916 65.6899 5.93994 65.8996 5.7015C66.1094 5.46306 66.2142 5.06069 66.2142 4.49439C66.2142 4.18783 66.1912 3.92597 66.145 3.70881C66.1031 3.49166 66.0339 3.31496 65.9374 3.17871C65.8451 3.04246 65.7234 2.9424 65.5724 2.87853C65.4256 2.81466 65.2494 2.78273 65.0438 2.78273H64.8236V6.05916Z" fill="#323232"/>
<path d="M68.3072 1.69058H71.787V2.81466H69.616V5.93781H71.5415V7.06189H69.616V10.4277H71.787V11.5518H68.3072V1.69058Z" fill="#323232"/>
<path d="M79.1191 7.76444L79.9497 8.43506L78.9114 9.90402L79.9497 11.5518H78.515L78.0556 10.7854C77.5774 11.3347 77.0215 11.6093 76.3881 11.6093C75.7966 11.6093 75.2827 11.3751 74.8464 10.9068C74.4185 10.4341 74.2046 9.86996 74.2046 9.21425C74.2046 8.77143 74.3053 8.35416 74.5066 7.96243C74.708 7.56645 75.0583 7.10873 75.5575 6.58927C75.0373 5.75472 74.7772 4.9734 74.7772 4.24531C74.7772 3.70456 74.9534 3.25748 75.3058 2.90408C75.6624 2.55493 76.1154 2.38036 76.665 2.38036C77.2187 2.38036 77.6613 2.54216 77.9927 2.86575C78.3283 3.19361 78.4961 3.6194 78.4961 4.14312C78.4961 4.59019 78.3933 4.99469 78.1878 5.35661C78.0913 5.53544 77.9487 5.74408 77.7599 5.98252C77.5711 6.2167 77.332 6.48069 77.0425 6.77449L78.3262 8.90768L79.1191 7.76444ZM76.5077 5.79092C76.688 5.59931 76.8391 5.43113 76.9607 5.28636C77.0824 5.13733 77.1747 5.00747 77.2376 4.89676C77.3676 4.67535 77.4327 4.43478 77.4327 4.17505C77.4327 3.93235 77.3697 3.74075 77.2439 3.60024C77.118 3.45547 76.9523 3.38309 76.7468 3.38309C76.5328 3.38309 76.3482 3.46824 76.193 3.63856C76.042 3.80462 75.9665 4.00261 75.9665 4.23253C75.9665 4.56039 76.1469 5.07985 76.5077 5.79092ZM76.1616 7.60477C75.6749 8.14978 75.4316 8.66072 75.4316 9.13761C75.4316 9.52082 75.5386 9.84229 75.7525 10.102C75.9665 10.366 76.2245 10.498 76.5265 10.498C76.8621 10.498 77.1914 10.2894 77.5145 9.87209L76.1616 7.60477Z" fill="#323232"/>
<path d="M82.3673 1.69058H83.9782C84.469 1.69058 84.8822 1.74593 85.2178 1.85664C85.5283 1.96308 85.8052 2.15256 86.0485 2.42506C86.4134 2.83382 86.6735 3.36606 86.8288 4.02177C86.984 4.65619 87.0616 5.56525 87.0616 6.74894C87.0616 7.8347 86.9756 8.72034 86.8036 9.40585C86.6358 10.0616 86.3589 10.5619 85.973 10.9068C85.4989 11.3368 84.6494 11.5518 83.4245 11.5518H82.3673V1.69058ZM83.6762 10.3894C84.4732 10.3894 85.006 10.1446 85.2745 9.65494C85.5514 9.16528 85.6898 8.21365 85.6898 6.80003C85.6898 5.27997 85.5576 4.23466 85.2934 3.66411C85.0291 3.09355 84.5445 2.80827 83.8398 2.80827H83.6762V10.3894Z" fill="#323232"/>
<path d="M92.5902 6.8639C92.5902 8.60537 92.3994 9.84229 92.0176 10.5746C91.6359 11.307 90.9961 11.6732 90.0984 11.6732C89.1545 11.6732 88.4896 11.2793 88.1036 10.4916C87.7219 9.72094 87.531 8.35203 87.531 6.38489C87.531 4.63064 87.7198 3.38947 88.0973 2.66138C88.4791 1.92902 89.1251 1.56284 90.0354 1.56284C90.8493 1.56284 91.4534 1.84599 91.8477 2.41229C92.1078 2.79124 92.2966 3.32986 92.414 4.02815C92.5315 4.67535 92.5902 5.6206 92.5902 6.8639ZM91.2185 7.00441C91.2185 5.297 91.1429 4.16441 90.9919 3.60663C90.8409 3.04459 90.5326 2.76357 90.0669 2.76357C89.6013 2.76357 89.2908 3.02117 89.1356 3.53637C88.9846 4.05583 88.9091 5.09901 88.9091 6.66591C88.9091 8.10933 88.9888 9.10993 89.1482 9.66771C89.3118 10.1957 89.618 10.4597 90.0669 10.4597C90.5074 10.4597 90.8094 10.2127 90.973 9.71881C91.1366 9.22915 91.2185 8.32435 91.2185 7.00441Z" fill="#323232"/>
<path d="M93.2484 1.69058H94.9726C95.6858 1.69058 96.2164 1.86302 96.5646 2.20791C97.0051 2.65499 97.2254 3.33838 97.2254 4.25808C97.2254 4.96489 97.1079 5.53331 96.873 5.96336C96.6422 6.38915 96.3108 6.65314 95.8787 6.75533L97.6658 11.5518H96.3381L94.5573 6.72339V11.5518H93.2484V1.69058ZM94.5573 6.05916C95.0649 6.05916 95.4236 5.93994 95.6333 5.7015C95.8431 5.46306 95.948 5.06069 95.948 4.49439C95.948 4.18783 95.9249 3.92597 95.8787 3.70881C95.8368 3.49166 95.7676 3.31496 95.6711 3.17871C95.5788 3.04246 95.4571 2.9424 95.3061 2.87853C95.1593 2.81466 94.9831 2.78273 94.7775 2.78273H94.5573V6.05916Z" fill="#323232"/>
<path d="M101.282 1.89496V3.19148C100.883 2.90195 100.524 2.75718 100.206 2.75718C99.8615 2.75718 99.5805 2.88066 99.3623 3.12761C99.1442 3.3618 99.0351 3.67475 99.0351 4.06648C99.0351 4.41136 99.1127 4.70729 99.2679 4.95424C99.3476 5.08624 99.4777 5.25655 99.6581 5.46519C99.8426 5.67382 100.08 5.92504 100.369 6.21883C100.902 6.7681 101.265 7.24285 101.458 7.64309C101.651 8.03056 101.747 8.50531 101.747 9.06735C101.747 9.82951 101.535 10.4575 101.112 10.9515C100.688 11.4326 100.145 11.6732 99.4819 11.6732C98.9239 11.6732 98.4478 11.5178 98.0535 11.2069V9.89125C98.5191 10.2361 98.9428 10.4086 99.3246 10.4086C99.6811 10.4086 99.9601 10.2894 100.161 10.0509C100.363 9.80822 100.464 9.48037 100.464 9.06735C100.464 8.70969 100.386 8.38822 100.231 8.10294C100.151 7.96669 100.04 7.81128 99.8972 7.63671C99.7546 7.45787 99.5763 7.25988 99.3623 7.04273C99.0309 6.71062 98.7561 6.41682 98.538 6.16135C98.3198 5.90588 98.1583 5.68234 98.0535 5.49074C97.8521 5.11604 97.7514 4.64342 97.7514 4.07286C97.7514 3.30219 97.9486 2.69118 98.3429 2.23985C98.7414 1.78425 99.2763 1.55646 99.9475 1.55646C100.413 1.55646 100.858 1.66929 101.282 1.89496Z" fill="#323232"/>
<path d="M102.204 1.69058H105.684V2.81466H103.513V5.93781H105.438V7.06189H103.513V10.4277H105.684V11.5518H102.204V1.69058Z" fill="#323232"/>
<path d="M105.467 1.69058H109.727V2.85298H108.261V11.5518H106.978V2.85298H105.467V1.69058Z" fill="#323232"/>
<path d="M24.0612 13.8921C24.0612 14.0265 23.7938 14.1012 23.2591 14.1161C22.6615 14.1311 22.2605 14.3177 22.0561 14.6761C21.8673 15.0345 21.5685 15.7961 21.1596 16.9609C20.452 19.0067 19.8229 20.7465 19.2725 22.18C18.3289 24.6291 17.4718 26.996 16.7012 29.2807C16.6383 29.4749 16.5596 29.5719 16.4653 29.5719C16.3866 29.5719 16.308 29.4973 16.2294 29.3479C16.1665 29.1986 15.962 28.676 15.616 27.78C15.1757 26.6152 14.696 25.4429 14.1771 24.2632C13.7682 23.3374 13.3671 22.3816 12.974 21.396C11.8731 23.9197 10.7801 26.5554 9.69498 29.3031C9.63208 29.4823 9.55344 29.5719 9.45908 29.5719C9.38045 29.5719 9.28609 29.445 9.176 29.1911C8.68848 28.0861 6.87993 23.5091 3.75034 15.4601C3.53017 14.8927 3.36504 14.5417 3.25495 14.4073C3.14487 14.258 2.86965 14.1759 2.42931 14.1609C1.67443 14.1311 1.297 14.0265 1.297 13.8473C1.297 13.713 1.42281 13.6458 1.67443 13.6458C1.78452 13.6458 1.87888 13.6532 1.95751 13.6682C2.79102 13.713 3.68743 13.7354 4.64676 13.7354C4.83547 13.7354 5.15787 13.7279 5.61394 13.7129C6.08574 13.6831 6.69121 13.6682 7.43036 13.6682H7.68984C7.9572 13.6682 8.09087 13.7353 8.09087 13.8697C8.09087 14.034 7.84711 14.1236 7.35959 14.1385C6.38454 14.1684 5.89702 14.2879 5.89702 14.4969C5.89702 14.9151 7.34386 18.8051 10.2375 26.1672C11.2912 23.6435 12.0776 21.7843 12.5965 20.5897L10.2611 14.8553C10.1353 14.5417 9.98592 14.3401 9.81293 14.2505C9.65567 14.1609 9.35686 14.1087 8.91652 14.0937C8.47617 14.0788 8.256 14.0116 8.256 13.8921C8.256 13.7279 8.42113 13.6458 8.75139 13.6458C9.00301 13.6458 9.30968 13.6607 9.67139 13.6905C10.0331 13.7204 10.6622 13.7354 11.5586 13.7354H13.3514L15.9463 13.7801C16.5282 13.7801 17.228 13.7503 18.0458 13.6905C18.1401 13.6756 18.2502 13.6682 18.376 13.6682C18.7535 13.6682 18.9422 13.7428 18.9422 13.8921C18.9422 14.0265 18.8085 14.0937 18.5412 14.0937H18.1401C17.4325 14.0937 16.8977 14.1833 16.536 14.3625C16.3788 14.4372 16.0878 14.9748 15.6632 15.9753C15.4745 16.3934 15.16 17.1028 14.7196 18.1033C14.6253 18.3273 14.4837 18.6633 14.295 19.1113C14.4051 19.4099 14.7511 20.2387 15.333 21.5976C16.0878 23.3299 16.709 24.8157 17.1966 26.0552C18.0772 23.636 19.1152 20.7763 20.3104 17.4761C20.9395 15.7289 21.254 14.7583 21.254 14.5641C21.254 14.2804 20.9788 14.1385 20.4284 14.1385C19.6578 14.1385 19.2725 14.0564 19.2725 13.8921C19.2725 13.7428 19.4297 13.6682 19.7443 13.6682C20.0116 13.6682 20.2239 13.6756 20.3812 13.6905C20.7272 13.7204 21.0417 13.7354 21.3248 13.7354L23.212 13.7129C23.6838 13.7129 23.9432 13.7353 23.9904 13.7801C24.0376 13.81 24.0612 13.8473 24.0612 13.8921ZM15.5453 14.5641C15.5453 14.2953 15.0577 14.1609 14.0827 14.1609H13.7996L13.3986 14.1833C12.8324 14.2132 12.5494 14.3103 12.5494 14.4745C12.5494 14.5044 13.0133 15.7961 13.9412 18.3497C14.3029 17.603 14.7275 16.6174 15.215 15.3929C15.2779 15.2287 15.3723 15.0121 15.4981 14.7433C15.5295 14.6239 15.5453 14.5641 15.5453 14.5641Z" fill="#323232"/>
<path d="M36.6372 25.652C36.6372 25.7117 36.6214 26.0776 36.59 26.7496C36.5585 27.4216 36.5428 28.0637 36.5428 28.676V29.4151C35.0016 29.3405 31.9506 29.3031 27.3899 29.3031C26.8395 29.3031 26.2969 29.3106 25.7622 29.3255C25.2275 29.3255 24.8658 29.3255 24.6771 29.3255H24.4412C24.1424 29.3255 23.993 29.2583 23.993 29.1239C23.993 29.0343 24.0402 28.9821 24.1345 28.9671C24.1817 28.9671 24.4805 28.9447 25.031 28.8999C25.4398 28.8701 25.6836 28.788 25.7622 28.6536C25.8566 28.5192 25.9038 28.1682 25.9038 27.6008V15.0121C25.9038 14.5791 25.833 14.3252 25.6915 14.2505C25.5657 14.1609 25.141 14.1161 24.4176 14.1161C24.166 14.1161 24.0402 14.0489 24.0402 13.9145C24.0402 13.7801 24.2132 13.7129 24.5592 13.7129L28.593 13.7354C28.7346 13.7354 29.6231 13.7279 31.2587 13.7129C32.8942 13.7129 33.9951 13.7129 34.5613 13.7129C35.0331 13.7129 35.4655 13.6831 35.8587 13.6234C35.8902 14.2655 35.9609 15.154 36.071 16.2889L36.1654 17.2521C36.1811 17.3268 36.189 17.4238 36.189 17.5433C36.189 17.6926 36.1182 17.7673 35.9766 17.7673C35.8037 17.7673 35.6778 17.5806 35.5992 17.2073C35.3004 15.8633 34.8129 15.0121 34.1366 14.6537C33.6334 14.3849 32.3124 14.2505 30.1735 14.2505H28.2392V20.8137H28.8053C30.5667 20.8137 31.6361 20.6867 32.0136 20.4329C32.4067 20.179 32.6741 19.4398 32.8156 18.2153C32.8471 17.9017 32.9336 17.7449 33.0751 17.7449C33.2481 17.7449 33.3346 17.8793 33.3346 18.1481C33.3346 18.4169 33.3189 18.8126 33.2874 19.3353C33.256 19.8579 33.2402 20.2537 33.2402 20.5225C33.2402 22.1203 33.2717 23.2179 33.3346 23.8152C33.3503 23.9645 33.3582 24.0915 33.3582 24.196C33.3582 24.3901 33.2717 24.4872 33.0987 24.4872C32.9886 24.4872 32.91 24.4275 32.8628 24.308C32.8313 24.1736 32.7684 23.7555 32.6741 23.0536C32.5483 22.1726 32.163 21.6275 31.5182 21.4184C31.2351 21.3288 30.4959 21.284 29.3007 21.284H28.2392V28.8103C31.699 28.8103 33.7278 28.7432 34.3254 28.6088C35.3633 28.3848 35.9531 27.429 36.0946 25.7416C36.1261 25.3683 36.2283 25.1816 36.4013 25.1816C36.5585 25.1816 36.6372 25.3384 36.6372 25.652Z" fill="#323232"/>
<path d="M53.0093 21.5304C53.0093 24.1587 52.0421 26.2045 50.1077 27.668C48.6923 28.7432 46.7973 29.2807 44.4225 29.2807C44.3596 29.2807 44.0766 29.2733 43.5733 29.2583C43.0858 29.2434 42.3702 29.2359 41.4266 29.2359H40.2471L38.3835 29.2583C38.2735 29.2733 38.1555 29.2807 38.0297 29.2807C37.7309 29.2807 37.5815 29.2061 37.5815 29.0567C37.5815 28.9223 37.8331 28.8551 38.3364 28.8551C38.9812 28.8551 39.3822 28.7432 39.5395 28.5192C39.6024 28.4146 39.6338 28.1309 39.6338 27.668V15.5945C39.6338 14.8628 39.5709 14.4372 39.4451 14.3177C39.335 14.1983 38.934 14.1385 38.242 14.1385C37.8803 14.1385 37.6994 14.0564 37.6994 13.8921C37.6994 13.7727 37.8331 13.7129 38.1005 13.7129C38.0847 13.7129 38.2577 13.7204 38.6194 13.7354C38.9812 13.7503 39.335 13.7577 39.681 13.7577H42.2051C45.0359 13.7577 47.041 13.9444 48.2205 14.3177C49.6516 14.7657 50.8075 15.6543 51.6882 16.9833C52.5689 18.2974 53.0093 19.8131 53.0093 21.5304ZM50.3672 21.4408C50.3672 18.9619 49.8561 17.1476 48.8339 15.9977C47.8116 14.8329 46.2154 14.2505 44.0451 14.2505C42.9914 14.2505 42.3545 14.3551 42.1343 14.5641C42.04 14.6687 41.9928 15.0271 41.9928 15.6393V27.556C41.9928 27.9741 42.0007 28.228 42.0164 28.3176C42.0478 28.4072 42.1186 28.4818 42.2287 28.5416C42.6061 28.7207 43.4003 28.8103 44.6113 28.8103C46.3097 28.8103 47.6779 28.2429 48.7159 27.108C49.8168 25.9133 50.3672 24.0243 50.3672 21.4408Z" fill="#323232"/>
<path d="M69.8953 21.5304C69.8953 24.1587 68.9282 26.2045 66.9938 27.668C65.5784 28.7432 63.6834 29.2807 61.3086 29.2807C61.2457 29.2807 60.9627 29.2733 60.4594 29.2583C59.9719 29.2434 59.2563 29.2359 58.3127 29.2359H57.1332L55.2696 29.2583C55.1596 29.2733 55.0416 29.2807 54.9158 29.2807C54.617 29.2807 54.4676 29.2061 54.4676 29.0567C54.4676 28.9223 54.7192 28.8551 55.2225 28.8551C55.8672 28.8551 56.2683 28.7432 56.4255 28.5192C56.4884 28.4146 56.5199 28.1309 56.5199 27.668V15.5945C56.5199 14.8628 56.457 14.4372 56.3312 14.3177C56.2211 14.1983 55.8201 14.1385 55.1281 14.1385C54.7664 14.1385 54.5855 14.0564 54.5855 13.8921C54.5855 13.7727 54.7192 13.7129 54.9866 13.7129C54.9708 13.7129 55.1438 13.7204 55.5055 13.7354C55.8672 13.7503 56.2211 13.7577 56.5671 13.7577H59.0912C61.922 13.7577 63.9271 13.9444 65.1066 14.3177C66.5377 14.7657 67.6936 15.6543 68.5743 16.9833C69.455 18.2974 69.8953 19.8131 69.8953 21.5304ZM67.2533 21.4408C67.2533 18.9619 66.7422 17.1476 65.7199 15.9977C64.6977 14.8329 63.1015 14.2505 60.9312 14.2505C59.8775 14.2505 59.2406 14.3551 59.0204 14.5641C58.9261 14.6687 58.8789 15.0271 58.8789 15.6393V27.556C58.8789 27.9741 58.8867 28.228 58.9025 28.3176C58.9339 28.4072 59.0047 28.4818 59.1148 28.5416C59.4922 28.7207 60.2864 28.8103 61.4974 28.8103C63.1958 28.8103 64.564 28.2429 65.602 27.108C66.7029 25.9133 67.2533 24.0243 67.2533 21.4408Z" fill="#323232"/>
<path d="M77.6758 29.1015C77.6758 29.221 77.5814 29.2807 77.3927 29.2807H77.1568C77.0624 29.2359 75.993 29.2135 73.9486 29.2135C73.5554 29.2135 73.1622 29.2285 72.7691 29.2583C72.5646 29.2733 72.2501 29.2807 71.8255 29.2807C71.621 29.2807 71.5188 29.2135 71.5188 29.0791C71.5188 28.9597 71.7233 28.8925 72.1321 28.8775C72.7612 28.8626 73.1308 28.7954 73.2409 28.676C73.351 28.5416 73.406 28.1085 73.406 27.3768V15.5945C73.406 14.8628 73.3667 14.4521 73.288 14.3625C73.1937 14.2132 72.7612 14.1236 71.9906 14.0937C71.6918 14.0788 71.5424 14.0191 71.5424 13.9145C71.5424 13.7801 71.6368 13.7129 71.8255 13.7129L75.0101 13.7577C75.246 13.7577 75.7021 13.7503 76.3783 13.7354L77.2747 13.7129C77.5264 13.7129 77.6522 13.7801 77.6522 13.9145C77.6522 14.034 77.3062 14.1087 76.6142 14.1385C76.221 14.1535 75.9773 14.2207 75.8829 14.3401C75.8043 14.4596 75.765 14.7732 75.765 15.2809V27.2424C75.765 28.0936 75.8043 28.5565 75.8829 28.6312C76.0559 28.7954 76.567 28.8925 77.4163 28.9223C77.5893 28.9223 77.6758 28.9821 77.6758 29.1015Z" fill="#323232"/>
<path d="M93.4445 13.9369C93.4445 14.0863 93.2479 14.1535 92.8547 14.1385L92.3357 14.1161H91.9111C91.6595 14.1161 91.5101 14.1609 91.4629 14.2505C91.4157 14.3252 91.3921 14.5716 91.3921 14.9897V27.892C91.3921 28.6834 91.3843 29.1463 91.3686 29.2807C91.3528 29.4151 91.3056 29.4823 91.227 29.4823C91.1327 29.4823 91.0226 29.4002 90.8968 29.2359L87.8773 25.0472C86.1316 22.6131 84.0085 19.5742 81.508 15.9305L81.5316 28.4296C81.5473 28.6237 81.6653 28.7506 81.8854 28.8103C82.1056 28.8551 82.6325 28.885 83.466 28.8999C83.6704 28.8999 83.7726 28.9597 83.7726 29.0791C83.7726 29.2285 83.5682 29.3031 83.1593 29.3031C83.0178 29.3031 82.5695 29.2807 81.8147 29.2359C81.563 29.221 81.3193 29.2135 81.0834 29.2135C81.0991 29.2135 80.9576 29.2285 80.6588 29.2583C80.3757 29.2882 79.9353 29.3031 79.3377 29.3031H79.1018C78.7401 29.3031 78.5593 29.2359 78.5593 29.1015C78.5593 28.9671 78.7165 28.8999 79.0311 28.8999C79.9589 28.885 80.4936 28.8327 80.6352 28.7432C80.7924 28.6386 80.8711 28.3176 80.8711 27.78V16.7369C80.8711 15.4975 80.6037 14.7209 80.069 14.4073C79.8174 14.258 79.3692 14.1833 78.7244 14.1833C78.3155 14.1833 78.1111 14.1087 78.1111 13.9593C78.1111 13.8249 78.229 13.7577 78.4649 13.7577C78.7794 13.7577 79.1805 13.7652 79.668 13.7801C80.1555 13.7951 80.415 13.8025 80.4465 13.8025C80.4936 13.8025 80.7138 13.7951 81.107 13.7801C81.6259 13.7801 82.1292 13.7727 82.6167 13.7577L90.7552 25.2488V15.2809C90.7552 14.818 90.7474 14.5417 90.7316 14.4521C90.7159 14.3476 90.653 14.2729 90.5429 14.2281C90.4328 14.1684 90.0554 14.1385 89.4106 14.1385C88.8444 14.1385 88.5614 14.0713 88.5614 13.9369C88.5614 13.7876 88.7501 13.7129 89.1275 13.7129H89.9532C90.1576 13.7129 90.3778 13.7129 90.6137 13.7129C90.8653 13.7279 91.0147 13.7354 91.0619 13.7354C91.0776 13.7354 91.2192 13.7279 91.4865 13.7129C91.7381 13.7129 91.974 13.7129 92.1942 13.7129H92.9255C93.2715 13.7129 93.4445 13.7876 93.4445 13.9369Z" fill="#323232"/>
<path d="M109.987 24.5544C109.987 24.6888 109.916 24.756 109.775 24.756L109.232 24.7336C108.509 24.7037 108.1 24.8232 108.005 25.092C107.942 25.2712 107.911 25.9208 107.911 27.0408V27.7576C107.109 28.4146 106.33 28.8775 105.576 29.1463C104.836 29.4151 103.948 29.5495 102.91 29.5495C100.425 29.5495 98.4514 28.8477 96.9888 27.444C95.5263 26.0253 94.795 24.1064 94.795 21.6872C94.795 19.2382 95.5105 17.2596 96.9417 15.7513C98.3728 14.2431 100.26 13.489 102.603 13.489C103.625 13.489 104.742 13.7577 105.953 14.2953C106.315 14.4596 106.613 14.5417 106.849 14.5417C107.148 14.5417 107.345 14.3625 107.439 14.0041C107.518 13.7951 107.612 13.6905 107.722 13.6905C107.848 13.6905 107.911 13.7503 107.911 13.8697C107.911 13.9145 107.895 14.0713 107.864 14.3401C107.769 15.1913 107.722 15.8036 107.722 16.1769L107.746 17.6329C107.762 18.1556 107.769 18.387 107.769 18.3273C107.738 18.6857 107.636 18.8649 107.463 18.8649C107.321 18.8649 107.243 18.7603 107.227 18.5513C107.148 17.1028 106.708 15.9679 105.906 15.1465C105.104 14.3103 104.05 13.8921 102.745 13.8921C101.109 13.8921 99.8118 14.5865 98.8524 15.9753C97.9088 17.3641 97.437 19.2531 97.437 21.6424C97.437 23.9421 97.9167 25.7715 98.876 27.1304C99.8511 28.4744 101.164 29.1463 102.816 29.1463C104.074 29.1463 104.939 28.8029 105.41 28.116C105.646 27.7725 105.764 27.1528 105.764 26.2568C105.764 25.5101 105.686 25.0696 105.528 24.9352C105.387 24.8008 104.876 24.7411 103.995 24.756C103.775 24.756 103.633 24.7485 103.57 24.7336C103.507 24.7037 103.476 24.6515 103.476 24.5768C103.476 24.4125 103.649 24.3304 103.995 24.3304H104.42C104.656 24.3752 105.489 24.3901 106.92 24.3752L108.902 24.3528C109.012 24.3528 109.13 24.3453 109.256 24.3304C109.381 24.3304 109.468 24.3304 109.515 24.3304C109.83 24.3304 109.987 24.4051 109.987 24.5544Z" fill="#323232"/>
</svg>
