<svg width="80" height="32" viewBox="0 0 80 32" fill="none" xmlns="http://www.w3.org/2000/svg">
<g clip-path="url(#clip0)">
<path d="M8.15382 7.08865C8.07238 6.92662 7.95022 6.7646 7.82805 6.56206C7.70589 6.35953 7.58372 6.23801 7.46156 6.11649V5.26586C7.543 5.18485 7.58372 5.10384 7.62444 5.02282C7.66516 4.94181 7.70589 4.8608 7.78733 4.77979H10.6786L10.8415 4.8608C10.9229 4.94181 10.9636 4.98232 11.0043 5.02282C11.0451 5.06333 11.0858 5.06333 11.1265 5.10384C11.1672 5.14434 11.1672 5.18485 11.2079 5.26586C11.2487 5.34687 11.2487 5.46839 11.2487 5.67092C11.2487 5.87346 11.2079 5.99497 11.1265 6.07599V6.157C11.1265 6.19751 11.0858 6.23801 11.0451 6.31903C11.0043 6.40004 10.9636 6.48105 10.8822 6.60257C10.8007 6.68358 10.76 6.8051 10.6786 6.88611C10.5971 6.96713 10.5564 7.04814 10.5564 7.08865V23.1697C10.5564 23.3317 10.5157 23.4937 10.475 23.6557C10.4342 23.8178 10.3935 23.9798 10.4342 24.1418L10.1899 24.8304C10.1492 24.9519 10.0677 25.0735 9.90485 25.276C9.78269 25.4785 9.6198 25.6811 9.45692 25.8836C9.29403 26.0861 9.13114 26.2481 8.92754 26.4102C8.76465 26.5722 8.60176 26.6532 8.52032 26.6532C8.43888 26.6532 8.39815 26.6937 8.35743 26.7747C8.31671 26.8557 8.23527 26.8962 8.15382 26.8557L7.90949 27.0583C7.82805 27.0988 7.74661 27.0988 7.70589 27.0988C7.66516 27.0583 7.62444 27.0583 7.543 27.0583C7.46156 27.0583 7.38011 27.0988 7.33939 27.1798C7.29867 27.2608 7.21723 27.3013 7.09506 27.2608C6.89145 27.2203 6.72857 27.2203 6.52496 27.2608C6.32135 27.3013 6.15846 27.3013 5.99558 27.3013C5.83269 27.3013 5.75125 27.2203 5.75125 27.0988C5.62908 27.0583 5.54764 27.0178 5.42547 27.0178C5.34403 27.0178 5.22187 27.0178 5.0997 26.9773C5.05898 26.8962 5.01826 26.8557 4.85537 26.8557C4.73321 26.8557 4.69248 26.7747 4.65176 26.6532V26.6532C4.57032 26.6532 4.48888 26.6127 4.40743 26.5317C4.28527 26.4507 4.20382 26.3697 4.08166 26.2481C3.95949 26.1266 3.83733 26.0051 3.75589 25.9241C3.67444 25.8026 3.593 25.7216 3.593 25.6811H3.51156C3.43011 25.6811 3.34867 25.6 3.2265 25.357C3.10434 25.1545 3.0229 25.0329 3.0229 24.9924V24.9519C3.0229 24.7899 2.98217 24.6279 2.86001 24.5469C2.77857 24.4659 2.73785 24.3038 2.73785 24.1418C2.6564 24.0203 2.61568 23.8988 2.6564 23.7367C2.69712 23.5747 2.6564 23.4532 2.57496 23.3722V7.08865C2.49352 6.92662 2.41207 6.7646 2.28991 6.56206C2.20846 6.40004 2.04558 6.23801 1.88269 6.157V5.26586C2.04558 5.10384 2.12702 5.02282 2.16774 4.94181V4.8608L2.24919 4.77979H5.14042C5.18114 4.77979 5.22187 4.82029 5.30331 4.9013C5.38475 4.98232 5.42547 5.06333 5.4662 5.10384V5.14434C5.4662 5.26586 5.50692 5.34687 5.54764 5.42789C5.58836 5.5089 5.62908 5.58991 5.62908 5.63042C5.50692 5.87346 5.38475 6.07599 5.30331 6.23801C5.22187 6.40004 5.14042 6.52156 5.05898 6.68358C4.97754 6.8051 4.93681 6.92662 4.89609 6.96713V22.4C4.89609 22.6026 4.89609 22.7646 4.93681 22.9671C4.97754 23.1697 4.97754 23.3317 4.97754 23.5342C4.97754 23.8178 5.05898 24.1823 5.26259 24.5874C5.4662 24.9924 5.6698 25.276 5.95486 25.3975H6.81001C6.89145 25.3975 6.9729 25.357 7.09506 25.2355C7.21723 25.1545 7.29867 25.0329 7.42083 24.8709C7.50228 24.7494 7.58372 24.5874 7.66516 24.4659C7.74661 24.3443 7.78733 24.2228 7.82805 24.1418C7.86877 24.0203 7.90949 23.9393 7.90949 23.8178C7.90949 23.7367 7.95022 23.6152 7.99094 23.4937V22.7241C8.07238 22.6431 8.07238 22.6026 8.1131 22.4811C8.1131 22.4 8.1131 22.319 8.1131 22.1975V7.08865H8.15382Z" fill="#323232"/>
<path d="M20.411 7.08865C20.2889 6.84561 20.1667 6.64308 20.0445 6.48105C19.9224 6.31903 19.7595 6.11649 19.6373 5.91396V5.26586L19.9631 4.82029H22.3657L22.61 5.46839V5.99498L22.2435 6.40004H22.1621C22.1213 6.40004 22.0399 6.48105 21.9992 6.64308C21.9177 6.8051 21.877 6.88611 21.8363 6.96713V26.7342L21.5512 27.2608H19.0672L18.7822 26.7342C18.7007 26.6127 18.66 26.5317 18.66 26.4102C18.66 26.2886 18.6193 26.2076 18.5786 26.1266C18.5378 25.8836 18.4971 25.6 18.4157 25.276C18.3342 24.9924 18.2121 24.6684 18.1306 24.3443C18.0492 24.0203 17.927 23.7368 17.8456 23.4532C17.7641 23.1697 17.7234 22.9266 17.7234 22.7241C17.7234 22.6026 17.6827 22.5216 17.642 22.4C17.642 22.3595 17.6012 22.157 17.4791 21.7519C17.3569 21.3874 17.2755 20.9418 17.1533 20.4962C17.0311 20.0507 16.909 19.6456 16.8275 19.2811C16.7054 18.9165 16.6646 18.714 16.6646 18.6735C16.6239 18.633 16.5832 18.5114 16.5425 18.3089C16.461 18.0659 16.4203 17.8228 16.3389 17.5393C16.2574 17.2557 16.176 16.9722 16.1353 16.7292C16.0538 16.4861 16.0538 16.3241 16.0538 16.2836C16.0538 16.2431 16.0538 16.2026 16.0131 16.1216C15.9724 16.0405 15.9724 15.9595 15.9317 15.8785C15.8909 15.7975 15.8909 15.7165 15.8502 15.6355C15.8095 15.5545 15.8095 15.514 15.7688 15.4735V15.433C15.7688 15.3114 15.728 15.2304 15.6873 15.1494C15.6466 15.0684 15.6059 14.9874 15.6466 14.8659C15.6059 14.8254 15.5652 14.7038 15.4837 14.5013C15.4023 14.2988 15.3616 14.0557 15.3208 13.8127C15.2801 13.5697 15.2394 13.3266 15.1579 13.1241C15.1172 12.9216 15.0765 12.7595 15.0765 12.719C15.0358 12.638 14.9951 12.638 14.9951 12.638C14.9543 12.638 14.9543 12.638 14.9136 12.638L14.7914 12.5975V25.033C14.8322 25.114 14.8729 25.195 14.9543 25.276C14.9951 25.357 15.0765 25.438 15.1172 25.519C15.1579 25.4785 15.1579 25.4785 15.1987 25.4785C15.2801 25.4785 15.3616 25.5595 15.443 25.7216C15.5244 25.8836 15.5652 25.9646 15.6059 26.0456V26.6532L15.3208 27.1798H12.8775L12.5925 26.6532V26.0051C12.7146 25.8836 12.7961 25.8026 12.8368 25.6811C12.9183 25.5595 12.9997 25.438 13.0811 25.357C13.1626 25.357 13.244 25.3165 13.244 25.2355C13.2847 25.1545 13.3255 25.114 13.3662 25.0735V6.8051C13.3255 6.72409 13.2847 6.64308 13.2033 6.56206C13.1219 6.48105 13.0811 6.44054 13.0404 6.35953H12.959C12.8368 6.35953 12.7554 6.27852 12.7146 6.157C12.6332 6.03548 12.5925 5.91396 12.5518 5.87346V5.26586C12.5925 5.18485 12.6332 5.10384 12.7146 5.02282C12.7961 4.94181 12.8368 4.9013 12.8775 4.77979H15.728C15.8095 4.9013 15.9317 5.22535 16.0945 5.75194C16.2574 6.27852 16.4203 6.84561 16.6239 7.4127C16.7868 7.97979 16.9497 8.54687 17.0719 9.07346C17.194 9.60004 17.2755 9.92409 17.2755 10.0456C17.2755 10.1671 17.3162 10.4102 17.4384 10.7747C17.5605 11.1393 17.6827 11.5443 17.8049 11.9494C17.927 12.3545 18.0492 12.7595 18.1713 13.1241C18.2935 13.4886 18.3342 13.7722 18.2935 13.8937C18.3342 13.9342 18.375 14.0557 18.4564 14.3393C18.5378 14.6228 18.66 14.9874 18.7822 15.433C18.9043 15.8785 19.0265 16.3241 19.1487 16.8102C19.2708 17.2962 19.393 17.7823 19.5152 18.1874C19.6373 18.633 19.7188 18.9975 19.8002 19.2811C19.8817 19.5646 19.9224 19.7266 19.9224 19.7266C19.9631 19.7671 20.0038 19.8481 20.0445 19.8886C20.0853 19.9697 20.126 20.0102 20.1667 20.0102C20.2074 19.9697 20.2482 19.9292 20.2889 19.8481C20.3296 19.8076 20.3703 19.7671 20.411 19.6861V7.08865V7.08865Z" fill="#323232"/>
<path d="M31.3652 5.26586C31.4466 5.18485 31.4874 5.10384 31.5281 5.02282C31.5688 4.94181 31.6095 4.8608 31.691 4.77979H34.3786L34.6229 5.34687V5.91396L34.2972 6.35953H34.1343C34.0935 6.35953 34.0935 6.35953 34.0935 6.35953H34.0528C33.8899 6.35953 33.7678 6.48105 33.6456 6.68358C33.5234 6.88611 33.442 7.12915 33.3606 7.4127C33.2791 7.69624 33.2384 7.97979 33.1977 8.22282C33.1569 8.50637 33.1162 8.66839 33.1162 8.78991C33.1162 8.91143 33.0755 8.99244 33.0348 9.07346C32.9941 9.31649 32.9533 9.64055 32.8719 10.0051C32.7905 10.4102 32.7497 10.7342 32.7497 10.9367C32.7497 11.0988 32.709 11.2203 32.6683 11.3013V11.3823C32.6683 11.5443 32.6276 11.7064 32.5868 11.8684C32.5461 12.0304 32.5054 12.1924 32.5054 12.3545C32.5054 12.476 32.5054 12.557 32.4647 12.6785C32.424 12.7595 32.424 12.8811 32.424 13.0026C32.424 13.1241 32.3832 13.2051 32.3425 13.2861C32.3018 13.3671 32.2611 13.4481 32.2611 13.6102C32.2611 13.7722 32.2204 13.8937 32.1796 14.0152C32.1389 14.1367 32.0982 14.2583 32.0982 14.4203C32.0982 14.5823 32.0575 14.7038 32.0167 14.7849C32.0167 14.9874 31.976 15.1494 31.9353 15.3519C31.8946 15.514 31.8539 15.7165 31.8539 15.919C31.8539 16.0405 31.8131 16.1621 31.7724 16.2431C31.7317 16.3646 31.7317 16.4456 31.7317 16.5671C31.7317 16.6886 31.691 16.7697 31.6503 16.8507V16.9722C31.6503 17.1342 31.6095 17.2962 31.5688 17.4583C31.5281 17.6203 31.4874 17.7823 31.4874 17.9443C31.4874 18.0659 31.4466 18.1469 31.4059 18.2684C31.3652 18.3899 31.3245 18.5114 31.3245 18.633C31.3245 18.8355 31.2838 19.038 31.2023 19.2405C31.1209 19.4431 31.0801 19.6861 31.0801 19.8886C31.0801 20.0102 31.0394 20.1317 30.9987 20.2127C31.1209 20.2532 31.1209 20.3747 31.1209 20.4962C31.1209 20.6178 31.0801 20.6988 31.0394 20.7393C30.9987 20.8608 30.9987 20.9823 30.9987 21.1038C30.9987 21.2254 30.9987 21.3469 30.9987 21.4684C30.8765 21.5494 30.8358 21.6304 30.8765 21.833C30.9173 21.995 30.8765 22.1165 30.7951 22.1975C30.7544 22.319 30.7137 22.4405 30.7137 22.5621C30.7137 22.6836 30.6729 22.8051 30.6322 22.9266C30.6322 23.2507 30.5915 23.6557 30.4693 24.1013C30.4286 24.1418 30.3879 24.2228 30.3879 24.3038C30.3879 24.3849 30.3879 24.4659 30.3879 24.5469C30.3879 24.7089 30.3472 24.8304 30.2657 24.9114C30.2657 24.9924 30.2657 25.0735 30.2657 25.1545C30.2657 25.2355 30.2657 25.276 30.2657 25.3975C30.2657 25.519 30.225 25.6 30.1843 25.7216C30.1435 25.8431 30.1028 25.9646 30.1028 26.0861C30.1028 26.2887 30.0621 26.4912 29.9807 26.6937C29.8992 26.8962 29.8178 27.0988 29.7363 27.2608H28.1482L27.8631 26.2887C27.8631 26.2481 27.8631 26.2076 27.8631 26.2076C27.8631 26.1671 27.8631 26.1671 27.8631 26.1266C27.8631 25.9241 27.8224 25.7621 27.7817 25.5595C27.741 25.3975 27.7002 25.195 27.7002 24.9924C27.7002 24.8709 27.7002 24.7899 27.6595 24.6684C27.6188 24.5469 27.6188 24.4254 27.6188 24.3038C27.6188 24.1013 27.5781 23.9798 27.4966 23.8988V23.4937C27.4966 23.3317 27.4966 23.2102 27.4559 23.0481C27.4152 22.9266 27.4152 22.7646 27.4152 22.6026C27.4152 22.5216 27.3745 22.4405 27.3338 22.3595C27.293 22.2785 27.2523 22.1975 27.2523 22.076C27.2523 21.914 27.2116 21.7519 27.1709 21.5899C27.1301 21.4279 27.0894 21.2659 27.0894 21.1038C27.0894 20.9418 27.0487 20.8203 27.008 20.7393C27.008 20.5368 26.9673 20.3747 26.9265 20.1722C26.8858 20.0102 26.8451 19.8076 26.8451 19.6051C26.8451 19.4836 26.8044 19.4026 26.7637 19.2811C26.7229 19.1595 26.6822 19.038 26.6822 18.9165C26.6822 18.7545 26.6822 18.5924 26.6415 18.4709C26.6008 18.3494 26.6008 18.2279 26.6008 18.0254C26.6008 17.8633 26.56 17.7418 26.5193 17.6608C26.3972 17.2152 26.3564 16.8102 26.3564 16.3646C26.3564 16.2026 26.3564 16.0811 26.3157 15.9595C26.275 15.838 26.275 15.676 26.275 15.514C26.275 15.3924 26.2343 15.3114 26.1935 15.1899C26.1528 15.0684 26.2343 15.0279 26.2343 14.9064C26.2343 14.7443 26.1935 14.6228 26.1528 14.5823C26.1528 14.3393 26.1121 14.1367 26.0714 13.8937C26.0307 13.6912 25.9899 13.4481 25.9899 13.2051C25.9899 13.0836 25.9899 13.0026 25.9492 12.8811C25.9085 12.7595 25.9085 12.638 25.9085 12.5165C25.9085 12.3545 25.8678 12.233 25.7863 12.1519V11.9089C25.7863 11.7064 25.7456 11.5038 25.7049 11.3013C25.6234 11.1393 25.6234 10.9367 25.6642 10.7342C25.5827 10.6937 25.542 10.5722 25.542 10.3697C25.5013 10.1671 25.5013 10.0051 25.4606 9.92409V9.55953C25.4606 9.39751 25.4198 9.27599 25.3791 9.11396C25.3384 8.99244 25.2977 8.83042 25.2977 8.66839C25.2977 8.54687 25.2977 8.42536 25.2569 8.26333C25.2162 8.14181 25.2162 7.97979 25.2162 7.81776C25.2162 7.53422 25.1348 7.21017 24.9719 6.88611C24.809 6.56206 24.5647 6.40004 24.1982 6.40004L23.9539 5.83295V5.26586C23.9946 5.18485 24.0353 5.10384 24.1167 5.02282C24.1982 4.94181 24.2796 4.9013 24.3204 4.77979H28.3518C28.3925 4.9013 28.3925 5.02282 28.4332 5.06333C28.474 5.10384 28.474 5.18485 28.5147 5.26586C28.5554 5.34687 28.5554 5.38738 28.5554 5.5089C28.5554 5.58991 28.5554 5.71143 28.5554 5.87346C28.5554 5.91396 28.5147 5.99498 28.474 6.07599C28.4332 6.157 28.3518 6.23801 28.2704 6.35953C28.1889 6.48105 28.1075 6.56206 28.026 6.68358C27.9446 6.7646 27.9039 6.84561 27.8631 6.92662C27.9039 7.04814 27.9039 7.16966 27.9039 7.25067C27.9039 7.33168 27.9446 7.4532 27.9853 7.57472V8.38485C28.0667 8.46586 28.1075 8.58738 28.1075 8.7089C28.1075 8.83042 28.1075 8.95194 28.1075 9.03295C28.1075 9.15447 28.1482 9.27599 28.1889 9.39751C28.2296 9.51903 28.2704 9.64055 28.2704 9.80257C28.2704 9.9646 28.2704 10.0861 28.3111 10.2076C28.3518 10.3292 28.3518 10.4507 28.3518 10.6127C28.3518 10.7747 28.3925 10.8962 28.4332 11.0583C28.474 11.1798 28.5147 11.3418 28.5147 11.5038C28.5147 11.6254 28.5147 11.7064 28.5554 11.8279C28.5961 11.9494 28.5961 12.0709 28.5961 12.233C28.5961 12.395 28.6368 12.5165 28.7183 12.5975C28.7183 12.8405 28.759 13.0431 28.7997 13.2456C28.8405 13.4481 28.8812 13.6507 28.8812 13.8937C28.8812 14.0152 28.9219 14.1367 28.9626 14.2178C29.0033 14.2988 29.0033 14.3393 29.0033 14.4203C28.9626 14.5013 28.9626 14.5823 28.9626 14.6228C28.9626 14.7848 29.0033 14.9064 29.0441 15.0684C29.0848 15.1899 29.1255 15.3519 29.1255 15.514C29.1255 15.6355 29.1255 15.757 29.1662 15.8785C29.2069 16 29.207 16.1621 29.207 16.3241C29.207 16.3646 29.207 16.3646 29.2477 16.4051C29.2477 16.4456 29.2884 16.4861 29.2884 16.4861C29.3291 16.5671 29.3291 16.6481 29.3291 16.7292C29.3291 16.8507 29.3291 16.9317 29.3698 17.0127C29.4106 17.1342 29.4513 17.2152 29.4513 17.2962C29.4513 17.3773 29.4513 17.4988 29.4513 17.6203C29.4513 17.7418 29.492 17.8633 29.5327 17.9849C29.5734 18.1064 29.6142 18.2279 29.6142 18.3899C29.6142 18.5924 29.6549 18.714 29.6956 18.795C29.6956 18.876 29.6956 19.038 29.7363 19.2C29.7771 19.4026 29.8585 19.4836 29.9399 19.4836C30.0621 19.4836 30.1028 19.4026 30.1435 19.1595C30.1843 18.957 30.1843 18.8355 30.1843 18.7545C30.1843 18.633 30.225 18.5114 30.2657 18.3899C30.2657 18.1064 30.3064 17.8633 30.3879 17.7013C30.3879 17.5393 30.3879 17.3368 30.4286 17.1747C30.4693 16.9722 30.4693 16.8102 30.51 16.6481C30.5915 16.4051 30.6322 16.0811 30.6322 15.757C30.6729 15.7165 30.6729 15.676 30.7137 15.5545C30.7544 15.433 30.7544 15.3114 30.7951 15.1494C30.8358 14.9874 30.8358 14.8659 30.8358 14.7443C30.8358 14.6228 30.8358 14.5418 30.8358 14.5013C30.8358 14.3798 30.8765 14.2988 30.9173 14.1773C30.9173 13.9747 30.958 13.8127 30.9987 13.6102C31.0394 13.4481 31.0801 13.2456 31.0801 13.0431C31.0801 12.9216 31.1209 12.8405 31.1616 12.719C31.2023 12.5975 31.2023 12.5165 31.2023 12.395C31.2023 12.2735 31.243 12.1924 31.2838 12.1114C31.243 11.6659 31.3245 11.2203 31.4466 10.7747C31.5688 10.3292 31.6503 9.88358 31.6503 9.43801C31.6503 9.27599 31.691 9.11396 31.7317 8.99244C31.7724 8.87093 31.8131 8.7089 31.7724 8.54687C31.8539 8.38485 31.8946 8.22282 31.8946 7.97979C31.8946 7.89877 31.8946 7.81776 31.9353 7.73675C31.976 7.65574 31.976 7.57472 31.976 7.49371C31.976 7.16966 31.976 6.96713 31.976 6.84561C31.976 6.72409 31.9353 6.64308 31.8946 6.60257C31.8539 6.52156 31.8131 6.48105 31.7317 6.40004C31.6502 6.31903 31.5688 6.157 31.4059 5.95447V5.26586H31.3652Z" fill="#323232"/>
<path d="M42.3192 13.8127C42.3599 13.8532 42.4007 13.9747 42.4821 14.1773C42.5636 14.3798 42.6043 14.5013 42.6043 14.5418V17.9443C42.5636 18.0254 42.5228 18.0659 42.4414 18.1874C42.4007 18.2684 42.3599 18.3494 42.2785 18.4304H41.7084C41.6677 18.2684 41.627 18.1874 41.5455 18.1064C41.4641 18.0254 41.4234 17.9038 41.4234 17.7013C41.3419 17.5798 41.3012 17.4583 41.2197 17.3367C41.1383 17.2152 41.0976 17.0937 41.0161 17.0127C40.9754 17.0127 40.9347 17.0127 40.8532 17.0127C40.8125 17.0127 40.7311 17.0127 40.6904 17.0127C40.6089 17.0127 40.5682 17.0127 40.4868 16.9722C40.4053 16.9317 40.3239 16.9317 40.2424 16.9317L40.1203 17.0127C40.0795 16.9722 40.0388 16.9722 39.9574 16.9317C39.8759 16.8912 39.8352 16.8912 39.7945 16.8912L39.713 17.0127C39.6723 17.0532 39.6316 17.0127 39.5909 17.0127C39.5502 16.9722 39.5094 16.9722 39.4687 16.9722C39.3465 16.9722 39.2651 17.0127 39.2244 17.1342C39.1429 17.2557 39.1429 17.3773 39.1429 17.4583C39.1429 17.5393 39.1429 17.5798 39.1837 17.6608C39.2244 17.7418 39.2244 17.7823 39.2244 17.8633L39.1429 17.9849C39.2651 18.0659 39.2651 18.1064 39.2651 18.2279C39.2651 18.4304 39.2244 18.633 39.1837 18.8355C39.1429 19.038 39.1022 19.2811 39.1022 19.5241C39.1022 19.8076 39.1022 20.1317 39.1429 20.4557C39.1837 20.7798 39.1837 21.0633 39.1429 21.3874C39.1429 21.5494 39.1429 21.6709 39.1837 21.7924C39.2651 21.8735 39.2651 21.995 39.2651 22.1165C39.2651 22.2785 39.2244 22.4405 39.1837 22.6026C39.1429 22.7646 39.1022 22.9266 39.1022 23.0886C39.1022 23.2507 39.1022 23.3722 39.1429 23.5342C39.1837 23.6962 39.1837 23.8178 39.1837 23.9798C39.1837 24.1418 39.1837 24.3038 39.1429 24.4659C39.1022 24.6279 39.1022 24.7899 39.1022 24.9519C39.1022 24.9924 39.1429 25.114 39.1837 25.3165C39.2244 25.3975 39.2651 25.438 39.2651 25.438C39.3058 25.4785 39.3058 25.519 39.3465 25.6C39.7538 25.5595 40.2017 25.5595 40.6904 25.5595C41.1383 25.6 41.5862 25.6 41.9935 25.6C42.0749 25.6 42.1156 25.5595 42.1563 25.519C42.1971 25.4785 42.2378 25.438 42.2785 25.3975H42.4821C42.645 25.1545 42.7672 24.8304 42.93 24.4254C43.0929 24.0203 43.1337 23.6962 43.1337 23.4127H43.1744C43.2558 23.4127 43.2965 23.3722 43.3373 23.2912C43.378 23.2102 43.4187 23.1697 43.5002 23.1697H44.0295L44.2739 23.6962V26.6532L44.0295 27.1798H36.2924L36.0481 26.6532V26.1266C36.0481 26.0051 36.1295 25.8431 36.3739 25.6C36.5775 25.357 36.6996 25.1545 36.7404 25.033L36.6589 24.8304C36.6589 24.6684 36.6996 24.5064 36.7404 24.3849C36.7811 24.2633 36.7811 24.1013 36.7404 23.9393C36.7404 23.8178 36.7404 23.6962 36.7404 23.5747C36.7404 23.4532 36.7404 23.3317 36.7404 23.2102C36.7404 23.0886 36.7404 22.9671 36.7404 22.8456C36.7404 22.7241 36.7404 22.6026 36.7404 22.4811C36.7811 22.3595 36.8218 22.1975 36.8218 21.995C36.8218 21.7924 36.8218 21.6304 36.7811 21.4279C36.7404 21.2254 36.7404 21.0228 36.7404 20.8203C36.7404 20.6178 36.7404 20.4152 36.7811 20.2127C36.8218 20.0102 36.7811 19.8076 36.7404 19.6051C36.7811 19.4836 36.8218 19.4026 36.8218 19.2811C36.8218 19.1595 36.8218 19.0785 36.8218 18.957C36.8218 18.714 36.7811 18.4709 36.7404 18.1469C36.6589 17.8228 36.6996 17.5798 36.7811 17.3773C36.7404 17.2557 36.7404 17.1747 36.7404 17.0937C36.7404 17.0127 36.7404 16.9317 36.7404 16.8912C36.7404 16.8507 36.7811 16.8102 36.8218 16.6481V15.1899C36.7811 15.1494 36.7811 15.1089 36.7811 15.0279C36.7811 14.9469 36.7811 14.8659 36.8218 14.7848C36.8625 14.7038 36.8625 14.6633 36.8625 14.5418C36.8625 14.4203 36.8625 14.2988 36.8625 14.1367C36.8625 13.9747 36.8625 13.8127 36.8218 13.7317C36.9033 13.5292 36.9033 13.2456 36.8218 12.8811C36.7811 12.5165 36.7404 12.233 36.7404 11.9899C36.7404 11.9494 36.7404 11.9494 36.7811 11.9089C36.8218 11.8684 36.8218 11.8684 36.8218 11.8279C36.7811 11.6659 36.7811 11.5443 36.8218 11.3823C36.7811 11.2608 36.7811 11.1798 36.7811 11.1393C36.7811 11.0988 36.8218 11.0178 36.8218 10.8962C36.7811 10.8152 36.7811 10.7747 36.8218 10.6532C36.8218 10.5722 36.8218 10.4912 36.8218 10.4102C36.8625 10.3697 36.8625 10.3292 36.8625 10.2076C36.8625 10.0861 36.8625 10.0051 36.8218 9.9646C36.8625 9.80257 36.8625 9.68105 36.8218 9.51903C36.8625 9.27599 36.8625 8.91143 36.8218 8.46586C36.7811 8.02029 36.7811 7.61523 36.8218 7.33168C36.7404 7.21017 36.6996 7.12915 36.6996 7.00763C36.6996 6.92662 36.6589 6.8051 36.6182 6.68358C36.496 6.56206 36.4146 6.44054 36.2924 6.27852C36.1703 6.11649 36.1295 5.95447 36.1295 5.79244C36.1295 5.58991 36.1703 5.38738 36.2924 5.10384L36.5775 4.8608C36.5775 4.77979 36.6182 4.77979 36.6589 4.77979C36.9847 4.77979 37.3105 4.77979 37.6362 4.77979C37.962 4.77979 38.3285 4.77979 38.6543 4.77979C38.8172 4.77979 39.0615 4.77978 39.3058 4.82029C39.5909 4.8608 39.8352 4.8608 40.1203 4.8608C40.4053 4.8608 40.6904 4.8608 40.9347 4.8608C41.2197 4.8608 41.4233 4.82029 41.5862 4.77979C41.912 4.8608 42.2785 4.9013 42.6857 4.8608C43.0929 4.82029 43.4594 4.77979 43.8259 4.77979C43.9888 4.77979 44.0703 4.77978 44.111 4.82029L44.396 5.26586C44.3146 5.71143 44.2739 6.157 44.3146 6.68358C44.3553 7.21017 44.396 7.65573 44.396 8.14181C44.396 8.42536 44.3553 8.62789 44.3146 8.66839C44.2331 8.7089 44.1924 8.83042 44.1517 8.99244H43.5816C43.5816 8.91143 43.5409 8.83042 43.5002 8.78991C43.4594 8.74941 43.378 8.7089 43.3373 8.62789C43.3373 8.54687 43.2965 8.46586 43.2558 8.42535C43.2151 8.38485 43.1744 8.34434 43.1337 8.26333V8.18232C43.1337 8.0608 43.1337 7.97979 43.0929 7.89877C43.0522 7.81776 43.0522 7.73675 43.0115 7.61523C42.9708 7.53422 42.93 7.49371 42.93 7.4127C42.8893 7.33168 42.8893 7.25067 42.8486 7.21016C42.7672 7.16966 42.7264 7.12915 42.6857 7.08865C42.645 7.04814 42.645 7.00763 42.645 6.88611C42.6043 6.84561 42.5636 6.8051 42.5228 6.8051C42.4821 6.8051 42.4414 6.72409 42.3599 6.60257C42.3192 6.56206 42.2785 6.56206 42.2378 6.56206C42.1971 6.56206 42.1563 6.56206 42.1156 6.56206C41.9935 6.56206 41.912 6.48105 41.912 6.35953C41.8306 6.31903 41.7898 6.35953 41.7084 6.35953C41.627 6.40004 41.5455 6.40004 41.5048 6.35953C41.2605 6.48105 41.179 6.48105 41.0569 6.48105C40.9347 6.48105 40.8532 6.48105 40.7718 6.48105C40.5682 6.48105 40.4053 6.48105 40.2017 6.44054C39.9981 6.40004 39.8352 6.40004 39.6316 6.40004C39.5909 6.40004 39.5909 6.40004 39.5502 6.40004C39.5094 6.40004 39.5094 6.40004 39.4687 6.40004C39.4687 6.48105 39.428 6.56206 39.3465 6.64308C39.3058 6.7646 39.2651 6.84561 39.1837 6.92662C39.2244 7.08865 39.2244 7.21017 39.1837 7.37219C39.1429 7.49371 39.1429 7.65573 39.1837 7.81776C39.2244 7.85827 39.2244 7.85827 39.2244 7.89877C39.2244 7.93928 39.2244 7.97979 39.1837 8.0608C39.1429 8.1013 39.1429 8.18232 39.1837 8.22282C39.1429 8.38485 39.1429 8.58738 39.1837 8.74941C39.2244 8.91143 39.2244 9.11396 39.2244 9.27599C39.2244 9.39751 39.2244 9.47852 39.2244 9.60004C39.2244 9.68105 39.1837 9.80257 39.1837 9.92409C39.2651 10.0861 39.2651 10.3697 39.2244 10.6937C39.1837 11.0583 39.1429 11.3013 39.1429 11.5038L39.2244 11.6254C39.2651 11.6254 39.3058 11.6659 39.3058 11.7064C39.3058 11.7874 39.3058 11.8279 39.2651 11.9089C39.2244 11.9899 39.2244 12.0304 39.2244 12.1114C39.2651 12.1519 39.3058 12.233 39.3058 12.314C39.3058 12.4355 39.3058 12.5165 39.3058 12.638C39.3058 12.7595 39.2651 12.8811 39.2651 12.9621C39.2244 12.9621 39.2244 13.0026 39.2244 13.0431C39.2244 13.0836 39.2244 13.1646 39.2651 13.2456C39.3058 13.3266 39.3058 13.3671 39.2651 13.4076V13.5697C39.2651 13.7317 39.2651 13.8937 39.3058 14.0962C39.3465 14.2583 39.3465 14.4203 39.3465 14.6228C39.3465 14.6633 39.3465 14.7038 39.3058 14.7038C39.2651 14.7038 39.2651 14.7443 39.2651 14.7848C39.2651 14.8659 39.3058 14.9874 39.3873 15.1089C39.4687 15.2304 39.5502 15.2709 39.6316 15.2709C39.6723 15.2709 39.6723 15.2709 39.6723 15.2709C39.6723 15.2709 39.6723 15.2709 39.713 15.2709C39.7538 15.2709 39.7945 15.2709 39.7945 15.2304C39.7945 15.1899 39.8352 15.1899 39.8759 15.1899C39.9574 15.1899 39.9981 15.1899 39.9981 15.2304C40.1203 15.2304 40.2017 15.2304 40.2831 15.2304C40.3646 15.2304 40.446 15.2304 40.5682 15.2304C40.6904 15.2304 40.7718 15.2304 40.8532 15.1899C40.9347 15.1494 41.0569 15.1494 41.179 15.1899C41.3419 14.9469 41.4641 14.7038 41.5455 14.5013C41.627 14.2583 41.7491 14.0152 41.8713 13.8127H42.3192V13.8127Z" fill="#323232"/>
<path d="M48.6312 24.8709C48.6719 24.9114 48.7126 24.9924 48.7941 25.1139C48.8755 25.2355 48.9569 25.357 48.9977 25.4785C49.0791 25.6 49.1198 25.7215 49.2013 25.8431C49.2827 25.9646 49.3234 26.0456 49.3642 26.0456C49.4456 26.1266 49.4456 26.1671 49.4456 26.2886L49.4049 26.3696C49.3642 26.3696 49.3234 26.4506 49.3234 26.6127C49.3234 26.7747 49.2827 26.8557 49.242 26.8962H49.1605C49.0384 26.8962 48.9977 26.9367 48.9569 27.0582C48.9162 27.1798 48.8755 27.1798 48.8348 27.1393C48.7941 27.0987 48.7533 27.0987 48.7126 27.0987C48.5904 27.0987 48.509 27.0987 48.3868 27.1393C48.2647 27.1798 48.1425 27.1798 48.0611 27.1393C47.9389 27.1798 47.8982 27.2203 47.8982 27.2203C47.776 27.2203 47.6946 27.1798 47.6538 27.1393C47.5724 27.0987 47.5317 27.0582 47.4095 27.0582L46.3508 27.1798C46.2286 27.1798 46.1471 27.1393 46.0657 27.0987C45.9843 27.0582 45.9028 27.0582 45.7807 27.0987C45.6992 27.0987 45.6585 27.0177 45.6178 26.8557C45.577 26.6937 45.5363 26.5722 45.5363 26.5317C45.577 26.4912 45.577 26.4506 45.577 26.3291C45.577 26.1671 45.577 26.0456 45.5363 25.9646C45.6585 25.8431 45.6992 25.7215 45.7807 25.6405C45.8214 25.5595 45.8621 25.4785 45.9028 25.3975C45.9435 25.3165 45.9843 25.276 45.9843 25.2355V25.195C45.9843 25.1139 46.025 25.0329 46.0657 24.9114C46.1471 24.8304 46.1879 24.7494 46.2286 24.6684C46.2693 24.5469 46.2693 24.5063 46.2286 24.4658C46.1879 24.4253 46.1879 24.3848 46.1879 24.3038C46.1879 24.2633 46.1879 24.2633 46.2286 24.2228C46.1879 23.5342 46.1879 22.8861 46.2286 22.1975C46.2693 21.5494 46.31 20.8608 46.31 20.2127C46.31 19.9696 46.31 19.7671 46.2693 19.5646C46.2286 19.362 46.2286 19.1595 46.2286 18.957C46.2286 17.2962 46.2286 15.676 46.2286 14.0962C46.2286 12.5165 46.2286 10.8962 46.2286 9.23546L46.1879 7.00761C46.1471 6.9266 46.0657 6.84559 46.025 6.76457C45.9435 6.64306 45.8621 6.56204 45.7807 6.44052C45.6992 6.319 45.6585 6.19749 45.577 6.11647C45.5363 6.03546 45.4956 5.95445 45.4956 5.91394C45.4956 5.79242 45.4956 5.71141 45.4956 5.58989C45.4956 5.46837 45.4956 5.38736 45.4956 5.26584C45.577 5.18483 45.6178 5.10381 45.6585 5.0228C45.6992 4.94179 45.7399 4.86078 45.8214 4.77976C45.8621 4.73926 45.9843 4.73926 46.1879 4.73926C46.6765 4.73926 47.1245 4.73926 47.6131 4.73926C48.1018 4.73926 48.5904 4.73926 49.0791 4.77976C49.1198 4.90128 49.2013 5.0228 49.3234 5.18483C49.4456 5.30635 49.4863 5.46837 49.4863 5.58989C49.4863 5.71141 49.4456 5.79242 49.4049 5.83293C49.3234 5.87343 49.3234 5.99495 49.3642 6.11647C49.3234 6.15698 49.3234 6.19749 49.242 6.319C49.2013 6.44052 49.1605 6.44052 49.0791 6.40002C48.9977 6.52154 48.9162 6.64306 48.8755 6.76457C48.8348 6.88609 48.7533 7.00761 48.6719 7.12913C48.6719 8.2228 48.6719 9.27597 48.6719 10.3291C48.6719 11.3823 48.6719 12.4355 48.6719 13.5291C48.6719 14.6633 48.6719 15.838 48.6719 16.9722C48.6719 18.1063 48.6719 19.2405 48.6719 20.4152C48.6719 20.5772 48.6719 20.6987 48.7126 20.8608C48.7533 21.0228 48.7533 21.1443 48.7533 21.3063C48.7533 21.5089 48.7126 21.6709 48.6719 21.8734V24.8709H48.6312Z" fill="#323232"/>
<path d="M58.893 23.6962V26.7342L58.6079 27.2202H51.0337L50.7894 26.6937V26.1266C50.9115 25.924 51.0337 25.7215 51.1559 25.519C51.3188 25.3164 51.4409 25.1139 51.5631 24.9114V7.65568C51.5631 7.41264 51.5224 7.21011 51.4409 7.04808C51.3595 6.88606 51.278 6.72403 51.1559 6.60251C51.0337 6.48099 50.9523 6.31897 50.8708 6.19745C50.7894 6.07593 50.7487 5.95441 50.7487 5.83289C50.7487 5.71137 50.7894 5.63036 50.8301 5.50884C50.8708 5.38732 50.9115 5.2658 50.8708 5.18479C50.9523 5.14428 51.0337 5.06327 51.1966 4.90125H54.0878C54.1693 4.90125 54.2507 4.94175 54.2914 4.98226C54.3322 5.02276 54.3729 5.06327 54.4543 5.10378L54.5358 5.18479C54.5358 5.30631 54.5765 5.38732 54.6172 5.50884C54.6987 5.63036 54.6987 5.75188 54.6987 5.8734C54.6987 5.9139 54.6987 5.9139 54.6987 5.95441C54.6987 5.99492 54.6987 5.99492 54.6987 6.03542C54.6172 6.11643 54.5358 6.27846 54.3729 6.5215C54.21 6.76454 54.0878 6.92656 54.0064 6.96707V25.2354C54.0878 25.3164 54.1286 25.3569 54.1693 25.438C54.21 25.519 54.2914 25.6 54.3322 25.681H56.2054C56.2461 25.681 56.2868 25.681 56.2868 25.681C56.2868 25.681 56.3275 25.681 56.3682 25.681C56.409 25.5595 56.4497 25.519 56.5311 25.519C56.5719 25.519 56.6533 25.519 56.7347 25.519C56.8162 25.519 56.8976 25.438 56.9383 25.3164C57.0605 25.3164 57.142 25.2354 57.2641 25.0329C57.3456 24.8709 57.427 24.7088 57.5085 24.5873V24.3038C57.5085 24.0607 57.5492 23.8582 57.6713 23.6962C57.7935 23.5342 57.8749 23.3721 57.9157 23.1696H58.6487L58.893 23.6962Z" fill="#323232"/>
<path d="M66.5894 13.8127C66.6301 13.8532 66.6708 13.9747 66.7523 14.1773C66.8337 14.3798 66.8744 14.5013 66.8744 14.5418V17.9443C66.8337 18.0254 66.793 18.0659 66.7116 18.1874C66.6708 18.2684 66.6301 18.3494 66.5487 18.4304H65.9786C65.9379 18.2684 65.8971 18.1874 65.8157 18.1064C65.7342 18.0254 65.6935 17.9038 65.6935 17.7013C65.6121 17.5798 65.5714 17.4583 65.4899 17.3367C65.4085 17.2152 65.3677 17.0937 65.2863 17.0127C65.2456 17.0127 65.2049 17.0127 65.1234 17.0127C65.0827 17.0127 65.0013 17.0127 64.9605 17.0127C64.8791 17.0127 64.8384 17.0127 64.7569 16.9722C64.6755 16.9317 64.594 16.9317 64.5126 16.9317L64.3904 17.0127C64.3497 16.9722 64.309 16.9722 64.2275 16.9317C64.1461 16.8912 64.1054 16.8912 64.0647 16.8912L63.9832 16.9722C63.9425 17.0127 63.9018 16.9722 63.861 16.9722C63.8203 16.9317 63.7796 16.9317 63.7389 16.9317C63.6167 16.9317 63.5353 16.9722 63.4945 17.0937C63.4131 17.2152 63.4131 17.3367 63.4131 17.4178C63.4131 17.4988 63.4131 17.5393 63.4538 17.6203C63.4945 17.7013 63.4945 17.7418 63.4945 17.8228L63.4131 17.9443C63.4946 18.0254 63.4945 18.0659 63.4945 18.1874C63.4945 18.3899 63.4538 18.5924 63.4131 18.795C63.3724 18.9975 63.3317 19.2405 63.3317 19.4836C63.3317 19.7671 63.3317 20.0912 63.3724 20.4152C63.4131 20.7393 63.4131 21.0228 63.3724 21.3469C63.3724 21.5089 63.3724 21.6304 63.4131 21.7519C63.4538 21.8735 63.4538 21.995 63.4538 22.1165C63.4538 22.2785 63.4131 22.4405 63.3724 22.6026C63.3317 22.7646 63.2909 22.9266 63.2909 23.0886C63.2909 23.2507 63.2909 23.3722 63.3317 23.5342C63.3724 23.6962 63.3724 23.8178 63.3724 23.9798C63.3724 24.1418 63.3724 24.3038 63.3317 24.4659C63.2909 24.6279 63.2909 24.7899 63.2909 24.9519C63.2909 24.9924 63.3317 25.114 63.3724 25.3165C63.4131 25.3975 63.4538 25.438 63.4538 25.438C63.4945 25.4785 63.4946 25.519 63.5353 25.6C63.9425 25.5595 64.3904 25.5595 64.8791 25.5595C65.327 25.6 65.775 25.6 66.1822 25.6C66.2636 25.6 66.3043 25.5595 66.3451 25.519C66.3858 25.4785 66.4265 25.438 66.4672 25.3975H66.6708C66.8337 25.1545 66.9559 24.8304 67.1188 24.4254C67.2817 24.0203 67.3224 23.6962 67.3224 23.4127H67.3631C67.4446 23.4127 67.4853 23.3722 67.526 23.2912C67.5667 23.2102 67.6074 23.1697 67.6889 23.1697H68.2183L68.4626 23.6962V26.6532L68.2183 27.1798H60.4811L60.2368 26.6532V26.1266C60.2368 26.0051 60.3183 25.8431 60.5626 25.6C60.7662 25.357 60.8884 25.1545 60.9291 25.033L60.8476 24.8304C60.8476 24.6684 60.8884 24.5064 60.9291 24.3849C60.9698 24.2633 60.9698 24.1013 60.9291 23.9393C60.9291 23.8178 60.9291 23.6962 60.9291 23.5747C60.9291 23.4532 60.9291 23.3317 60.9291 23.2102C60.9291 23.0886 60.9291 22.9671 60.9291 22.8456C60.9291 22.7241 60.9291 22.6026 60.9291 22.4811C60.9698 22.3595 61.0105 22.1975 61.0105 21.995C61.0105 21.7924 61.0105 21.6304 60.9698 21.4279C60.9291 21.2254 60.9291 21.0228 60.9291 20.8203C60.9291 20.6178 60.9291 20.4152 60.9698 20.2127C61.0105 20.0102 60.9698 19.8076 60.9291 19.6051C60.9698 19.4836 61.0105 19.4026 61.0105 19.2811C61.0105 19.1595 61.0105 19.0785 61.0105 18.957C61.0105 18.714 60.9698 18.4709 60.9291 18.1469C60.8476 17.8228 60.8884 17.5798 60.9698 17.3773C60.9291 17.2557 60.9291 17.1747 60.9291 17.0937C60.9291 17.0127 60.9291 16.9317 60.9291 16.8912C60.9291 16.8507 60.9698 16.8102 61.0105 16.6481V15.1899C60.9698 15.1494 60.9698 15.1089 60.9698 15.0279C60.9698 14.9469 60.9698 14.8659 61.0105 14.7848C61.0512 14.7038 61.0512 14.6633 61.0512 14.5418C61.0512 14.4203 61.0512 14.2988 61.0512 14.1367C61.0512 13.9747 61.0512 13.8127 61.0105 13.7317C61.092 13.5292 61.092 13.2456 61.0105 12.8811C60.9698 12.5165 60.9291 12.233 60.9291 11.9899C60.9291 11.9494 60.9291 11.9494 60.9698 11.9089C61.0105 11.8684 61.0105 11.8684 61.0105 11.8279C60.9698 11.6659 60.9698 11.5443 61.0105 11.3823C60.9698 11.2608 60.9698 11.1798 60.9698 11.1393C60.9698 11.0988 61.0105 11.0178 61.0105 10.8962C60.9698 10.8152 60.9698 10.7747 61.0105 10.6532C61.0105 10.5722 61.0105 10.4912 61.0105 10.4102C61.0512 10.3697 61.0512 10.3292 61.0512 10.2076C61.0512 10.0861 61.0512 10.0051 61.0105 9.9646C61.0512 9.80257 61.0512 9.68105 61.0105 9.51903C61.0512 9.27599 61.0512 8.91143 61.0105 8.46586C60.9698 8.02029 60.9698 7.61523 61.0105 7.33168C60.9291 7.21017 60.8884 7.12915 60.8884 7.00763C60.8884 6.92662 60.8476 6.8051 60.8069 6.68358C60.6848 6.56206 60.6033 6.44054 60.4811 6.27852C60.359 6.11649 60.3183 5.95447 60.3183 5.79244C60.3183 5.58991 60.359 5.38738 60.4811 5.10384L60.7662 4.8608C60.7662 4.77979 60.8069 4.77979 60.8476 4.77979C61.1734 4.77979 61.4992 4.77979 61.825 4.77979C62.1507 4.77979 62.5172 4.77979 62.843 4.77979C63.0059 4.77979 63.2502 4.77978 63.4945 4.82029C63.7796 4.8608 64.0239 4.8608 64.309 4.8608C64.594 4.8608 64.8791 4.8608 65.1234 4.8608C65.4085 4.8608 65.6121 4.82029 65.775 4.77979C66.1007 4.8608 66.4672 4.9013 66.8744 4.8608C67.2817 4.82029 67.6482 4.77979 68.0147 4.77979C68.1775 4.77979 68.259 4.77978 68.2997 4.82029L68.5848 5.26586C68.5033 5.71143 68.4626 6.157 68.5033 6.68358C68.544 7.21017 68.5848 7.65573 68.5848 8.14181C68.5848 8.42536 68.544 8.62789 68.5033 8.66839C68.4219 8.7089 68.3811 8.83042 68.3404 8.99244H67.7703C67.7703 8.91143 67.7296 8.83042 67.6889 8.78991C67.6482 8.74941 67.5667 8.7089 67.526 8.62789C67.526 8.54687 67.4853 8.46586 67.4446 8.42535C67.4038 8.38485 67.3631 8.34434 67.3224 8.26333V8.18232C67.3224 8.0608 67.3224 7.97979 67.2817 7.89877C67.2409 7.81776 67.2409 7.73675 67.2002 7.61523C67.1595 7.53422 67.1188 7.49371 67.1188 7.4127C67.0781 7.33168 67.0781 7.25067 67.0373 7.21016C66.9559 7.16966 66.9152 7.12915 66.8744 7.08865C66.8337 7.04814 66.8337 7.00763 66.8337 6.88611C66.793 6.84561 66.7523 6.8051 66.7116 6.8051C66.6708 6.8051 66.6301 6.72409 66.5487 6.60257C66.508 6.56206 66.4672 6.56206 66.4265 6.56206C66.3858 6.56206 66.3451 6.56206 66.3043 6.56206C66.1822 6.56206 66.1007 6.48105 66.1007 6.35953C66.0193 6.31903 65.9786 6.35953 65.8971 6.35953C65.8157 6.40004 65.7342 6.40004 65.6935 6.35953C65.6121 6.40004 65.5306 6.40004 65.4085 6.40004C65.2863 6.40004 65.2049 6.40004 65.1234 6.40004C64.9198 6.40004 64.7569 6.40004 64.5533 6.35953C64.3497 6.31903 64.1868 6.31903 63.9832 6.31903C63.9425 6.31903 63.9425 6.31903 63.9018 6.31903C63.861 6.31903 63.861 6.31903 63.8203 6.31903C63.8203 6.40004 63.7796 6.48105 63.6982 6.56206C63.6574 6.68358 63.6167 6.7646 63.5353 6.84561C63.576 7.00763 63.576 7.12915 63.5353 7.29118C63.4946 7.4127 63.4946 7.57472 63.5353 7.73675C63.576 7.77725 63.576 7.77725 63.576 7.81776C63.576 7.85827 63.576 7.89877 63.5353 7.97979C63.4946 8.02029 63.4946 8.1013 63.5353 8.14181C63.4946 8.30384 63.4946 8.50637 63.5353 8.66839C63.576 8.83042 63.576 9.03295 63.576 9.19498C63.576 9.31649 63.576 9.39751 63.576 9.51903C63.576 9.60004 63.5353 9.72156 63.5353 9.84308C63.6167 10.0051 63.6167 10.2886 63.576 10.6127C63.5353 10.9773 63.4945 11.2203 63.4945 11.4228L63.576 11.5443C63.6167 11.5443 63.6574 11.5848 63.6574 11.6254C63.6574 11.7064 63.6574 11.7469 63.6167 11.8279C63.576 11.9089 63.576 11.9494 63.576 12.0304C63.6167 12.0709 63.6574 12.1519 63.6574 12.233C63.6574 12.3545 63.6574 12.4355 63.6574 12.557C63.6574 12.6785 63.6167 12.8 63.6167 12.8811C63.576 12.8811 63.576 12.9216 63.576 12.9621C63.576 13.0026 63.576 13.0836 63.6167 13.1646C63.6574 13.2456 63.6574 13.2861 63.6167 13.3266V13.4886C63.6167 13.6507 63.6167 13.8127 63.6574 14.0152C63.6982 14.1773 63.6982 14.3393 63.6982 14.5418C63.6982 14.5823 63.6982 14.6228 63.6574 14.6228C63.6167 14.6228 63.6167 14.6633 63.6167 14.7038C63.6167 14.7848 63.6574 14.9064 63.7389 15.0279C63.8203 15.1494 63.9018 15.1899 63.9832 15.1899C64.0239 15.1899 64.0239 15.1899 64.0239 15.1899C64.0239 15.1899 64.0239 15.1899 64.0647 15.1899C64.1054 15.1899 64.1461 15.1899 64.1461 15.1494C64.1461 15.1089 64.1868 15.1089 64.2275 15.1089C64.309 15.1089 64.3497 15.1089 64.3497 15.1494C64.4719 15.1494 64.5533 15.1494 64.6348 15.1494C64.7162 15.1494 64.7976 15.1494 64.9198 15.1494C65.042 15.1494 65.1234 15.1494 65.2049 15.1089C65.2863 15.0684 65.4085 15.0684 65.5306 15.1089C65.6935 14.8659 65.8157 14.6228 65.8971 14.4203C65.9786 14.1773 66.1007 13.9342 66.2229 13.7317H66.5894V13.8127Z" fill="#323232"/>
<path d="M70.0915 27.1798C70.01 27.0988 69.9693 27.0177 69.9693 26.9367C69.9286 26.8962 69.9286 26.8557 69.9286 26.7747C69.9286 26.6937 69.8879 26.6532 69.8064 26.6937L69.725 26.4912C69.8471 26.3291 69.8879 26.2481 69.8471 26.2481C69.8064 26.2886 69.8064 26.2076 69.8064 26.1266C69.8064 26.0051 69.8471 25.8836 69.9286 25.8026C70.01 25.7215 70.0915 25.6405 70.2136 25.5595C70.2951 25.4785 70.3765 25.438 70.458 25.357C70.5394 25.276 70.5394 25.1544 70.5394 25.0329C70.4987 24.7899 70.4987 24.5469 70.5394 24.3038C70.5801 24.0608 70.5801 23.8177 70.5801 23.5747C70.5801 22.6836 70.5801 21.7924 70.5394 20.9013C70.4987 20.0101 70.4987 19.119 70.4987 18.2279C70.4987 17.4177 70.4987 16.6076 70.4987 15.757C70.4987 14.9063 70.4987 14.0962 70.4987 13.2861C70.4987 12.9215 70.4987 12.5165 70.5394 12.1114C70.5801 11.7063 70.5801 11.3418 70.5801 10.9367C70.5801 10.3696 70.5801 9.84306 70.5394 9.31647C70.4987 8.78989 70.4987 8.2228 70.4987 7.69622V6.96711L70.1729 6.44052C70.01 6.319 69.8879 6.19749 69.8471 6.07597C69.8064 5.95445 69.8064 5.79242 69.8064 5.6304V5.26584C69.8471 5.18483 69.8879 5.14432 69.9693 5.0228C70.01 4.94179 70.0915 4.86078 70.1322 4.77976C71.0281 4.82027 71.9647 4.82027 72.9013 4.77976C73.8379 4.73926 74.7745 4.73926 75.6703 4.73926C75.7925 4.73926 75.8332 4.82027 75.9147 4.94179C75.9961 4.9823 76.0776 4.9823 76.2812 4.9823H76.3626L76.5662 5.18483C76.7291 5.22533 76.8513 5.30635 76.9327 5.42787C77.0142 5.54938 77.177 5.58989 77.3399 5.58989C77.4621 5.79242 77.6657 6.07597 77.9508 6.35951C78.2358 6.64306 78.4801 7.00761 78.643 7.45318C78.8059 7.93926 78.9281 8.46584 78.9688 8.99242C79.0095 9.51901 79.0502 10.0456 79.0502 10.6127C79.0502 11.1393 79.0502 11.7063 79.0095 12.2329C78.9688 12.7595 78.9688 13.2861 78.9688 13.8127C78.9688 14.0962 78.9688 14.3393 79.0095 14.6228C79.0502 14.8658 79.0502 15.1494 79.0502 15.4329C79.0502 15.8785 79.0502 16.3241 79.0095 16.8101C78.9688 17.2557 78.9688 17.7418 78.9688 18.1874C78.9688 18.5519 78.9688 18.9165 79.0095 19.3215C79.0502 19.7266 79.0502 20.0912 79.0095 20.4557C79.0502 20.5367 79.0502 20.6988 79.0502 20.9823C79.0502 21.2658 79.0502 21.4684 79.0502 21.5494C79.0502 21.6709 79.0502 21.7924 79.0095 21.9139C78.9688 22.0355 78.9688 22.157 79.0095 22.2785C78.9688 22.4 78.9688 22.481 79.0095 22.6026C78.9688 22.7646 78.9281 22.9266 78.9281 23.0886C78.9281 23.2507 78.8874 23.4127 78.8466 23.6152C78.7245 24.1418 78.5616 24.6279 78.2765 25.1139C77.9915 25.6 77.6657 26.0051 77.2992 26.3291C77.2178 26.3696 77.177 26.4507 77.1363 26.4912C77.0956 26.5722 77.0142 26.5722 76.892 26.5317C76.8513 26.6532 76.8105 26.6937 76.8105 26.6937C76.7698 26.6937 76.7291 26.6937 76.6069 26.6937C76.5255 26.6937 76.4441 26.7747 76.4033 26.8962H75.9554C75.9147 27.0177 75.8739 27.0988 75.7925 27.0988C75.7111 27.0988 75.6296 27.0988 75.5482 27.0988C74.693 27.0988 73.8379 27.0988 72.9827 27.0988C72.1276 27.0988 71.3131 27.0988 70.458 27.0988C70.3765 27.0988 70.3358 27.0988 70.2951 27.0988C70.2136 27.1798 70.1729 27.1798 70.0915 27.1798ZM73.1049 6.9266C73.1049 7.16964 73.1049 7.37217 73.0642 7.61521C73.0234 7.81774 73.0234 8.06078 73.0234 8.30382C73.0234 8.46584 73.0234 8.62787 73.0642 8.78989C73.1049 8.95192 73.1049 9.11394 73.1049 9.27597C73.1049 9.43799 73.1049 9.55951 73.0642 9.68103C73.0234 9.80255 73.0234 9.96457 73.0234 10.0861C73.0234 10.3291 73.0234 10.6532 73.0642 11.0177C73.1049 11.4228 73.1049 11.8279 73.1456 12.2329C73.1863 12.638 73.1863 13.0431 73.1863 13.4076C73.1863 13.7722 73.1456 14.0152 73.1049 14.1772C73.1456 14.2177 73.1456 14.2988 73.1456 14.4203C73.1456 14.6228 73.1456 14.8253 73.1049 15.0279C73.0642 15.2304 73.0642 15.4329 73.0642 15.6355C73.0642 15.757 73.1049 15.8785 73.1456 15.9595C73.1049 16.2026 73.1049 16.5671 73.1049 17.0532C73.1049 17.5393 73.1049 17.9038 73.1049 18.1874C73.1049 18.4304 73.1049 18.6734 73.1049 18.876C73.1049 19.119 73.1049 19.362 73.1456 19.5646C73.0642 19.8886 73.0642 20.2937 73.1456 20.6988C73.227 21.1038 73.227 21.4684 73.1456 21.8329C73.1863 21.8734 73.1863 22.0355 73.1863 22.2785C73.1863 22.5215 73.1863 22.6836 73.1863 22.7646C73.227 22.8051 73.227 22.8051 73.227 22.8456C73.227 22.9266 73.227 22.9671 73.1863 23.0481C73.1456 23.1291 73.1456 23.1696 73.1863 23.2507C73.1456 23.2912 73.1456 23.3722 73.1456 23.4937C73.1456 23.5747 73.1456 23.6557 73.1863 23.7367C73.227 23.8177 73.227 23.8988 73.227 23.9798C73.227 24.0203 73.227 24.0608 73.227 24.0608C73.227 24.1013 73.227 24.1013 73.227 24.1418C73.1863 24.1823 73.1863 24.1823 73.1863 24.2228C73.1863 24.3848 73.1863 24.5063 73.1863 24.6279C73.1863 24.7494 73.1863 24.9114 73.1863 25.0329C73.227 25.0734 73.2678 25.1139 73.2678 25.1139C73.3085 25.1544 73.3085 25.195 73.3085 25.2355C73.3085 25.276 73.3492 25.3975 73.4714 25.4785C73.4714 25.438 73.5121 25.438 73.5528 25.438C73.5935 25.438 73.6343 25.438 73.6343 25.4785C73.675 25.519 73.675 25.519 73.7157 25.519C73.7564 25.519 73.7564 25.519 73.7971 25.519C73.8379 25.519 73.8379 25.519 73.8786 25.519C73.9193 25.4785 73.9193 25.4785 73.96 25.4785C74.0008 25.4785 74.0415 25.4785 74.1229 25.519C74.2044 25.5595 74.2044 25.5595 74.2451 25.5595C74.2858 25.5595 74.2858 25.519 74.3265 25.4785C74.408 25.519 74.4894 25.519 74.5301 25.438C74.6116 25.357 74.6523 25.3165 74.693 25.276H75.2224C75.2631 25.1545 75.3038 25.0734 75.3446 25.0734C75.3853 25.0734 75.4667 25.0734 75.5482 25.0329C75.5889 24.9114 75.6296 24.8709 75.7111 24.8709C75.7925 24.9114 75.8332 24.8709 75.9147 24.7899C76.0368 24.6279 76.159 24.4658 76.2404 24.2633C76.3219 24.0608 76.4441 23.8988 76.5255 23.7367V23.3317C76.5662 23.2101 76.6069 23.1291 76.6069 23.0076C76.6069 22.8861 76.6069 22.8051 76.6069 22.6836V8.91141C76.6069 8.70888 76.5662 8.46584 76.4848 8.26331C76.4033 8.02027 76.3219 7.85825 76.1997 7.65571C76.0776 7.41268 75.9147 7.21014 75.7925 7.04812H75.7518C75.6296 7.04812 75.5889 7.00761 75.5482 6.9266C75.5075 6.84559 75.426 6.80508 75.3038 6.80508C75.2224 6.80508 75.1817 6.76457 75.141 6.68356C75.1002 6.60255 75.0595 6.56204 75.0188 6.56204C74.8966 6.56204 74.7745 6.56204 74.6116 6.56204C74.4894 6.56204 74.3265 6.56204 74.2044 6.56204C74.1636 6.56204 74.1229 6.52154 74.0822 6.44052C74.0415 6.35951 74.0008 6.31901 73.9193 6.31901H73.3899C73.3492 6.40002 73.3085 6.48103 73.227 6.56204C73.1456 6.64306 73.1456 6.84559 73.1049 6.9266Z" fill="#323232"/>
</g>
<defs>
<clipPath id="clip0">
<rect width="79" height="32" fill="white" transform="translate(0.986816)"/>
</clipPath>
</defs>
</svg>
