<svg xmlns="http://www.w3.org/2000/svg" viewBox="0 0 241.39 244.07"><defs><style>.cls-1{fill:#19381f;}</style></defs><g id="Layer_2" data-name="Layer 2"><g id="Layer_1-2" data-name="Layer 1"><path class="cls-1" d="M219.78,143.9c.71-4.16,2.87-8.23,5.9-10,1.21-.83,2.3-.25,2.14.68s-1.89,1.58-3.89,1.23a15,15,0,0,0-3.29,7.2c-.8,4.66.56,9.25,4.64,10,8.35,1.42,9.9-16.25,18.37-14.81,4.16.71,5,5.13,4.24,9.48a17.83,17.83,0,0,1-3,7.38c-1.29,1.72-2.5,1.19-2.51.28,0-1.07,1.35-2.1,3.29-2.09a14.55,14.55,0,0,0,1.72-5c.61-3.58.08-7.44-3.11-8-7.54-1.29-9.71,16.72-19.06,15.12C220.3,154.52,218.87,149.17,219.78,143.9Z" transform="translate(-6.75 -5.43)"/><path class="cls-1" d="M211.25,170.48c.51-1.19,1.72-1.86,3.56-1.08l3.2,1.35a8.5,8.5,0,0,1-2.56-10c1.2-2.84,3.64-4.39,6.48-3.19,5,2.11,4,9.56,1.47,15.46l3.53,1.49c2.77,1.17,4.89-.43,5.94-2.91a9.45,9.45,0,0,0,.72-4.23c-1.67-.75-2.29-2.2-1.94-3s1.39-.68,2.06,1a10,10,0,0,1-.58,6.88c-1.34,3.16-3.95,5.62-7,4.31L214,171.37c-1.33-.56-2.22-.26-2.51.42a1.52,1.52,0,0,0-.13.8h-.21A3.47,3.47,0,0,1,211.25,170.48Zm4.68-8.75a7.73,7.73,0,0,0,4.52,10.05l2.7,1.14c2.9-7.25,2.27-11.67-1.72-13.36C218.87,158.48,216.93,159.36,215.93,161.73Z" transform="translate(-6.75 -5.43)"/><path class="cls-1" d="M203.51,169.64a5.23,5.23,0,0,1,1-1.12c1.82-1.54,3.09-.29,2.39.74-.4.58-1.4,1.07-3.21,1-1.46,2.55-.52,5.8,2.45,11l17.67,2.88c2,.3,2.68.08,3.06-.46a2.65,2.65,0,0,0,.32-.82h.14a3.23,3.23,0,0,1-.48,2.36,2.65,2.65,0,0,1-2.85,1l-16.5-2.65L214.79,196c1.07,1.82,2.2,2.73,3.28,1.16l.09.06-2.8,4.09-.09-.06c.86-1.26.78-2.26-.78-4.89l-8.36-14.25C204.19,178.81,201,173.34,203.51,169.64Z" transform="translate(-6.75 -5.43)"/><path class="cls-1" d="M206,221.46s-.09.14-.09.08a3.29,3.29,0,0,0-.72-2.21c-.75-.85-2.56-1.51-1.85-2.54C204.48,215.16,206.72,218.75,206,221.46Zm1.83-1.58s-.09.13-.09.08a3.21,3.21,0,0,0-.73-2.21c-.74-.86-2.55-1.51-1.84-2.54C206.31,213.57,208.58,217.14,207.8,219.88Z" transform="translate(-6.75 -5.43)"/><path class="cls-1" d="M180.35,205.72l-.07-.09,5.64-4.13.07.09c-1.58,1.15-1.43,2.16-.48,3.45l13.08,17.86c.95,1.3,1.86,1.74,3.43.59l.07.09-5.64,4.13-.07-.09c1.39-1,1.45-1.93.77-3l-13.37-18.33C182.83,205,181.89,204.59,180.35,205.72Z" transform="translate(-6.75 -5.43)"/><path class="cls-1" d="M163.28,214.45c4.08-1.58,9.29-.34,11.48,5.3,2.94,7.58-.91,12.76-6.12,14.78a13.71,13.71,0,0,1-6.1.9l3.11,8c.58,1.49.72,1.86,2.54,1.15l0,.11-3.43,2.17-.13,0-10-25.74c-.53-1.35-1.36-1.78-2.09-1.49a1.28,1.28,0,0,0-.62.45l-.17-.11a3.59,3.59,0,0,1,1.66-1.44c1.17-.45,2.5,0,3.22,1.81l1.13,2.92A8.34,8.34,0,0,1,163.28,214.45Zm-.64,1.26c-3.32,1.28-5.62,5.07-3.87,10l3.59,9.25a12.94,12.94,0,0,0,6-.77c4.55-1.77,7.29-6.27,4.93-12.35S166.21,214.32,162.64,215.71Z" transform="translate(-6.75 -5.43)"/><path class="cls-1" d="M140.75,220.57c13.14-1.87,15.95,18.48,2.8,20.35S127.64,222.42,140.75,220.57Zm-.79.58a6.25,6.25,0,0,0-1.63.43c-8.82,3.5-2.57,20,6,18.78a6.13,6.13,0,0,0,1.6-.42C154.86,236.39,148.58,219.93,140,221.15Z" transform="translate(-6.75 -5.43)"/><path class="cls-1" d="M126.61,244.18a3.36,3.36,0,0,0-.93,2.13c0,1.14.89,2.83-.32,3.12-2,.44-1.27-3.69,1.14-5.25C126.54,244.18,126.65,244.14,126.61,244.18Zm2.43,0a3.37,3.37,0,0,0-.94,2.13c0,1.14.93,2.83-.28,3.12-2,.44-1.27-3.69,1.1-5.25C129,244.22,129.08,244.18,129,244.22Z" transform="translate(-6.75 -5.43)"/><path class="cls-1" d="M107.78,219.46c2.23.42,3.77,2.14,3.13,5.48l-2.83,14.89,1.88.35-.06.31a5.1,5.1,0,0,0-4.58,3.22l-.2,0,.8-3.94-3.46-.66.06-.3,3.45.65,2.65-13.92c.74-3.91-.11-5.47-1.8-5.79a4.94,4.94,0,0,0-1.75,0l0-.21A6.75,6.75,0,0,1,107.78,219.46Z" transform="translate(-6.75 -5.43)"/><path class="cls-1" d="M95.93,216.08c12.51,4.45,5.55,23.78-7,19.33S83.46,211.64,95.93,216.08Zm-1,.15a6.63,6.63,0,0,0-1.65-.37c-9.43-1-11.56,16.52-3.36,19.44a6.34,6.34,0,0,0,1.61.37C101.09,236.65,103.17,219.15,95,216.23Z" transform="translate(-6.75 -5.43)"/><path class="cls-1" d="M71.1,202.75c2.38,1.77,4.25,4.43,4.39,6.92.22,1.53-.75,2-1.42,1.38s-.72-2.24.42-3.63a10.73,10.73,0,0,0-3.28-4c-2.63-2-5.84-2.5-7.59-.15-3.71,5,6.91,11.58,3.4,16.27-2,2.63-5.26,1.83-7.92-.15a12.23,12.23,0,0,1-3.86-4.69c-.6-1.42.23-2.07,1-1.66s1.24,2,.5,3.64a14,14,0,0,0,2.42,2.39c2.09,1.56,4.56,2.23,6.08.2,3.15-4.23-7.64-11.45-3.88-16.49C63.83,199.57,67.94,200.39,71.1,202.75Z" transform="translate(-6.75 -5.43)"/><path class="cls-1" d="M45.9,210.31a1.49,1.49,0,1,1-2.09,0A1.48,1.48,0,0,1,45.9,210.31Zm12.86-18,.09-.08,5,4.9-.08.08c-1.31-1.28-2.28-1.08-3.32-.08L50.08,207.63c-1.1,1.11-1.37,1.39,0,2.73l-.11.11-3.33-2.23-.08-.14,12.19-12.33C59.86,194.63,60.13,193.63,58.76,192.29Z" transform="translate(-6.75 -5.43)"/><path class="cls-1" d="M53,185.63l.09-.07,4.51,5.34-.09.08c-1.26-1.5-2.25-1.27-3.47-.24l-18.93,16c-1.22,1-1.52,1.28-.28,2.75l-.09.07L31.64,207l-.07-.14,21.15-17.8C53.92,188.06,54.28,187.1,53,185.63Z" transform="translate(-6.75 -5.43)"/><path class="cls-1" d="M43.19,170a2.87,2.87,0,0,1,.11,2.53l-4.14,11.91,3.08.87,5.11-3.09c1.34-.81,1.84-1.71.85-3.35l.1-.06,3.62,6-.1.06c-1-1.67-2-1.61-3.39-.78L27.26,196.85c-1.36.83-1.7,1-.71,2.67l-.1.06-2.71-3,0-.15,18.09-10.92-11.91-3.37c-1.83-.53-3.1-.59-2.08,1.08l-.1.06-2.29-3.77.1-.06c.65,1.07,1.75,1.54,3.85,2.14l7.71,2.17,4-11.61c.57-1.62.6-2.41.31-2.88a1.93,1.93,0,0,0-.91-.68l0-.1A3.33,3.33,0,0,1,43.19,170Z" transform="translate(-6.75 -5.43)"/><path class="cls-1" d="M20,134.73l.42-.08L25.47,161l-.42.08Z" transform="translate(-6.75 -5.43)"/><path class="cls-1" d="M35.12,111.11c-.71,4.16-2.87,8.23-5.9,10-1.21.82-2.3.24-2.15-.68s1.9-1.58,3.9-1.24A14.85,14.85,0,0,0,34.25,112c.79-4.66-.56-9.24-4.64-9.94-8.36-1.42-9.9,16.26-18.37,14.82-4.16-.7-5-5.12-4.25-9.47A17.65,17.65,0,0,1,10,100c1.28-1.73,2.5-1.2,2.5-.29,0,1.07-1.35,2.11-3.28,2.09a14.4,14.4,0,0,0-1.72,5c-.61,3.58-.08,7.43,3.12,8,7.54,1.28,9.69-16.73,19.05-15.14C34.59,100.48,36,105.83,35.12,111.11Z" transform="translate(-6.75 -5.43)"/><path class="cls-1" d="M43.61,84.54c-.5,1.18-1.71,1.86-3.55,1.08l-3.2-1.35a8.52,8.52,0,0,1,2.57,10c-1.2,2.84-3.64,4.4-6.48,3.2C28,95.35,28.88,87.9,31.46,82l-3.53-1.48c-2.77-1.17-4.89.43-5.93,2.92a9.59,9.59,0,0,0-.73,4.23c1.68.75,2.3,2.19,1.95,3s-1.39.69-2.06-1a10,10,0,0,1,.57-6.88c1.34-3.17,3.95-5.63,7-4.32L40.9,83.64c1.33.57,2.22.26,2.51-.42a1.49,1.49,0,0,0,.12-.8h.21A3.33,3.33,0,0,1,43.61,84.54Zm-4.67,8.75a7.74,7.74,0,0,0-4.53-10.05l-2.7-1.14c-2.89,7.26-2.25,11.68,1.74,13.36C36,96.54,37.94,95.67,38.94,93.29Z" transform="translate(-6.75 -5.43)"/><path class="cls-1" d="M51.35,85.37a4.74,4.74,0,0,1-1,1.12c-1.81,1.55-3.09.3-2.38-.73.4-.58,1.4-1.08,3.21-1,1.46-2.55.51-5.8-2.46-11L31.05,70.87c-2-.31-2.69-.09-3.06.46a2.27,2.27,0,0,0-.33.82h-.14A3.33,3.33,0,0,1,28,69.78a2.65,2.65,0,0,1,2.85-1l16.51,2.64L40.06,59c-1.07-1.83-2.2-2.74-3.28-1.16l-.1-.06,2.8-4.1.1.07c-.86,1.26-.79,2.25.78,4.88l8.37,14.25C50.67,76.2,53.89,81.67,51.35,85.37Z" transform="translate(-6.75 -5.43)"/><path class="cls-1" d="M47,35.12s.09-.14.09-.08a3.24,3.24,0,0,0,.73,2.21c.74.85,2.55,1.51,1.84,2.54C48.53,41.42,46.26,37.86,47,35.12Zm1.83-1.59s.09-.13.09-.08a3.22,3.22,0,0,0,.73,2.21c.74.86,2.55,1.51,1.84,2.54C50.36,39.83,48.12,36.24,48.87,33.53Z" transform="translate(-6.75 -5.43)"/><path class="cls-1" d="M74.48,49.26l.07.1-5.63,4.13-.07-.09c1.57-1.15,1.42-2.16.47-3.45L56.22,32.1c-.95-1.29-1.85-1.73-3.43-.58l-.07-.09,5.64-4.14.07.1c-1.39,1-1.44,1.93-.77,3L71.05,48.68C72,50,72.94,50.4,74.48,49.26Z" transform="translate(-6.75 -5.43)"/><path class="cls-1" d="M91.54,40.52c-4.08,1.59-9.29.35-11.49-5.29-2.94-7.57.91-12.76,6.11-14.78a13.86,13.86,0,0,1,6.1-.91l-3.12-8c-.58-1.49-.72-1.85-2.54-1.14l0-.11L90,8.11l.14,0,10,25.72c.52,1.35,1.36,1.78,2.09,1.5a1.34,1.34,0,0,0,.62-.45l.16.1a3.49,3.49,0,0,1-1.66,1.44c-1.16.45-2.49,0-3.21-1.81L97,31.73A8.33,8.33,0,0,1,91.54,40.52Zm.64-1.26c3.31-1.28,5.61-5.07,3.86-10L92.44,20a13.09,13.09,0,0,0-6,.78c-4.55,1.77-7.28,6.27-4.92,12.35S88.62,40.65,92.18,39.26Z" transform="translate(-6.75 -5.43)"/><path class="cls-1" d="M114.08,34.38c-13.14,1.87-16-18.48-2.82-20.35S127.19,32.51,114.08,34.38Zm.79-.58a6.67,6.67,0,0,0,1.63-.43c8.82-3.51,2.56-20-6.06-18.79a6.48,6.48,0,0,0-1.6.43C100,18.56,106.25,35,114.87,33.8Z" transform="translate(-6.75 -5.43)"/><path class="cls-1" d="M125.85,10.72a3.35,3.35,0,0,0,.93-2.14c0-1.13-.93-2.82.29-3.12,2-.44,1.26,3.69-1.1,5.26C125.89,10.72,125.81,10.75,125.85,10.72Zm2.42,0a3.31,3.31,0,0,0,.93-2.13c0-1.13-.89-2.83.33-3.12,2-.44,1.27,3.69-1.14,5.26C128.35,10.76,128.23,10.79,128.27,10.75Z" transform="translate(-6.75 -5.43)"/><path class="cls-1" d="M147,35.46c-2.23-.42-3.77-2.14-3.14-5.48l2.81-14.89-1.88-.36.06-.3a5.11,5.11,0,0,0,4.58-3.23l.19,0-.78,3.95,3.45.65-.06.31-3.45-.65-2.63,13.93c-.74,3.91.12,5.46,1.81,5.78a4.92,4.92,0,0,0,1.75,0l0,.2A6.76,6.76,0,0,1,147,35.46Z" transform="translate(-6.75 -5.43)"/><path class="cls-1" d="M158.9,38.83c-12.51-4.44-5.57-23.77,6.95-19.33S171.38,43.26,158.9,38.83Zm1-.15a6.53,6.53,0,0,0,1.65.37c9.43,1,11.55-16.54,3.34-19.45a6.35,6.35,0,0,0-1.61-.36C153.73,18.26,151.66,35.76,159.87,38.68Z" transform="translate(-6.75 -5.43)"/><path class="cls-1" d="M183.75,52.14c-2.39-1.77-4.25-4.42-4.4-6.91-.22-1.53.75-2,1.42-1.38s.72,2.23-.42,3.63a10.72,10.72,0,0,0,3.29,4c2.63,2,5.84,2.5,7.58.15,3.71-5-6.91-11.57-3.41-16.27,2-2.63,5.25-1.83,7.92.15a12.13,12.13,0,0,1,3.86,4.68c.6,1.42-.22,2.07-1,1.66s-1.24-2-.5-3.64a13.31,13.31,0,0,0-2.42-2.38c-2.09-1.56-4.57-2.23-6.08-.2-3.15,4.23,7.65,11.44,3.89,16.48C191,55.32,186.91,54.5,183.75,52.14Z" transform="translate(-6.75 -5.43)"/><path class="cls-1" d="M196.09,62.6l-.08.08-5-4.9.08-.08c1.31,1.28,2.28,1.08,3.32.08l10.35-10.53c1.09-1.11,1.36-1.39,0-2.73l.11-.11,3.33,2.23.09.14L196.11,59.12C195,60.26,194.72,61.25,196.09,62.6Zm12.85-18a1.48,1.48,0,1,1,2.1,0A1.48,1.48,0,0,1,208.94,44.56Z" transform="translate(-6.75 -5.43)"/><path class="cls-1" d="M201.82,69.25l-.09.07L197.22,64l.09-.07c1.26,1.49,2.25,1.27,3.47.23l18.91-16c1.23-1,1.52-1.28.29-2.75l.09-.07,3.14,2.51.07.14L202.14,65.81C200.94,66.82,200.59,67.78,201.82,69.25Z" transform="translate(-6.75 -5.43)"/><path class="cls-1" d="M211.69,84.93a2.86,2.86,0,0,1-.12-2.53l4.13-11.92-3.08-.87-5.11,3.1c-1.33.81-1.84,1.71-.84,3.34l-.1.06-3.63-6,.1-.06c1,1.67,2,1.6,3.39.77L227.59,58c1.37-.84,1.7-1,.71-2.67l.1-.06,2.71,3,0,.16L213.09,69.32,225,72.69c1.83.53,3.09.59,2.08-1.08l.1-.06,2.29,3.77-.1.06c-.65-1.07-1.76-1.54-3.86-2.14l-7.71-2.17-4,11.62c-.57,1.62-.59,2.41-.31,2.88a2,2,0,0,0,.92.67l0,.11A3.32,3.32,0,0,1,211.69,84.93Z" transform="translate(-6.75 -5.43)"/><path class="cls-1" d="M235,120.12l-.42.09-5.12-26.37.42-.09Z" transform="translate(-6.75 -5.43)"/></g></g></svg>